<?xml version="1.0" encoding="utf-8"?>
<!-- Generator: Adobe Illustrator 15.0.0, SVG Export Plug-In . SVG Version: 6.00 Build 0)  -->
<!DOCTYPE svg PUBLIC "-//W3C//DTD SVG 1.1//EN" "http://www.w3.org/Graphics/SVG/1.1/DTD/svg11.dtd">
<svg version="1.1" id="Ebene_1" xmlns="http://www.w3.org/2000/svg" xmlns:xlink="http://www.w3.org/1999/xlink" x="0px" y="0px"
	 width="566.93px" height="566.93px" viewBox="0 0 566.93 566.93" enable-background="new 0 0 566.93 566.93" xml:space="preserve">
<g id="joystick_x5F_neu_1_">
	<g>
		<path fill-rule="evenodd" clip-rule="evenodd" fill="#FFFFFF" d="M311.108,83.354c-3.312,1.739-6.162,3.939-9.571,5.583
			C304.063,86.41,306.895,84.191,311.108,83.354z"/>
		<path fill-rule="evenodd" clip-rule="evenodd" fill="#FFFFFF" d="M295.157,91.863c0.541,1.283-3.435,2.565-4.786,3.721
			C291.464,93.84,293.708,93.25,295.157,91.863z"/>
		<path fill-rule="evenodd" clip-rule="evenodd" fill="#BE0A26" d="M329.711,161.641c-5.438-2.759-10.589-7.127-15.677-11.021
			c-6.531-4.998-10.578-6.259-13.824-14.091c-0.917-2.206-2.221-4.503-2.394-6.647c-0.218-2.696,0.832-5.609,1.594-7.977
			c1.574-4.88,3.473-7.91,9.306-7.975c7.062-0.078,12.794,4.147,18.348,6.647c11.732,5.283,21.868,10.343,32.435,17.814
			c6.796,4.802,13.196,9.004,19.941,13.825c6.211,4.439,13.521,10.543,16.749,16.75c1.457,2.801,4.555,9.046,3.724,13.824
			c-0.471,2.712-4.989,8.021-7.445,9.307c-4.24,2.22-10.064,1.145-14.623-0.531c-6.957-2.562-12.72-7.714-19.144-11.433
			c-5.032-2.915-10.916-5.005-15.421-8.508c-2.341-1.823-4.277-3.851-6.646-5.319C334.086,164.727,332.229,163.621,329.711,161.641z
			 M389.542,163.117c-7.079-7.548-17.504-13.605-26.322-19.675c-3.033-2.088-5.781-4.526-8.773-6.647
			c-6.086-4.313-12.711-7.256-19.675-10.9c-3.296-1.726-7.352-2.74-10.9-4.521c-3.634-1.825-7.109-4.314-10.368-5.052
			c-2.097-0.474-5.857-0.91-7.712-0.265c-5.559,1.933-7.479,14.608-3.723,19.142c3.262,3.932,9.734,6.532,14.623,10.103
			c4.975,3.634,9.548,8.16,14.094,10.901c4.584,2.767,19.43,12.039,21.269,13.826c7.887,4.236,16.919,10.513,25.79,14.092
			c5.445,2.195,11.853,5.897,17.814,2.127c0.972-1.596,1.884-2.545,2.658-3.988C398.209,174.939,394.09,167.964,389.542,163.117z
			 M305.523,142.644c9.263,5.275,16.504,12.567,26.06,17.548c8.517,8.222,20.576,13.596,30.573,20.208
			c7.755,5.128,20.365,14.412,30.842,9.039c-4.977,1.413-8.95-0.504-12.494-2.128c-1.814-0.829-3.832-1.125-5.585-1.86
			c-2.314-0.968-4.806-2.789-7.179-4.254c-4.987-3.083-9.669-5.912-14.356-8.773c-2.44-1.49-8.756-5.17-9.571-5.584
			c-3.227-1.637-6.529-4.486-9.836-6.647c-10.088-6.587-20.335-14.648-29.779-20.472
			C304.078,141.258,304.403,141.147,305.523,142.644z"/>
		<path fill-rule="evenodd" clip-rule="evenodd" fill="#BE0A26" d="M474.356,132.274c1.445,0.772,1.435,2.998,2.393,4.254
			C475.467,136.654,474.873,133.799,474.356,132.274z"/>
		<path fill-rule="evenodd" clip-rule="evenodd" fill="#BE0A26" d="M265.379,148.759c7.399-0.655,13.389,2.702,19.144,5.317
			c3.607,1.642,6.725,4.149,9.569,6.382c4.768,3.737,14.646,9.414,15.687,16.218c0.542,3.541,0.022,8.596-1.063,12.231
			c-1.323,4.424-5.065,8.7-8.506,12.496c-3.145,3.466-7.26,8.219-12.499,8.242c-3.209,0.013-8.493-1.781-11.962-2.658
			c-9.766-2.47-18.371-5.389-27.121-9.04c-5.779-2.414-8.854-2.739-9.571-10.637c-0.642-7.06,1.384-14.317,5.051-19.674
			c2.765-4.037,6.599-8.563,9.307-10.9c1.144-0.988,2.743-2.615,4.185-4.025C260.339,150.029,260.779,149.166,265.379,148.759z
			 M256.977,155.444c-1.151,0.974-2.433,2.047-3.296,2.887c-1.399,1.361-3.411,3.852-5.052,6.115
			c-3.341,4.606-8.442,11.505-8.242,18.344c0.214,7.278,5.096,7.585,10.368,10.37c6.087,1.301,12.235,2.535,17.815,4.52
			c3.273,1.164,6.394,2.783,9.573,3.723c2.431,0.72,5.515,1.697,7.974,1.595c4.685-0.192,10.733-5.257,13.294-8.508
			c1.698-2.152,2.759-4.803,4.255-7.179c1.257-1.991,3.592-5.711,3.723-7.976c0.043-0.769,0.2-1.86,0.098-2.842
			c-0.116-1.125-0.385-1.46-0.63-2.209c-0.337-1.03-2.788-3.805-3.988-5.052c-1.691-1.756-4.695-3.658-7.443-5.85
			c-2.357-1.878-5.463-4.448-7.713-5.849c-2.179-1.358-4.965-2.282-7.443-3.457c-4.856-2.301-10.606-4.685-16.484-3.457
			C260.782,151.119,259.58,153.245,256.977,155.444z M303.93,189.97c-0.885,1.385-1.26,3.14-2.126,4.519
			c-2.081,3.313-6.754,6.703-9.572,8.242c-1.917,1.047-4.652,2.188-6.647,2.128c-1.381-0.042-2.667-0.383-3.925-0.67
			c-1.431-0.328-3.118-0.792-4.583-1.191c-4.379-1.191-8.452-3.764-13.027-5.317c-5.919-2.008-12.277-2.341-17.599-4.985
			c-2.794-2.299-3.415-2.093-5.267-3.256c0.879,5.007,5.548,5.775,9.837,7.444c11.441,4.451,25.115,9.111,38.286,10.901
			c8.628-4.666,15.028-11.561,18.08-21.802c-0.029-0.324-0.004-2.282-0.456-2.184C306.367,185.672,305.021,188.264,303.93,189.97z"
			/>
		<path fill-rule="evenodd" clip-rule="evenodd" fill="#BE0A26" d="M463.454,197.147c0.766,0.301,0.988,1.141,1.066,2.128
			C463.822,198.909,463.369,198.298,463.454,197.147z"/>
		<path fill-rule="evenodd" clip-rule="evenodd" fill="#BE0A26" d="M460.001,200.073c0.823,0.062,0.828,0.942,1.062,1.595
			C460.213,201.633,459.895,201.065,460.001,200.073z"/>
		<path fill-rule="evenodd" clip-rule="evenodd" fill="#BE0A26" d="M456.542,204.061c0.91,0.511,1.243,1.595,1.597,2.66
			C457.239,206.201,456.754,205.267,456.542,204.061z"/>
		<path fill-rule="evenodd" clip-rule="evenodd" fill="#BE0A26" d="M424.106,214.696c0.268,0,0.532,0,0.798,0
			c-0.737,2.454-1.115,5.267-2.393,7.179C419.996,220.235,423.638,216.766,424.106,214.696z"/>
		<path fill-rule="evenodd" clip-rule="evenodd" fill="#FFFFFF" d="M316.959,225.065c6.116,1.329,9.322,8.393,14.356,11.964
			c1.674,1.187,4.105,2.348,6.116,3.723c2.773,1.896,4.998,3.818,7.976,4.253c6.739,0.987,11.709-0.938,14.624-3.988
			c3.676-3.845,7.193-9.536,10.102-14.623c0.269,3.075-1.951,6.444-3.988,9.306c-3.322,4.669-6.37,10.458-11.965,12.497
			c-3.98,1.449-14.026-2.404-16.748-4.255c-2.759-1.875-5.371-5.429-8.51-7.976C324.308,232.217,320.589,229.166,316.959,225.065z"
			/>
		<path fill-rule="evenodd" clip-rule="evenodd" fill="#BE0A26" d="M420.649,225.33c-5.772,16.916-15.508,29.87-22.599,45.466
			c-2.858,2.194-3.132,6.972-6.116,9.04c-2.17,6.655-6.911,11.774-10.101,17.547c-1.793,3.242-2.322,7.11-5.32,9.572
			c-0.431,2.227-1.534,3.783-3.189,4.786c-0.043-3.715,2.925-6.03,4.52-9.04c1.121-2.116,1.748-4.68,2.924-6.913
			c1.174-2.223,3.176-3.997,4.52-6.38c2.76-4.878,5.406-10.144,8.244-15.421c5.29-9.844,12.104-19.846,16.75-30.311
			c2.427-5.468,5.289-10.689,7.712-15.686c0.378-0.784,1.541-1.999,2.126-2.66C420.297,225.33,420.474,225.33,420.649,225.33z"/>
		<path fill-rule="evenodd" clip-rule="evenodd" fill="#BE0A26" d="M450.161,241.017c1.42,0.708,1.509,2.746,2.129,4.254
			C451.071,244.363,450.552,242.757,450.161,241.017z"/>
		<path fill-rule="evenodd" clip-rule="evenodd" fill="#BE0A26" d="M162.218,244.208c-0.463,1.044-0.725,2.289-1.86,2.66
			C159.628,245.582,160.932,244.331,162.218,244.208z"/>
		<path fill-rule="evenodd" clip-rule="evenodd" fill="#BE0A26" d="M444.048,246.601c0.751,0.312,0.81,1.318,1.062,2.127
			C444.349,248.428,444.122,247.588,444.048,246.601z"/>
		<path fill-rule="evenodd" clip-rule="evenodd" fill="#BE0A26" d="M155.306,248.728c-0.39,1.604-3.439,3.122-4.784,1.33
			C151.708,249.379,154.582,248.985,155.306,248.728z"/>
		<path fill-rule="evenodd" clip-rule="evenodd" fill="#BE0A26" d="M439.793,251.387c0.557,0.243,0.81,0.785,0.797,1.595
			C439.638,253.137,439.783,252.195,439.793,251.387z"/>
		<path fill-rule="evenodd" clip-rule="evenodd" fill="#BE0A26" d="M264.05,252.982c1.761-0.102,5.01,2.155,7.445,2.925
			c1.547,0.491,3.304,0.273,4.784,0.798c2.856,1.01,6.572,3.65,9.571,5.847c8.752,6.412,18.709,12.913,26.587,19.677
			c3.744,3.211,7.169,7.333,10.635,10.901c5.365,5.515,10.141,10.645,15.423,16.219c1.615,1.703,3.586,3.522,4.255,5.848
			c-8.735-7.306-16.191-15.892-23.666-24.46c-6.499-6.125-13.361-11.594-21.003-17.017c-3.469-2.462-7.568-5.13-11.167-7.976
			c-3.503-2.769-7.594-5.972-11.432-7.444C271.478,256.762,266.159,256.793,264.05,252.982z"/>
		<path fill-rule="evenodd" clip-rule="evenodd" fill="#BE0A26" d="M146.267,254.843c-1.036,2.066-7.054,2.164-7.71-0.531
			C140.577,254.584,143.215,255.822,146.267,254.843z"/>
		<path fill-rule="evenodd" clip-rule="evenodd" fill="#BE0A26" d="M436.337,266.542c1.729,1.018,1.835,3.659,2.658,5.583
			C437.651,270.721,436.911,268.715,436.337,266.542z"/>
		<path fill-rule="evenodd" clip-rule="evenodd" fill="#BE0A26" d="M429.423,272.125c1.178,1.04,1.457,2.975,2.128,4.52
			C430.395,276.645,429.928,273.664,429.423,272.125z"/>
		<path fill-rule="evenodd" clip-rule="evenodd" fill="#BE0A26" d="M435.007,275.315c0.729,1.043,1.216,2.33,1.33,3.988
			C435.142,278.725,435.085,277.01,435.007,275.315z"/>
		<path fill-rule="evenodd" clip-rule="evenodd" fill="#BE0A26" d="M431.551,277.442c0.798,0.709,1.018,1.995,1.33,3.192
			C431.68,280.328,431.686,278.814,431.551,277.442z"/>
		<path fill-rule="evenodd" clip-rule="evenodd" fill="#BE0A26" d="M424.639,289.142c0.336,0.461,0.899,0.696,0.798,1.595
			C424.611,290.761,424.644,289.934,424.639,289.142z"/>
		<path fill-rule="evenodd" clip-rule="evenodd" fill="#BE0A26" d="M182.691,289.938c-0.215,1.113-0.562,2.098-1.861,2.127
			C181.074,290.979,181.646,290.222,182.691,289.938z"/>
		<path fill-rule="evenodd" clip-rule="evenodd" fill="#BE0A26" d="M174.716,294.725c-0.201,0.863-0.443,1.686-1.597,1.595
			C172.596,295.602,173.581,294.616,174.716,294.725z"/>
		<path fill-rule="evenodd" clip-rule="evenodd" fill="#BE0A26" d="M155.306,297.65c3.733,1.131,7.199,1.52,11.433,0.53
			C164.534,300.629,156.928,300.741,155.306,297.65z"/>
		<path fill-rule="evenodd" clip-rule="evenodd" fill="#BE0A26" d="M337.432,299.776c-0.261,0.992-1.41,2.174-2.393,1.594
			C335.346,300.35,336.263,299.937,337.432,299.776z"/>
		<path fill-rule="evenodd" clip-rule="evenodd" fill="#BE0A26" d="M341.152,303.231c-0.355,1.331-1.807,1.562-3.455,1.599
			C338.162,303.608,339.772,303.537,341.152,303.231z"/>
		<path fill-rule="evenodd" clip-rule="evenodd" fill="#BE0A26" d="M418.788,305.358c0.839,0.048,0.72,1.051,0.799,1.861
			C419.056,306.866,418.994,306.04,418.788,305.358z"/>
		<path fill-rule="evenodd" clip-rule="evenodd" fill="#BE0A26" d="M346.471,305.625c0.819,1.541-2.774,5.208-5.051,3.724
			c-0.021-1.217,0.781-0.535,1.33-0.267C343.842,307.782,345.874,307.423,346.471,305.625z"/>
		<path fill-rule="evenodd" clip-rule="evenodd" fill="#BE0A26" d="M354.713,306.688c0.627,1.786-3.105,1.497-2.395,4.255
			c-2.064-1.465-4.414,1.791-6.381,0.267c0.232-1.476,1.568-0.581,2.395-0.799C350.828,309.751,352.975,308.07,354.713,306.688z"/>
		<path fill-rule="evenodd" clip-rule="evenodd" fill="#BE0A26" d="M419.587,307.752c1.103,0.937,1.784,2.293,1.861,4.254
			C420.308,311.108,420.297,309.081,419.587,307.752z"/>
		<path fill-rule="evenodd" clip-rule="evenodd" fill="#BE0A26" d="M421.979,314.664c0.907-0.02,0.789,0.985,0.797,1.861
			C422.133,316.282,422.073,315.459,421.979,314.664z"/>
		<path fill-rule="evenodd" clip-rule="evenodd" fill="#BE0A26" d="M370.666,315.995c0.308-0.044,0.474,0.058,0.533,0.266
			c-1.09,2.317-2.734,4.759-2.926,7.177c-2.924,3.658-5.956,6.185-9.573,9.573c-2.683,2.516-5.092,5.511-8.507,7.446
			c-7.663,4.332-20.85,5.619-32.436,4.253c1.311-1.812,4.354-1.847,6.381-1.864c2.105-0.016,4.212,0.381,6.38,0.268
			c18.279-0.938,27.238-10.704,36.425-20.738C367.759,319.824,369.318,318.015,370.666,315.995z"/>
		<path fill-rule="evenodd" clip-rule="evenodd" fill="#BE0A26" d="M414.534,319.982c0.396,0.845,1.282,1.2,1.331,2.393
			C415.024,321.977,414.565,321.191,414.534,319.982z"/>
		<path fill-rule="evenodd" clip-rule="evenodd" fill="#BE0A26" d="M411.344,334.34c0.925,1.114,1.622,2.458,1.596,4.519
			C412.021,337.74,411.662,336.06,411.344,334.34z"/>
		<path fill-rule="evenodd" clip-rule="evenodd" fill="#BE0A26" d="M402.835,337.796c1.083,0.419,1.52,2.47,2.129,3.988
			c0.63,1.573,1.472,3.176,1.595,4.786C404.357,344.603,404.283,340.514,402.835,337.796z"/>
		<path fill-rule="evenodd" clip-rule="evenodd" fill="#BE0A26" d="M150.521,341.252c-0.864,1.216-1.524,3.914-3.724,2.926
			C147.903,343.066,148.469,341.416,150.521,341.252z"/>
		<path fill-rule="evenodd" clip-rule="evenodd" fill="#BE0A26" d="M205.823,343.646c1.199,0.212,1.732,2.234,1.594,2.925
			C206.065,346.417,205.769,345.207,205.823,343.646z"/>
		<path fill-rule="evenodd" clip-rule="evenodd" fill="#BE0A26" d="M314.299,343.911c-1.757,2.503-7.127,3.659-10.634,3.722
			c0.912-2.809,5.547-1.896,7.443-3.722C312.188,344.197,312.774,343.791,314.299,343.911z"/>
		<path fill-rule="evenodd" clip-rule="evenodd" fill="#BE0A26" d="M397.253,346.038c1.289,0.927,1.641,2.792,2.394,4.254
			C397.96,349.765,398.046,347.463,397.253,346.038z"/>
		<path fill-rule="evenodd" clip-rule="evenodd" fill="#BE0A26" d="M181.096,348.431c0.645,0.48,0.603,2.357,0.266,3.458
			C179.804,351.272,180.283,349.336,181.096,348.431z"/>
		<path fill-rule="evenodd" clip-rule="evenodd" fill="#BE0A26" d="M298.081,350.025c-2.06,2.805-4.716,5.048-7.179,7.446
			c-10.2,9.931-19.819,21.047-30.575,30.842c-3.241,2.95-5.85,6.604-9.837,8.507c-4.259,3.72-13.231,10.161-20.473,12.495
			c-1.374,0.445-5.18,2.029-6.912,0.722c0.393-1.729,2.386-1.89,3.989-2.05c1.047-0.105,2.515-0.46,3.456-0.798
			c3.161-1.138,6.492-3.298,9.572-5.051c9.002-5.123,16.566-12.127,23.929-19.145c9.646-9.192,18.274-20.336,27.918-29.51
			c2.174-0.838,3.472-2.556,5.582-3.459C297.727,350.025,297.904,350.025,298.081,350.025z"/>
		<path fill-rule="evenodd" clip-rule="evenodd" fill="#BE0A26" d="M396.985,354.014c0.396,0.228,0.573,0.671,0.534,1.331
			C396.727,355.399,396.582,354.396,396.985,354.014z"/>
		<path fill-rule="evenodd" clip-rule="evenodd" fill="#BE0A26" d="M339.026,359.599c0.309-0.044,0.474,0.059,0.531,0.267
			c0.313,3.571,3.61,6.744,2.66,9.836C340.496,366.991,339.335,363.721,339.026,359.599z"/>
		<path fill-rule="evenodd" clip-rule="evenodd" fill="#BE0A26" d="M392.998,359.865c1.085,0.686,0.986,2.559,1.597,3.721
			C393.561,362.847,393.12,361.517,392.998,359.865z"/>
		<path fill-rule="evenodd" clip-rule="evenodd" fill="#BE0A26" d="M332.377,367.045c0.311-0.045,0.478,0.057,0.533,0.263
			c1.318,4.124,1.528,8.806,2.393,13.03c0.316,1.524,2.71,6.311-1.062,5.316C335.249,379.76,332.642,373.386,332.377,367.045z"/>
		<path fill-rule="evenodd" clip-rule="evenodd" fill="#BE0A26" d="M387.415,368.638c0.86,0.826,1.324,2.044,1.33,3.724
			C387.791,371.631,387.892,369.847,387.415,368.638z"/>
		<path fill-rule="evenodd" clip-rule="evenodd" fill="#BE0A26" d="M193.061,369.434c0.429-0.072,0.457,0.254,0.798,0.268
			c-0.023,0.954-0.414,1.536-0.532,2.394C192.168,371.879,192.477,370.054,193.061,369.434z"/>
		<path fill-rule="evenodd" clip-rule="evenodd" fill="#BE0A26" d="M392.202,371.031c0.774,0.377,0.728,1.573,1.063,2.393
			C392.412,373.123,392.514,371.874,392.202,371.031z"/>
		<path fill-rule="evenodd" clip-rule="evenodd" fill="#BE0A26" d="M382.098,374.753c0.683,0.56,1.014,1.469,1.062,2.659
			C382.118,377.215,382.285,375.808,382.098,374.753z"/>
		<path fill-rule="evenodd" clip-rule="evenodd" fill="#BE0A26" d="M385.821,377.68c0.537,1.585,1.777,2.474,1.594,4.783
			C386.789,380.963,385.689,379.936,385.821,377.68z"/>
		<path fill-rule="evenodd" clip-rule="evenodd" fill="#BE0A26" d="M316.959,382.463c1.364,1.737,1.535,4.669,1.86,7.443
			C317.571,388.209,317.289,384.201,316.959,382.463z"/>
		<path fill-rule="evenodd" clip-rule="evenodd" fill="#BE0A26" d="M379.705,384.325c0.571,0.225,0.942,0.654,0.799,1.594
			C379.679,385.944,379.71,385.117,379.705,384.325z"/>
		<path fill-rule="evenodd" clip-rule="evenodd" fill="#BE0A26" d="M317.758,396.287c1.241,1.876,1.17,4.903,1.859,7.979
			c0.633,2.822,2.807,6.308,0.799,7.709C319.536,406.91,317.867,401.238,317.758,396.287z"/>
		<path fill-rule="evenodd" clip-rule="evenodd" fill="#BE0A26" d="M314.566,398.681c0.429-0.073,0.457,0.251,0.798,0.268
			c0.189,6.101,2.856,11.145,2.658,16.75c-1.858-2.611-1.972-7.092-2.658-11.433c-0.261-1.646-0.9-3.186-0.798-4.787
			C314.248,399.131,314.46,399.062,314.566,398.681z"/>
		<path fill-rule="evenodd" clip-rule="evenodd" fill="#BE0A26" d="M365.879,404.266c0.946,0.297,0.667,1.814,1.332,2.394
			C366.4,407.277,365.922,405.296,365.879,404.266z"/>
		<path fill-rule="evenodd" clip-rule="evenodd" fill="#BE0A26" d="M360.827,404.797c0.844,1.106,1.432,2.469,1.863,3.988
			C361.52,408.128,360.885,405.697,360.827,404.797z"/>
		<path fill-rule="evenodd" clip-rule="evenodd" fill="#BE0A26" d="M304.994,408.521c1.079,6.641,4.556,13.684,3.989,20.206
			c-1.646-3.315-1.801-8.56-2.927-13.294C305.675,413.823,304.45,410.873,304.994,408.521z"/>
		<path fill-rule="evenodd" clip-rule="evenodd" fill="#BE0A26" d="M362.955,409.848c1.145,1.587,2.557,4.078,2.393,6.116
			C364.073,414.404,363.389,412.251,362.955,409.848z"/>
		<path fill-rule="evenodd" clip-rule="evenodd" fill="#BE0A26" d="M215.66,410.914c-2.42,2.663-7.232,3-11.699,2.921
			c-0.333-2.178,2.208-1.405,3.456-1.594C210.104,411.838,213.534,410.578,215.66,410.914z"/>
		<path fill-rule="evenodd" clip-rule="evenodd" fill="#BE0A26" d="M200.505,411.178c-0.384,0.788-1.485,1.907-2.392,1.33
			C197.883,411.037,199.739,411.652,200.505,411.178z"/>
		<path fill-rule="evenodd" clip-rule="evenodd" fill="#BE0A26" d="M299.943,412.772c2.589,7.927,4.292,15.419,4.786,24.729
			c-0.838,0.279-1.123,1.109-2.127,0.53C305.506,432.807,300.501,421.014,299.943,412.772z"/>
		<path fill-rule="evenodd" clip-rule="evenodd" fill="#BE0A26" d="M94.421,413.835c0.542,0.258,0.574,1.022,0.532,1.863
			C94.193,415.66,94.466,414.59,94.421,413.835z"/>
		<path fill-rule="evenodd" clip-rule="evenodd" fill="#BE0A26" d="M177.373,414.901c-0.469,0.858-2.119,1.655-2.923,1.326
			C174.662,415.024,176.422,415.365,177.373,414.901z"/>
		<path fill-rule="evenodd" clip-rule="evenodd" fill="#BE0A26" d="M296.222,418.622c1.366,4.729,2.319,10.173,3.722,15.953
			c0.465,1.919,1.632,4.562,0,6.113C299.303,434.502,296.916,426.424,296.222,418.622z"/>
		<path fill-rule="evenodd" clip-rule="evenodd" fill="#BE0A26" d="M94.953,419.153c0.919,1.829,1.161,4.334,1.595,6.647
			C95.229,424.12,95.306,422.116,94.953,419.153z"/>
		<path fill-rule="evenodd" clip-rule="evenodd" fill="#BE0A26" d="M290.637,419.153c0.978,1.683,0.769,4.55,1.331,6.647
			C290.195,424.912,291.205,421.247,290.637,419.153z"/>
		<path fill-rule="evenodd" clip-rule="evenodd" fill="#BE0A26" d="M291.7,427.128c0.268,0,0.531,0,0.798,0
			c0.591,6.794,4.052,13.162,2.926,19.941C294.699,441.151,292.736,434.34,291.7,427.128z"/>
		<path fill-rule="evenodd" clip-rule="evenodd" fill="#BE0A26" d="M282.395,428.194c0.59,0.826,0.719,2.116,0.797,3.455
			C282.307,431.116,282.412,429.597,282.395,428.194z"/>
		<path fill-rule="evenodd" clip-rule="evenodd" fill="#BE0A26" d="M354.98,428.459c1.176,1.04,1.428,3.004,1.858,4.787
			C355.509,432.361,355.357,430.298,354.98,428.459z"/>
		<path fill-rule="evenodd" clip-rule="evenodd" fill="#BE0A26" d="M288.243,428.992c1.268,1.033,1.003,3.608,1.332,5.583
			C288.758,433.228,288.184,430.347,288.243,428.992z"/>
		<path fill-rule="evenodd" clip-rule="evenodd" fill="#BE0A26" d="M108.247,430.055c0.588,0.033,0.113,1.128,0.266,1.595
			C107.783,431.645,107.88,430.396,108.247,430.055z"/>
		<path fill-rule="evenodd" clip-rule="evenodd" fill="#BE0A26" d="M275.749,439.894c0.779,0.106,0.211,1.561,0.797,1.861
			C275.931,442.523,275.774,440.592,275.749,439.894z"/>
		<path fill-rule="evenodd" clip-rule="evenodd" fill="#BE0A26" d="M281.333,444.413c0.901,0.604,0.503,2.511,0.797,3.723
			C281.281,447.573,281.383,444.916,281.333,444.413z"/>
		<path fill-rule="evenodd" clip-rule="evenodd" fill="#BE0A26" d="M276.546,444.944c0.631,0.146,1.103,1.028,0.531,1.596
			C276.613,446.296,276.491,445.71,276.546,444.944z"/>
		<path fill-rule="evenodd" clip-rule="evenodd" fill="#BE0A26" d="M277.077,447.603c1.238,0.448,0.569,2.8,1.066,3.988
			C277.228,450.82,277.121,449.242,277.077,447.603z"/>
		<path fill-rule="evenodd" clip-rule="evenodd" fill="#BE0A26" d="M129.517,448.933c0.647,0.477,0.376,2.593,0.265,3.722
			C128.954,451.93,129.267,450.04,129.517,448.933z"/>
		<path fill-rule="evenodd" clip-rule="evenodd" fill="#BE0A26" d="M264.315,452.124c0.826,0.06,0.449,1.321,0.532,2.125
			C264.021,454.189,264.396,452.928,264.315,452.124z"/>
		<path fill-rule="evenodd" clip-rule="evenodd" fill="#BE0A26" d="M260.86,452.654c0.778,1.594,0.72,3.172,0.796,5.849
			C260.138,457.69,261.059,454.033,260.86,452.654z"/>
		<path fill-rule="evenodd" clip-rule="evenodd" fill="#BE0A26" d="M270.166,453.187c0.393,0.225,0.57,0.67,0.53,1.33
			C269.905,454.571,269.76,453.567,270.166,453.187z"/>
		<path fill-rule="evenodd" clip-rule="evenodd" fill="#BE0A26" d="M273.356,453.717c1.671,1.697,1.331,5.404,1.86,8.244
			C273.798,460.009,273.827,456.614,273.356,453.717z"/>
		<path fill-rule="evenodd" clip-rule="evenodd" fill="#BE0A26" d="M270.696,457.441c0.847,0.232,0.902,1.066,0.532,1.858
			C270.467,459.265,270.742,458.191,270.696,457.441z"/>
		<path fill-rule="evenodd" clip-rule="evenodd" fill="#BE0A26" d="M265.112,458.237c1.216,0.647,1.033,2.692,1.329,4.254
			C265.448,461.626,265.728,459.483,265.112,458.237z"/>
		<path fill-rule="evenodd" clip-rule="evenodd" fill="#BE0A26" d="M270.696,459.834c0.982-0.685,1.92,3.903,0.532,3.988
			C271.264,462.281,271.182,460.854,270.696,459.834z"/>
		<path fill-rule="evenodd" clip-rule="evenodd" fill="#BE0A26" d="M275.216,462.757c0.888,0.797,0.921,2.446,1.063,3.99
			C274.856,466.486,275.67,463.989,275.216,462.757z"/>
		<path fill-rule="evenodd" clip-rule="evenodd" fill="#BE0A26" d="M314.034,463.556c0.881,0.093,0.415,1.532,0.532,2.393
			C313.782,465.571,313.66,464.374,314.034,463.556z"/>
		<path fill-rule="evenodd" clip-rule="evenodd" fill="#BE0A26" d="M261.392,464.884c0.905-0.02,0.786,0.988,0.797,1.863
			C261.282,466.766,261.401,465.76,261.392,464.884z"/>
		<path fill-rule="evenodd" clip-rule="evenodd" fill="#BE0A26" d="M159.827,465.681c0.839-0.341,0.839,2.205,0,1.861
			C159.827,466.921,159.827,466.303,159.827,465.681z"/>
		<path fill-rule="evenodd" clip-rule="evenodd" fill="#BE0A26" d="M314.566,467.011c1.475,0.654,0.462,3.794,1.329,5.052
			C314.842,470.988,315.018,468.686,314.566,467.011z"/>
		<path fill-rule="evenodd" clip-rule="evenodd" fill="#BE0A26" d="M322.809,467.011c0.982,1.233,1.01,3.42,1.596,5.052
			C322.856,471.396,323.041,468.996,322.809,467.011z"/>
		<path fill-rule="evenodd" clip-rule="evenodd" fill="#BE0A26" d="M238.791,469.404c0.841,0.048,0.722,1.052,0.799,1.861
			C238.683,471.287,238.801,470.28,238.791,469.404z"/>
		<path fill-rule="evenodd" clip-rule="evenodd" fill="#BE0A26" d="M326.797,469.404c0.57,1.201,1.073,2.473,1.062,4.254
			C326.588,473.157,327.031,470.942,326.797,469.404z"/>
		<path fill-rule="evenodd" clip-rule="evenodd" fill="#BE0A26" d="M180.565,476.315c0.964,0.244,0.161,0.785,0.265,1.6
			C180.451,477.561,180.127,476.729,180.565,476.315z"/>
		<path fill-rule="evenodd" clip-rule="evenodd" fill="#BE0A26" d="M244.375,476.315c0.682,0.562,0.521,1.965,0.533,3.192
			C243.981,478.661,244.28,477.779,244.375,476.315z"/>
		<path fill-rule="evenodd" clip-rule="evenodd" fill="#BE0A26" d="M226.03,480.04c1.004-0.229,0.939,1.191,0.531,1.596
			C225.881,481.604,226.033,480.743,226.03,480.04z"/>
		<path fill-rule="evenodd" clip-rule="evenodd" fill="#BE0A26" d="M176.576,480.836c1.225,0.206,0.219,0.831,0.266,1.331
			c0.312,3.293,2.76,7.223,2.659,10.901C177.485,490.093,175.694,485.06,176.576,480.836z"/>
		<path fill-rule="evenodd" clip-rule="evenodd" fill="#BE0A26" d="M130.58,481.902c1.124,2.03,0.797,4.01,0.797,6.912
			C129.777,487.831,129.976,483.477,130.58,481.902z"/>
		<path fill-rule="evenodd" clip-rule="evenodd" fill="#BE0A26" d="M289.575,483.763c0.971,0.42,0.983,2.393,0.796,3.188
			C289.558,486.438,289.946,484.719,289.575,483.763z"/>
		<path fill-rule="evenodd" clip-rule="evenodd" fill="#BE0A26" d="M140.949,491.208c0.429-0.076,0.457,0.251,0.798,0.263
			c-0.315,3.439,1.744,5.851,1.063,8.775C141.367,498.056,140.827,494.961,140.949,491.208z"/>
		<path fill-rule="evenodd" clip-rule="evenodd" fill="#BE0A26" d="M166.208,498.118c1.922,4.695,1.712,9.797,2.391,14.891
			C167.321,508.854,165.364,502.632,166.208,498.118z"/>
		<path fill-rule="evenodd" clip-rule="evenodd" fill="#BE0A26" d="M178.703,500.246c0.671,2.316,1.261,5.925,0.798,8.509
			C178.657,506.613,178.151,502.923,178.703,500.246z"/>
		<path fill-rule="evenodd" clip-rule="evenodd" fill="#BE0A26" d="M155.838,501.044c0.779,2.343,1.173,6.422,1.33,8.507
			C155.52,508.075,155.287,503.839,155.838,501.044z"/>
		<path fill-rule="evenodd" clip-rule="evenodd" fill="#BE0A26" d="M190.402,503.702c0.43-0.074,0.457,0.251,0.797,0.268
			c-0.385,6.661,0.965,10.517,1.595,16.481c-0.19,0.723,1.253-0.189,1.064,0.534c0.084,1.059,0.014,1.964-0.532,2.391
			c-1.603-1.126-1.043-3.194-1.331-5.052C191.265,513.585,189.639,508.075,190.402,503.702z"/>
		<path fill-rule="evenodd" clip-rule="evenodd" fill="#BE0A26" d="M269.899,505.831c0.481,1.024,0.829,2.182,0.797,3.72
			C269.795,509.04,269.753,506.529,269.899,505.831z"/>
		<path fill-rule="evenodd" clip-rule="evenodd" fill="#BE0A26" d="M179.501,509.02c1.126,2.067,1.333,4.989,1.33,7.444
			C179.522,514.46,179.744,511.526,179.501,509.02z"/>
		<path fill-rule="evenodd" clip-rule="evenodd" fill="#BE0A26" d="M229.485,510.882c1.164,3.211,1.726,8.335,2.127,11.431
			c0.714,1.085,2.104,3.944,1.064,5.053C230.212,523.159,229.873,516.404,229.485,510.882z"/>
		<path fill-rule="evenodd" clip-rule="evenodd" fill="#BE0A26" d="M137.227,261.225c-1.49-6.199-5.1-10.677-5.317-17.549
			c-0.236-7.414,3.54-11.169,7.975-15.155c4.024-3.614,9.833-6.729,17.548-5.849c5.378,0.614,8.491,4.053,11.964,7.978
			c2.795-3.528,4.892-7.589,7.179-11.433c2.321-3.903,4.709-7.787,6.913-11.7c6.66-11.825,14.681-22.164,21.802-33.765
			c4.717-7.687,9.942-14.494,15.42-21.537c8.266-10.626,18.182-20.017,28.184-29.247c6.792-6.268,13.514-12.524,20.207-18.878
			c6.649-6.31,13.438-12.923,21.27-17.812c7.92-4.947,15.489-10.633,23.928-15.156c7.522-4.805,9.481-6.701,15.084-9.642
			c2.231-1.171,5.673-2.944,7.426-3.542c2.304-0.786,3.802-1.475,6.206-2.238c2.569-0.815,4.793-2.206,7.443-2.923
			c7.266-1.971,16.137-3.725,23.929-6.117c8.688-0.934,18.423-1.419,27.652,0c2.131,0.329,4.117,1.48,6.114,1.862
			c3.411,0.654,6.373,0.92,9.308,1.862c7.906,2.538,14.879,7.929,22.066,11.433c4.234,2.953,8.17,6.72,12.495,9.838
			c3.761,2.708,8.706,6.949,11.699,10.634c1.321,1.628,2.324,3.627,3.723,5.317c4.396,5.312,7.687,11.446,10.637,18.876
			c4.332,10.921,6.566,26.543,5.582,41.477c-0.288,4.377-1.206,9.104-1.594,13.825c-0.844,10.199-1.884,19.479-4.521,28.45
			c-1.324,4.5-1.9,9.006-2.926,13.294c-1.708,7.136-4.156,13.941-5.582,21.003c-0.716,3.541-2.046,6.898-2.926,10.369
			c-0.923,3.651-1.203,7.409-2.126,10.902c-2.671,10.1-5.521,20.177-10.104,28.98c-0.812,1.562-1.528,3.025-2.128,4.52
			c-0.631,1.578-0.528,3.089-1.062,4.787c-0.313,1.002-1.365,1.836-1.86,2.926c-0.521,1.142-0.58,2.559-1.065,3.721
			c-0.881,2.113-2.239,4.031-3.188,6.115c-2.002,4.388-3.457,9.425-5.585,13.293c-1.345,2.447-3.366,4.647-4.52,7.18
			c-1.311,2.868-2.176,5.979-3.455,8.773c-1.257,2.738-2.878,5.314-3.988,7.975c-0.93,2.225-1.014,4.717-1.863,6.914
			c-1.524,3.947-3.747,7.79-5.849,11.699c-2.672,4.973-4.924,9.731-7.709,14.622c-1.651,2.897-3.123,5.983-4.785,8.773
			c-3.347,5.606-6.919,11.129-10.105,16.751c-3.214,5.674-7.262,10.765-10.369,16.483c-1.555,2.865-3.293,5.773-5.052,8.511
			c-1.828,2.847-2.886,5.81-4.521,8.773c-0.741,1.345-2.318,2.478-3.188,3.988c-0.892,1.545-1.42,3.107-2.393,4.521
			c-1.827,2.645-4.191,5.358-5.852,8.24c-3.477,6.035-6.258,12.593-10.367,17.813c-4.095,5.2-8.209,10.632-11.966,16.22
			c-3.825,5.686-7.095,11.851-11.166,17.015c-1.128,1.428-2.734,2.683-3.989,4.255c-4.872,6.116-10.952,12.084-17.281,17.548
			c-0.956,0.826-2.193,1.338-3.19,2.125c-2.116,1.669-3.754,3.812-5.584,5.052c-5.146,3.496-11.173,5.94-18.08,7.18
			c-1.453,0.261-7.749,1.399-8.773,1.595c-7.764,1.5-15.494,0.068-23.131,0.268c-3.792,0.096-7.426,0.824-11.167,0.531
			c-3.612-0.284-7.236-1.155-10.899-1.064c-2.101,0.055-4.333,0.785-6.381,0.799c-4.95,0.028-10.596-1.244-15.954-2.128
			c-5.181-0.854-10.595-1.503-15.154-2.925c-6.68-2.081-12.813-5.022-19.94-7.18c-2.284-0.689-4.261-1.882-6.381-2.656
			c-4.633-1.697-8.675-2.942-12.497-5.584c-3.605-2.494-6.879-5.108-10.104-7.71c-7.015-3.702-13.339-9.554-18.611-15.423
			c-1.367-1.52-3.122-2.86-3.988-4.782c-0.801-0.595-9.208-9.164-12.23-14.625c-2.5-4.518-3.848-8.813-6.913-13.295
			c-1.04-4.278-1.886-8.748-3.989-11.963c0.956-6.394-1.478-11.625-3.19-17.018c-1.007-3.17-0.899-6.415-1.595-9.569
			c-0.769-3.487-2.025-6.571-2.659-10.104c-0.834-4.65-1.684-9.062-2.393-13.828c-1.256-8.447-1.342-20.071-0.797-28.712
			c0.825-13.095,2.252-25.433,5.051-37.223c1.808-7.609,5.057-15.694,8.508-22.864c2.935-6.099,5.338-11.31,9.305-16.486
			c1.935-2.521,4.329-4.92,6.382-7.444C122.159,273.867,129.018,266.121,137.227,261.225z M464.254,227.99
			c2.026-7.398-3.597-12.949-5.052-19.41c2.543,3.75,4.674,7.912,5.85,13.028c2.132-2.321,0.27-5.516-0.531-9.039
			c-0.942-4.134-1.846-7.236-3.191-9.838c3.207,3.087,3.322,9.263,5.585,13.293c2.828-5.047-1.174-10.736-1.862-15.154
			c2.479,1.862,1.889,6.798,4.253,8.774c0.384-7.146-2.491-13.261-4.52-18.877c3.014,3.279,3.561,9.023,5.584,13.293
			c2.899-6.381-1.903-13.71-1.86-19.674c1.458,3.681,2.194,8.086,3.72,11.698c2.464-8.245-3.691-17.005-5.052-23.929
			c3.357,4.977,4.55,12.116,6.913,18.08c0.193-3,0.721-5.662,1.331-8.243c-1.369-4.301-2.93-9.832-4.254-13.293
			c2.869,2.713,2.869,8.297,5.05,11.7c0.119-8.117-4.332-16.441-6.382-23.133c3.117,4.773,4.862,10.914,6.914,16.75
			c-0.046-4.761-3.039-9.755-3.189-14.356c1.678,3.285,2.262,7.665,3.988,10.9c0.399-2.581,0.035-4.88-0.533-6.912
			c-1.255-4.492-4.452-8.534-3.987-12.497c1.658,4.458,3.504,8.728,5.317,13.028c2.611-6.883-1.819-13.971-3.189-19.142
			c2.644,2.141,2.947,6.624,4.52,9.837c1.621-7.488-3.178-12.722-2.66-17.548c1.007,2.007,1.362,4.666,2.66,6.382
			c0.577-8.379-1.852-15.165-3.458-20.473c1.624,1.392,1.29,4.737,3.19,5.85c-0.135-2.739-0.392-5.004-0.53-8.243
			c-1.781-2.484-0.972-5.188-1.595-7.975c-0.724-3.227-3.099-5.774-4.521-8.776c-1.526-3.217-2.043-6.65-3.988-9.304
			c-4.225-3.841-11.476-13.783-11.699-14.091c-3.034-2.016-17.345-14.826-18.875-15.953c-6.752-4.973-17.491-8.286-27.12-11.433
			c-3.898-1.274-8.546-2.343-13.965-2.761c-5.41-0.97-10.583-0.943-14.483-0.96c-3.932-0.018-7.42,1.919-11.432,2.658
			c-12.079,2.224-35.367,10.306-43.657,14.346c46.259-11.991,58.119-7.212,73.699,0.81c1.151,0.656,1.151,0.656,1.997,1.064
			c3.818,2.918,8.218,4.11,12.014,7.434c0.854,0.75,2.016,2.042,3.006,2.934c3.389,3.052,7.366,6.772,10.104,10.37
			c1.348,1.772,2.351,4.12,3.721,6.114c2.275,3.312,4.577,5.471,4.786,9.839c3.062,6.598,4.375,14.594,5.054,22.598
			c0.451,5.353,0.97,10.995,0.795,16.485c-0.204,6.504-2.848,13.698-2.924,19.674c-0.058,4.452-1.25,9.831-2.394,14.624
			c-1.102,4.627-2.462,9.41-4.253,12.23c-1.178,5.205-2.732,10.029-4.521,14.623c-0.029,1.476-0.171,2.842-1.594,2.924
			c2.144-13.469,9.614-28.538,11.431-44.667c0.729-6.451,1.99-13.184,2.393-19.675c0.428-6.854-1.37-10.635-2.126-15.952
			c-0.617-4.348-1.627-11.522-1.861-12.763c-1.064-4.961-2.475-9.577-4.786-13.293c-0.107-0.64-7.449-12.203-7.965-12.746
			c0.154-0.021-0.993-0.762-1.074-1.079c-0.243-0.942-3.081-3.429-4.255-4.52c-1.83-1.704-3.825-2.627-5.316-3.723
			c-1.048-0.768-1.678-2.158-2.658-2.923c-3.574-2.792-12.205-6.796-12.763-7.445c-9.332-3.987-19.449-8.221-32.969-7.178
			c-1.583-0.101-2.892,0.333-4.784,0.265c-10.344,2.391-31.089,6.98-31.906,7.178c-3.806,1.319-6.934,2.504-10.175,3.742
			c-1.901,0.727-2.562,0.9-4.447,1.31c-5.368,2.342-9.538,5.232-15.156,7.977c-7.642,5.53-14.653,10.334-21.27,17.281
			c-1.604,1.197-7.168,5.948-7.444,6.914c-14.905,12.923-29.299,26.357-42.806,40.678c-0.687,0.756-1.824,2.342-2.393,2.659
			c-13.906,20.924-29.434,40.227-40.68,63.809c-0.453,0.46-1.453,1.047-2.658,2.128c-2.803,5.261-6.88,9.249-8.774,15.42
			c-0.1,0.875-1.414,0.537-1.329,1.596c1.763,2.845,2.779,6.438,4.786,9.041c13.457-5.932,29.721-3.341,45.464-1.064
			c4.602,0.665,8.817,2.579,13.293,3.721c5.348,1.368,10.72,2.006,15.421,3.192c3.166,0.798,7.061,0.637,8.507,2.392
			c-3.061,1.255-7.503-0.492-9.306-1.063c-2.606-0.823-5.75-0.709-8.774-1.329c-7.711-1.582-14.028-4.245-22.864-5.318
			c-5.509-0.668-10.848-2.16-15.953-2.393c-10.246-0.464-18.097-0.085-24.725,3.989c1.673,3.111,2.816,6.755,5.051,9.304
			c3.662-1.937,8.772-2.125,13.028-2.126c12.328-0.004,25.327,4.854,29.779,13.561c2.921,2.396,4.529,6.105,6.115,9.836
			c10.817,2.566,12.905,13.861,14.624,25.525c0.909,0.2,1.583,4.234,1.329,6.912c1.035-0.062,1.379,0.57,2.127,0.798
			c2.262,2.701,3.965,5.964,5.849,9.04c2.649,9.772,0.436,21.327-3.456,29.514c-3.33,3.937-6.955,7.578-9.838,11.963
			c-10.697,9.988-28.059,16.019-45.996,18.611c-6.305,0.911-12.633,2.619-19.675,1.33c-0.762,0.122-0.714,1.058-1.329,1.328
			c-0.869-1.035-3.501-0.613-5.85-0.797c-0.761-0.482-0.792-1.689-1.595-2.128c-4.58-1.712-9.202-3.382-13.559-5.318
			c-0.652-0.624,0.396-0.494,0.266-1.327c-5.056-2.576-7.123-11.945-4.521-18.878c-3.828-2.73-8.713-4.405-9.306-10.37
			c-2.112-2.665-2.842-7.855-2.66-11.962c-4.621-4.333-8.015-9.889-9.571-17.284c-3.942,7.831-7.085,18.073-8.508,29.246
			c-0.875,6.875-2.313,14.771-1.595,21.536c0.847,7.979,3.297,14.736,6.912,20.738c0.109,0.642-0.486,0.578-0.266,1.33
			c4.996,8.299,10.817,15.771,18.611,21.271c-0.011,0.808,0.561,1.033,0.798,1.595c2.218,1.471,4.85,0.981,6.912-0.268
			c-0.412,1.096-1.762,1.251-2.392,2.129c1.745,0.382,2.575,1.678,4.52,1.862c1.678-0.895,3.344-3.214,4.519-3.724
			c-1.082,1.578-2.083,3.235-3.19,4.786c2.431,2.299,5.718,0.943,8.243-0.533c-0.718,1.232-1.998,1.903-2.659,3.191
			c10.242,4.36,26.274,0.865,35.894-0.532c-5.613,3.918-15.767,4.25-24.461,4.255c-0.549,0.073-0.064,1.178-0.798,1.064
			c-4.433-1.596-10.851-1.204-14.623-3.459c-0.909-0.198-0.338,1.083-1.329,0.801c-1.669-1.264-3.435-2.672-5.318-3.46
			c-3.746-1.563-6.755-2.705-9.838-5.314c-10.129-8.58-18.104-20.731-21.802-35.628c-3.266-13.161-3.508-29.024-0.798-41.743
			c0.396-0.313,1.188-0.232,1.064-1.063c0.657-3.425,2.517-6.333,3.456-9.039c0.17-0.49-0.118-0.783,0-1.33
			c1.052-4.906,5.463-9.542,6.116-12.762c0.716-3.541-0.497-7.475,0-10.636c1.725-10.952,7.03-18.207,14.091-24.194
			c-0.775-3.124-1.937-5.864-3.19-8.508c-1.114-0.155-2.203,1.824-3.989,1.861c-16.073,14.679-30.866,30.638-36.69,55.569
			c-0.357,0.618-0.95,0.998-1.595,1.328c-0.68,4.28-3.02,8.901-3.988,14.357c-0.949,5.349,0.205,11.895-1.33,17.281
			c-0.211,0.742-1.031,9.628-0.798,10.369c-2.4,16.646,4.356,53.704,5.052,54.506c0.147-0.476,0.137-1.104,0.531-1.329
			c2.114,5.861,3.239,12.714,5.319,18.61c-0.465-5.03-1.925-10.481-1.861-15.155c1.522,1.869,0.063,4.923,1.861,6.914
			c1.02-1.492-0.906-3.297,0.265-3.988c1.518,7.336,2.741,17.273,6.914,24.461c-1.334-7.354-4.45-14.341-3.989-22.601
			c2.329,9.951,3.724,20.898,8.509,28.981c-1.592-6.927-4.637-15.203-3.988-22.6c2.083,9.967,3.316,20.79,8.241,27.917
			c-2.105-6.96-5.123-15.758-4.52-23.664c1.754,7.719,2.783,17.775,6.646,24.194c-1.93-8.555-4.583-18.718-3.456-27.384
			c0.492,8.949,2.477,16.488,3.988,25.523c1.869,3.182,3.318,8.202,6.381,9.306c-4.388-8.289-7.208-22.09-6.381-32.967
			c0.598,6.594,0.823,13.957,3.19,19.408c0,0.619,0,1.241,0,1.859c2.083,5.171,3.356,11.709,6.647,14.89
			c-3.047-7.407-5.921-16.693-5.052-25.259c1.797,11.145,3.083,22.796,10.103,28.715c-1.889-6.263-4.636-13.088-4.52-20.473
			c1.661,6.617,3.469,13.883,5.85,19.145c0.802,1.773,1.292,4.054,3.19,4.784c-1.733-4.734-4.435-11.044-3.988-16.217
			c1.61,0.693,0.8,2.716,1.063,3.987c0.778,3.758,1.892,6.654,3.456,9.837c1.418,2.883,2.042,5.107,4.786,5.317
			c-2.076-5.038-5.299-11.684-3.722-18.611c1.051,8.234,3.029,19.628,8.774,20.738c-2.362-4.612-4.709-11.711-3.987-17.015
			c0.787,7.396,4.08,13.602,5.848,19.143c0.991,0.606,2.196,0.994,3.722,1.063c-0.105-1.252-1.405-1.205-2.127-2.125
			c-2.204-2.821-3.31-8.172-3.456-12.233c1.54,3.689,2.168,8.29,4.786,10.902c-0.583-3.301-1.265-6.349-1.33-9.042
			c1.79,3.886,2.371,8.977,3.722,13.294c1.326,0.714,2.453,1.625,4.52,1.598c-3.182-7.246-6.233-17.646-6.115-27.652
			c1.382,10.937,4.033,20.604,8.243,28.714c1.042-0.15,1.658,0.924,2.392,0.268c-1.992-6.613-5.551-14.466-5.05-21.801
			c1.268,8.345,3.629,15.676,7.178,22.333c0.998,0.242,1.881,0.602,2.925,0.795c-1.458-5.471-4.272-11.921-3.19-17.548
			c0.973,6.331,2.517,12.192,4.785,17.814c0.635,0.431,1.704,0.425,2.394,0.797c-0.887-3.751-2.403-7.347-1.861-11.164
			c0.901,4.24,2.081,8.198,3.722,11.698c2.151,0.153,3.664,0.945,6.116,0.796c-0.836-5.002-2.518-10.228-1.595-15.154
			c1.583,4.364,1.213,9.425,2.659,13.294c0.335,1.162,0.078,1.183-0.267,2.127c1.693,0.346,3.391,0.688,5.584,0.532
			c0.464-2.21-1.53-5.149,0-7.446c0.362,2.918,0.966,5.594,2.127,7.712c2.39-0.961,3.791,0.621,6.116,0.532
			c-0.15-3.533-1.198-7.204-0.532-10.37c1.02,2.844,1.015,7.248,2.126,10.635c1.297-0.273,2.192,0.634,2.66-0.265
			c-0.992-3.821-1.66-9.477-1.596-12.764c2.057,3.438,1.815,9.176,3.19,13.295c0.621,0,1.241,0,1.863,0
			c-0.053-3.303-0.62-7.928-1.064-11.964c-0.225-2.05-1.508-4.739,0-6.113c0.587,6.322,2.273,11.551,2.659,18.077
			c0.709,0,1.418,0,2.127,0c3.253-4.093-0.037-12.553,1.063-17.282c0.942,5.845,2.907,12.082,0.799,17.548
			c1.131-0.156,1.758,0.192,2.658,0.266c1.091-5.154-1.242-10.708,0-15.952c0.549,3.981,1.716,10.847,1.596,15.952
			c1.504,0.449,1.637-0.796,1.861-1.595c1.438-5.117-2.027-13.649-0.797-18.08c1.666,5.987,2.427,13.011,2.127,19.675
			c1.298-0.03,2.802,0.143,3.722-0.266c1.261-5.177-0.4-12.808,1.064-18.61c0.584,7.009,0.403,12.128,0.797,18.345
			c0.654,0.252,2.643-0.095,3.722-0.267c0.446-4.878-1.17-9.11-0.532-13.293c0.92,3.389,2.013,8.517,2.393,13.293
			c1.303,0.062,2.013-0.467,3.456-0.265c0.239-7.887-1.731-16.68-1.329-25.259c0.815,7.648,2.54,17.125,3.19,24.994
			c1.314-0.424,1.804,0.776,2.394,0.265c1.904-7.415-0.394-19.109,0.267-26.853c1.414,8.614,2.232,17.591,1.859,26.853
			c1.317-0.013,2.346-0.313,3.457-0.532c0.188-7.783-3.028-16.169-2.658-23.131c0.638,3.84,1.341,8.672,2.392,13.293
			c0.775,3.414,1.381,6.809,2.394,9.572c0.354-0.444,1.183-0.413,1.596-0.799c0.232-4.487-1.631-9.172-1.063-13.824
			c1.426,3.778,1.793,8.396,2.657,13.559c1.064-0.176,1.823-0.657,2.66-1.064c1.47-7.145-1.136-16.777-0.798-22.863
			c1.788,7.185,2.404,12.984,2.925,21.271c1.681,0.47,2.734-1.833,3.723-2.926c-0.125-5.297-2.259-11.468-1.861-17.28
			c1.071,5.878,2.166,12.104,2.924,17.547c2.342-0.778,2.279-4.087,2.128-6.38c-0.283-4.321-2.047-10.078-1.595-13.827
			c1.055,5.655,2.505,12.116,2.658,17.813c1.126-0.203,1.55-1.109,2.392-1.593c0.583-5.591-1.582-11.77-0.531-17.019
			c0.645,4.471,1.605,9.962,1.595,15.155c1.473,0.302,2.047-1.8,3.989-1.33c2.633-5.048-1.838-12.364-1.331-17.814
			c1.494,5.262,2.873,10.101,3.458,15.689c4.966-1.443,1.038-10.686,2.126-14.094c0.981,3.185,1.315,7.016,1.331,11.168
			c4.307-0.566,2.739-5.761,3.19-8.774c0.736,1.301,0.533,2.451,1.063,4.521c5.985-3.629-0.402-12.492,0.797-18.611
			c1.039,4.455,1.79,9.2,2.927,13.561c4.896-3.628-0.87-13.902,0.797-18.346c0.553,4.988,2.096,9.367,1.859,15.154
			c1.196-0.575,1.993-1.552,2.66-2.659c0.21-9.958-3.192-17.724-2.926-26.854c1.686,7.299,3.043,16.66,4.254,25.257
			c1.878-0.779,2.616-2.7,3.99-3.987c-1.141-1.584-0.423-3.3-0.532-5.317c-0.257-4.591-2.255-9.673-1.331-13.294
			c1.011,5.55,2.181,10.938,2.394,17.281c6.553-6.619,12.253-15.774,17.548-23.661c1.049-1.562,2.539-3.488,2.658-4.786
			c0.3-3.248-2.19-8.588-2.925-13.294c-0.59-3.794-1.412-6.612-1.063-9.572c1.761,7.476,2.914,14.225,4.787,21.802
			c2.634-1.976,2.466-2.699,1.594-5.849c-0.894-3.23-2.614-8.012-2.393-11.433c-0.762-2.075-2.167-4.92-1.596-7.443
			c2.028,5.847,2.948,14.207,5.583,20.736c2.227-3.267,4.309-6.682,6.381-10.103c-2.373-5.513-3.44-13.751-4.253-19.94
			c2.504,5.03,2.639,12.428,4.52,18.081c6.104-5.021,0.072-16.705,0.8-23.398c1.725,4.976,1.812,10.053,3.188,15.157
			c2.716-1.07,0.989-4.552,0.532-6.648c-0.546-2.492-1.31-5.356-1.861-7.712c-1.24-5.304-2.948-10.69-3.456-15.154
			c3.043,8.444,5.589,16.705,6.914,26.321c4.562-3.541,2.014-8.554,0.796-14.092c-0.991-4.52-1.727-9.154-1.33-12.762
			c1.53,6.89,2.631,14.212,4.787,20.474c2.393-3.635,4.699-7.357,6.381-11.7c-0.107-0.511-1.032-0.209-0.799-1.062
			c-0.66-4.853-3.916-9.884-2.658-14.891c1.131,5.253,2.271,10.491,4.254,14.891c0.849-1.986,2.32-3.35,2.926-5.582
			c4.675-5.697,8.987-11.752,11.168-19.942c0.822-1.64,2.372-2.707,3.456-4.253c2.634-3.769,3.672-9.141,6.113-12.495
			c0.559-0.771,1.754-1.581,2.394-2.128c-4.176,13.282-10.659,24.196-16.75,35.362c-6.072,11.131-14.994,20.631-19.675,32.967
			c-4.818,8.118-9.7,16.181-14.623,24.195c-3.176,2.94-5.157,7.072-7.18,11.166c-6.976,8.27-12.52,17.965-20.206,25.523
			c-0.043,0.753-0.486,1.108-0.532,1.864c-4.075,3.189-5.991,8.54-10.634,11.164c-1.048,2.521-3.875,3.412-6.115,5.317
			c-1.95,1.662-3.353,3.634-5.052,4.786c-5.429,3.676-13.2,8.253-19.941,10.635c-1.285,0.454-3.004,0.922-4.254,1.065
			c-12.771,1.453-24.027,1.386-36.69,0.796c-2.627-0.122-18.128-1.043-23.131-1.861c-8.311-1.356-16.234-3.201-23.662-5.582
			c-0.901-0.104-2.155-0.596-2.66-1.065c-17.432-7.625-31.741-17.526-44.934-29.776c-0.293,4.419-0.194,7.823,2.659,10.103
			c0.062-1.356-0.212-3.047,1.33-2.925c0.563,2.627-0.161,6.543,1.86,7.712c0.12-1.121-0.406-2.89,0.798-2.927
			c0.606,2.016,0.208,3.394,0.798,5.319c0.767,0.79,0.461-0.667,1.331-0.533c0.908,2.559,0.637,4.667,3.19,5.584
			c0.41-0.444-1.53-4.181,1.063-3.723c-0.097,2.56-0.037,7.076,2.393,7.979c0.543-2.398-1.517-5.569,0.266-6.648
			c1.103,1.823,1.012,4.836,1.063,7.711c0.905,1.221,1.776,2.477,2.659,3.72c2.022,0.462,2.096,2.867,4.253,3.192
			c0.071-2.946-3.287-5.974-1.062-8.508c0.276,3.053,1.813,6.32,1.596,9.57c1.076,0.519,1.283,1.907,2.924,1.863
			c-0.747-2.541-2.8-7.9-0.533-10.105c0.232,4.292,1.02,8.022,1.862,11.7c1.416,0.505,2.546,3.322,4.254,1.86
			c0.227,1.192,0.935,1.901,2.127,2.126c0.657-1.664-1.583-5.185,0-6.912c0.862,3.222-0.08,9.391,3.988,9.039
			c-0.846-1.914-1.045-4.255-0.531-6.646c1.563,3.047-0.498,8.185,3.723,9.038c0.246-2.256-2.366-6.394,0.264-7.976
			c0.917,2.897-0.251,5.396,0.534,7.443c1.062,2.78,4.721,3.29,7.444,4.787c-0.374-3.283-2.745-8.447-1.064-11.167
			c2.498,4.844-0.838,11.793,4.787,13.028c-0.259-2.038-1.39-4.883-1.596-7.443c-0.087-1.089-0.565-3.368,0.797-3.991
			c1.553,3.755-1.052,12.75,5.053,13.03c-0.47,0.085-0.476-1.49,0.265-1.064c-0.357,2.839,2.393,2.571,3.988,3.458
			c-0.736-2.465-1.285-5.351-1.86-8.244c-0.589-2.951-2.393-6.437-0.533-9.04c0.429,5.746,1.564,12.686,3.457,17.813
			c1.386,0.388,2.451,1.096,3.988,1.331c-0.735-5.843-4.658-15.197-2.925-21.004c0.637,5.703,1.685,14.237,3.457,19.144
			c0.408,1.129,0.488,3.325,2.393,2.656c0.882-0.086-0.7-1.16,0.266-1.327c0.51,1.711,1.342,1.791,2.925,2.659
			c-0.731-1.94-0.419-4.139-0.798-6.382c-0.599-3.538-2.771-10.521-0.533-13.03c0.405,6.132,0.361,15.504,2.926,19.941
			c0.813,0,1.927,1.067,2.658,0.268c-1.891-4.858-3.947-12.342-2.924-18.346c0.431,6.453,2.367,12.004,2.924,17.549
			c0.387,0.145,1.374-0.312,1.33,0.265c0.079,0.7-1.031,0.21-0.797,1.062c2.267,0.48,3.968,1.527,6.646,1.595
			c-0.349-7.652-2.822-14.636-1.596-21.269c1.456,6.365,0.855,13.553,2.393,21.536c1.444,0.238,2.474,0.896,4.254,0.796
			c-0.701-1.586-0.958-3.737-1.329-5.846c-0.812-4.615-3.19-10.409-0.531-12.498c0.078,7.209,1.167,13.933,4.253,19.144
			c1.637-0.13,2.542,0.472,4.255,0.265c-0.554-4.676-2.247-9.63-1.861-14.357c1.058,4.826,2.015,11.055,3.722,14.357
			c0.134-3.466-2.669-9.764-0.797-13.294c0.545,5.312,1.246,9.762,3.457,13.826c0.902-0.073,2.157,0.205,2.659-0.267
			c-0.684-5.378-2.936-11.757-1.596-16.748c0.355,6.467,1.341,12.305,3.457,17.015c1.831-0.031,3.865,0.142,5.317-0.267
			c-0.8-4.536-2.616-10.827-1.86-15.154c0.895,5.311,1.903,10.505,3.457,15.154c1.425,0.403,2.208,0.403,3.722,0.267
			c-0.864-4.957-2.656-9.709-1.861-14.356c0.966,5.238,1.652,10.756,3.723,14.889c2.705-0.045,4.854,0.463,7.711,0.266
			c-1.127-5.255-2.777-11.405-2.66-17.014c0.452,2.562,1.195,5.434,1.861,8.239c0.801,3.361,0.692,7.877,3.458,8.774
			c-0.884-4.541-2.668-10.954-1.596-15.688c0.742,4.767,0.996,12.051,3.988,15.422c-0.051-5.692-2.592-12.429-1.594-18.079
			c0.397,2.116,1.203,5.136,0.797,7.178c1.515,2.959,0.651,9.018,3.457,10.901c-0.185-3.755-2.823-9.762-1.863-13.827
			c0.947,4.903,2.066,9.636,3.458,14.093c1.253-0.298,1.624,0.079,2.925-0.266c-1.092-5.95-3.303-13.631-2.393-17.814
			c0.762,5.886,1.578,11.719,3.722,16.22c-0.453-4.902-2.342-11.079-1.329-15.688c0.648,6.265,1.827,12.001,3.722,17.016
			c0.832-0.054,1.95,0.181,2.394-0.266c-0.417-5.258-2.249-10.515-1.861-15.688c0.868,5.514,2.495,10.269,3.455,15.688
			c0.921,0.409,2.425,0.236,3.723,0.266c-0.832-6.176-3.251-14.471-2.924-21.8c1.257,5.376,1.887,12.118,3.191,17.812
			c0.37,1.62,1.117,4.845,3.722,4.254c0.075-5.677-2.831-11.146-2.128-15.687c1.081,5.388,2.791,10.149,3.722,15.687
			c1.152,0,2.304,0,3.456,0c-0.637-4.601-3.085-11.087-2.923-16.485c1.335,5.577,2.69,11.135,4.52,16.219
			c0.825-0.028,0.759,0.837,1.861,0.532c-0.148-5.347-2.504-9.901-2.126-14.889c1.381,4.999,2.658,10.102,4.253,14.889
			c0.9-0.076,1.526-0.424,2.66-0.266c-0.29-8.688-4.751-16.854-4.52-26.055c1.372,9.812,4.596,17.265,6.113,25.788
			c1.068-0.353,2.47-0.366,3.458-0.798c0.529-8.702-3.479-16.536-3.723-24.462c2.057,7.693,3.912,15.587,5.85,23.397
			c0.945,0.477,1.606-0.368,2.923-0.264c-1.24-7.889-4.264-15.411-4.254-23.662c1.683,7.976,3.321,16,5.584,23.396
			c0.813-0.161,1.385-0.564,2.128-0.796c-0.602-9.239-3.573-17.521-3.988-26.058c2.31,7.782,2.856,17.773,6.115,25.259
			c1.404-2.127,0.354-5.12,0-7.712c-0.351-2.564-0.542-5.362-0.799-7.975c-0.698-7.1-2.295-14.763-2.127-20.206
			c2.039,11.255,2.873,23.713,5.052,34.829c1.883-1.9,5.006-0.981,6.38-3.456c0.433-12.021-3.268-23.639-3.987-35.629
			c3.647,10.149,4.558,21.473,5.584,34.035c4.198-2.338-0.019-9.986,1.064-14.094c1.174,3.078,1.658,6.849,2.394,10.369
			c2.222-1.841,0.51-6.22,0-9.836c-0.504-3.548-0.789-8.929-0.532-10.901c1.756,5.744,1.373,12.216,3.188,18.081
			c2.861-1.573,0.976-6.186,0.531-9.84c-0.853-7.03-1.916-13.854-1.861-20.474c2.141,8.8,1.914,18.31,4.255,27.121
			c3.94-1.127,1.541-6.333,1.862-9.572c-1.255-6.312-2.486-15.562-3.458-22.069c2.671,8.276,3.566,18.982,5.054,27.654
			c3.737-1.272,1.917-8.012,1.328-13.028c-0.772-6.591-1.26-13.481-1.595-18.081c1.215,8.597,3.311,17.34,3.456,27.121
			c2.732-0.832,3.791-3.572,3.457-7.18c-0.604-6.53-3.118-15.628-3.457-19.941c2.364,6.323,3.777,12.681,4.787,21.536
			c6.568-2.531-0.579-15.65,0.266-20.738c1.832,5.109,2.088,10.829,4.253,15.953c0.33-0.557,0.773-1,1.327-1.329
			c-0.37-4.946-2.237-9.814-2.125-14.359c1.22,3.406,1.607,8.949,3.724,12.232c2.467-1.696-1.024-5.578-0.268-7.978
			c-1.289-3.344-3.157-8.86-2.658-12.229c1.365,6.637,3.083,11.597,4.787,17.547c3.772-1.555,1.9-5.656,1.062-10.367
			c-0.889-4.991-1.554-10.022-1.861-13.028c1.865,6.123,3.038,12.011,3.988,19.408c2.754-0.643,2.223-4.549,1.597-7.978
			c-1.516-8.265-5.229-16.851-6.381-22.864c4.151,8.863,6.004,17.535,8.509,27.386c4.219-4.398-1.745-12.33-1.066-18.079
			c1.79,4.059,2.445,9.255,3.988,13.558c1.16-0.877,2.103-1.973,2.658-3.455c-1.818-4.576-3.931-11.647-3.455-16.749
			c1.603,5.134,1.907,11.563,4.521,15.685c0.557-1.391,1.599-2.297,2.394-3.455c-1.806-4.577-3.71-9.056-4.253-14.89
			c-0.257-0.669-1.33-2.311-0.268-2.659c1.764,5.592,2.865,11.848,5.582,16.484c3.239-7.188-3.585-15.739-2.925-22.067
			c2.248,5.641,3.378,12.397,6.117,17.549c2.641-2.789,2.479-4.833,1.33-9.04c-1.464-5.345-3.53-10.529-3.457-14.625
			c2.265,5.623,3.217,12.559,6.115,17.549c5.037-4.798-0.731-12.104-0.533-18.08c1.354,3.876,2.464,7.996,3.722,11.967
			c1.472-0.659,1.71-2.547,2.393-3.988c-1.262-5.564-3.208-11.856-3.188-17.814c1.633,5.275,2.496,11.326,3.987,16.748
			c4.152-5.958-2.045-14.955-2.127-21.535c2.399,4.426,3.258,10.391,4.786,15.688c5.066-4.985-1.565-12.629-1.063-18.613
			c1.839,3.924,2.766,8.758,4.519,12.765c3.039-3.304,0.082-7.826-1.062-12.498c-0.812-3.303-1.45-6.159-1.86-8.507
			c2.555,4.801,3.436,11.275,5.314,16.751c3.826-2.726,0.089-6.897-0.796-11.699c-0.628-3.409-2.56-7.377-2.925-10.104
			c2.904,4.895,4.423,11.175,6.382,17.018c1.428-0.699,2.027-2.228,2.657-3.726c-1.385-3.478-2.889-7.987-3.457-11.431
			c-0.621-0.79-1.438-2.364-0.529-3.191c1.983,4.346,3.009,9.38,4.784,13.296c3.185-1.748,0.116-5.997-0.798-9.84
			c-0.753-3.157-1.351-5.931-1.33-8.241c2.413,5.012,2.139,10.051,5.053,14.889c0.457-0.606,0.782-1.341,1.329-1.861
			c-1.758-6.307-3.582-13.964-4.254-20.472c2.153,5.733,2.693,13.082,5.317,18.346c3.791-5.961-2.217-14.14-2.659-19.941
			c2.635,4.013,3.38,9.916,5.318,14.624c2.106-3.641-0.313-7.654-1.064-11.965c-0.753-4.32-1.536-8.241-1.861-11.697
			c2.339,5.723,2.577,13.552,5.053,19.143c4.252-3.91-1.371-10.231-1.064-14.891c1.966,2.558,1.871,7.173,3.99,9.572
			c0.283-0.601,0.602-1.169,1.062-1.594c-1.298-5.879-3.174-12.601-3.721-18.348c2.059,5.12,2.594,11.766,4.786,16.751
			c0.451-1.673,1.698-2.555,2.656-3.722c-0.834-4.217-2.608-7.494-3.188-11.964c2.544,2.418,1.889,8.033,4.521,10.37
			c1.054-6.251-3.062-13.206-2.926-19.41c2.21,5.189,2.845,12.303,4.786,17.017c3.508-2.528,1.994-5.665,1.062-10.104
			c-0.462-2.216-0.594-4.755-1.062-6.646c-0.858-3.491-2.76-6.755-2.127-9.308c2.062,6.534,4.144,13.05,5.052,20.738
			c3.74-3.267,1.53-7.753,0.264-12.496c-1.289-4.842-2.426-9.985-3.456-13.293c3.174,5.424,4.484,12.709,6.116,19.674
			c3.81-3.12,2.152-6.497,0.798-11.698c-1.188-4.559-2.287-8.014-2.393-11.431c2.207,5.5,3.003,12.416,5.318,17.813
			c3.726-5.151-2.874-12.787-2.393-17.813c1.616,4.229,3.112,8.585,4.785,12.762c1.461-2.453,1.133-4.631,0.53-7.18
			c-1.458-6.186-2.47-14.368-4.786-18.613c3.724,5.318,4.69,13.392,6.383,20.74c3.987-3.477-1.597-10.223-0.267-14.622
			c1.02,3.145,1.298,7.031,2.923,9.569c2.631-2.79,0.28-6.311-0.795-10.635c-0.32-1.27-0.207-2.517-0.531-3.454
			c-0.924-2.654-3.074-4.876-2.927-6.915c3.512,4.288,4.169,11.43,6.646,16.751c0.37-6.225-2.315-13.1-3.188-18.08
			c2.576,3.983,2.462,10.654,4.787,14.89c1.163-6.903-3.542-13.782-4.521-19.41c2.923,4.167,3.82,10.356,6.114,15.157
			c0.414-0.915,1.527-1.132,1.862-2.128c-1.066-8.683-3.508-15.992-6.381-22.865c3.844,5.06,5.328,12.512,7.178,18.877
			c3.449-3.508-2.668-10.185-1.331-14.092c1.56,2.962,1.819,7.223,3.725,9.837c1.764-6.217-3.28-15.869-3.989-22.862
			c2.418,5.201,3.408,11.834,5.85,17.013c2.141-1.936,0.611-4.052,0-6.646c-0.932-3.958-1.421-8.758-2.127-11.433
			c2.391,3.636,1.767,10.287,4.785,13.293c1.7-3.377-0.662-7.584-1.861-11.698c-1.021-3.502-1.894-6.821-2.394-9.57
			c2.549,4.986,3.287,11.782,6.384,16.218c2.861-3.284,0.343-7.09-0.533-12.495c-0.865-5.322-1.939-9.7-2.126-13.295
			c2.509,6.589,2.183,13.131,4.785,19.409c3.455-2.956,0.944-6.931,0-10.9c-1.112-4.672-2.376-9.674-2.659-13.56
			c1.241,2.216,1.168,5.744,2.659,7.711c0.88,3.729,0.95,8.267,3.455,10.369c0.603-5.905-3.001-13.429-2.924-19.676
			c2.117,4.708,1.588,12.061,4.785,15.688c0.569-1.293,1.314-2.409,1.861-3.723c-1.147-6.032-3.282-12.493-3.456-18.612
			c1.559,5.798,3.225,11.49,3.988,18.08c2.799-2.877,2.041-5.184,1.064-9.305c-0.431-1.807-0.789-3.626-1.064-5.317
			c-0.626-3.815-2.092-7.297-1.594-10.104c1.975,5.477,2.415,12.658,4.784,18.346c1.377-2.534,1.199-6.511,0.529-9.573
			c-1.656-7.604-5.109-15.625-6.646-21.8c3.843,7.131,6.614,16.203,8.244,24.727c1.213-0.56,1.128-2.42,1.86-3.457
			c-0.005-0.794-0.693-0.905-0.799-1.596c1.559-8.575-3.313-16.842-4.785-23.928c3.444,6.126,5.435,13.709,6.912,21.802
			c2.552-8.496-1.771-18.573-3.456-25.257c3.166,4.632,3.912,11.685,5.583,17.812c2.154-5.517-1.663-12.678-1.859-17.547
			c2.446,3.048,2.004,8.985,3.72,12.761c2.103-3.941,0.789-9.084-0.53-13.823c-1.375-4.947-4.553-9.413-5.318-13.295
			c3.343,5.785,6.271,11.985,7.447,19.94c1.305-1.544,2.425-5.163,1.859-6.912c-1.688-5.233-3.739-12.357-5.584-17.016
			c3.592,4.621,4.085,10.764,6.383,16.483c3.287-7.802-2.393-15.307-3.989-22.333c2.957,3.957,3.94,9.884,6.117,14.624
			c3.199-9.992-4.646-16.794-6.648-23.929C459.147,216.966,461.346,222.832,464.254,227.99z M167.271,233.84
			c-1.946-11.844-17.85-11.459-26.586-3.988c-4.094,3.498-6.918,7.431-6.648,13.558c0.365,0.432,1.095-0.684,1.596,0.266
			c0.489,5.894,6.402,6.36,11.964,7.18c-3.076,1.355-7.536,0.688-10.104-1.064c-1.413-0.965-1.467-2.995-2.924-2.924
			c0.596,1.743,0.465,3.118,1.064,4.785c2.404,6.687,4.361,9.109,11.699,8.509c-1.913,1.278-5.509,1.372-7.711,0.265
			c-0.134,4.039,4.25,4.852,6.912,4.52c-0.397,1.641-3.602,1.113-4.785,0.532c-0.426,3.173,3.132,2.362,4.785,3.457
			c-1.238,0.942-2.245,0.197-3.722,0.266c0.069,0.817,0.577,1.197,0.797,1.861c1.5,0.438,3.887-0.777,4.254,0.267
			c-1.31,0.501-2.248,1.095-3.457,1.064c-0.481,2.43,3.599,0.299,3.722,2.126c-0.369,0.606-1.851,0.099-2.659,0.265
			c0.429,2.46,2.061,3.386,4.52,3.192c0.194,0.724-0.527,0.533-0.531,1.063c0.771,0.574,1.529-0.485,1.861,0.531
			c-0.274,1.498-2.174,0.179-2.924,0.799c0.128,3.648,6.366,1.591,7.71,1.329c-0.542,2.118-3.201,2.116-5.85,2.125
			c0.143,1.63,0.887,2.661,1.329,3.987c2.284,0.932,5.175-0.941,7.445,0c-1.49,0.995-4.146,0.82-5.851,1.599
			c0.401,1.282,0.867,2.501,1.596,3.455c2.627,0.499,4.774-0.894,6.381-0.532c-1.178,1.75-4.712,1.135-7.178,1.597
			c-0.253-1.078-0.891-1.769-2.127-1.862c-3.265-5.775-6.374-11.706-9.04-18.079c-2.313,0.612-3.373,2.476-5.319,3.455
			c-4.347,6.964-9.145,16.489-8.241,27.653c0.513,6.333,2.09,12.26,4.52,17.28c2.902,2.648,5.145,6.106,8.774,8.242
			c6.919,4.071,18.576,5.849,29.512,5.054c7.48-0.546,11.153-3.935,16.219-6.381c6.03-2.915,12.257-5.363,16.485-9.84
			c0.836,0.3,0.601,0.025,1.594,0c9-7.835,18.875-17.953,21.27-31.905c3.744-21.813-12.62-34.602-33.501-33.767
			c-4.285,0.173-7.815,0.078-11.167,1.331c2.868,8.001,8.226,15.799,10.104,24.992c-0.974-0.175-1.02,0.576-1.861,0.533
			c-1.5-1.671-1.605-4.022-2.394-6.116c-2.638-7.013-6.1-14.828-9.305-20.74c-3.33-6.14-5.815-12.175-9.306-17.812
			c-0.967-0.259-0.124,1.295-1.329,0.798C168.715,235.409,168.025,234.59,167.271,233.84z M155.306,348.166
			c0.793-1.98,2.336-4.541,3.99-4.787c-0.513,2.324-2.616,3.059-3.191,5.318c1.243,0.086,1.821,0.837,3.191,0.798
			c0.403-1.763,1.578-4.039,3.19-3.724c-0.562,1.566-1.875,2.381-2.394,3.988c0.698,0.72,2.274,0.562,3.457,0.799
			c1.887-2.281,3.505-6.243,6.115-6.913c-1.554,2.434-3.647,4.329-4.519,7.444c3.305,0.595,6.282,1.519,10.103,1.596
			c0.935-0.749,0.319-3.05,1.595-3.457c0.469,1.722-1.136,2.45-0.532,3.457c4.924,0.176,7.49-0.527,11.699-0.797
			c0.396-0.713-0.046-2.115,1.063-2.66c0.606,0.369,0.1,1.851,0.267,2.66c3.335-1.007,7.62-1.063,10.634-2.394
			c-0.186-1.613-2.157-3.89-0.797-5.317c0.518,1.963,1.21,3.752,2.393,5.051c3.598-0.825,6.087-1.808,9.571-3.722
			c2.401-1.319,5.293-2.45,7.178-3.723c4.635-3.124,9.671-9.608,14.358-14.357c5.025-5.095,9.24-11.612,10.368-18.345
			c2.218-13.213-0.629-27.048-10.9-31.905c0.33,5.292,0.654,12.527,0,17.547c-2.334,6.174-5.779,11.234-8.508,17.017
			c-7.499,8.208-16.259,17.933-27.386,22.599c-3.881,1.626-9.026,2.417-13.294,3.724c-3.306,1.011-6.353,2.604-9.305,2.923
			c-5.34,0.577-11.518-0.848-17.016-1.861c-1.899,2.269-3.845,5.902-6.115,6.913c0.646-3.606,4.317-4.189,5.317-7.445
			c-5.781-2.016-11.136-4.461-16.218-7.178c0.023,4.263,1.214,9.575,5.051,10.901c1.145-0.334,2.37-2.916,3.457-1.596
			c-0.645,1.219-2.347,1.375-2.659,2.925C148.176,345.724,151.46,347.226,155.306,348.166z M214.597,314.398
			c-1.672,2.05-3.643,4.582-5.317,5.584c-1.278,0.762-2.82,0.845-3.988,1.596c-1.18,0.756-1.935,2.077-3.191,2.925
			c-1.149,0.774-2.888,1.386-4.253,2.127c-8.167,4.437-16.224,10.03-27.121,10.901c-4.185,0.332-8.58-0.19-13.558-0.266
			c5.272,1.505,11.927,2.802,18.079,1.859c2.161-0.33,4.79-1.634,7.444-2.393c5.069-1.45,10.465-3.089,14.889-5.317
			c3.328-1.676,6.625-3.611,9.306-5.585c3.97-2.918,7.187-6.352,10.635-9.835c2.466-2.492,5.593-6.582,7.445-10.37
			c3.573-7.313,7.499-13.588,5.05-22.865C229.564,297.533,221.503,305.941,214.597,314.398z M223.637,361.727
			c0.637-0.107-0.148,1.211,0.797,0.798c0.946-0.74,2.691-0.679,3.457-1.598c-0.908-0.509-2.528-0.306-2.659-1.595
			c1.386-0.261,3.587,0.799,5.317,1.063c12.219-7.254,26.971-19.525,23.396-39.349c-0.874-4.854-3.596-9.438-7.443-11.965
			c-1.553,10.502-6.857,17.249-11.964,24.195c-1.432,3.988-5.073,6.252-8.243,9.039c-6.153,5.412-12.467,11.57-21.535,13.825
			c-4.618,1.147-9.93,1.669-15.157,2.393c-2.458,0.342-4.954,0.342-6.912,0.267c-10.943-0.428-23.631-3.065-32.17-6.115
			c-0.636,5.846,1.536,10.517,5.05,13.027c1.07-1.529,1.127-5.392,2.926-5.317c-0.226,2.397-3.568,6.634-0.267,7.711
			c0.621-1.062,0.537-2.831,1.861-3.189c0.501,1.375-0.888,2.955-1.063,4.517c0.8,0.265,1.187,0.942,2.393,0.799
			c0.332-1.176,0.197-2.816,1.861-2.658c-0.26,1.246-0.982,2.031-1.064,3.457c0.833,0.321,1.319,0.983,2.66,0.796
			c0.428-1.962,0.705-4.078,2.126-5.05c0.424,1.717-0.97,3.776-1.329,5.584c2.209,0.431,1.192,2.493,4.254,2.126
			c0.663-1.803-0.068-4.593,0.796-5.582c1.358,1.338-0.294,4.465,0.533,5.582c1.111-0.061,1.256,0.433,2.126,0
			c0.121-1.829,0.277-3.622,1.331-4.521c0.449,1.085-0.238,3.058-0.267,4.521c2.564,0.188,6.811-0.047,9.571-0.532
			c-0.455-2.591-0.201-6.035,1.064-7.711c0.51,2.188-0.776,5.919,0,7.711c1.594-0.09,2.824-0.545,4.255-0.797
			c0.711-1.023-0.636-3.941,1.063-4.521c0.746,1.422-0.406,3.092,0.531,4.255c4.787-0.531,9.019-1.617,12.762-3.191
			c-0.018-1.761-2.382-2.575-1.596-4.255c1.606,0.7,1.958,2.651,2.926,3.987c2.234-0.774,5.377-0.648,6.646-2.389
			c0.07-0.967-3.422-2.067-2.393-3.992c1.218,0.91,2.347,1.908,2.658,3.725C216.869,366.125,219.791,363.464,223.637,361.727z
			 M230.017,333.277c-8.041,8.711-16.608,15.68-30.309,18.079c-18.91,6.226-43.75,2.38-56.632-6.911
			c1.201,2.46,3.945,3.409,6.381,4.783c2.328,1.313,4.423,3.322,7.179,4.256c3.471,1.172,7.974,1.494,11.963,2.125
			c7.035,1.115,14.628,2.271,22.068,1.33c1.318-0.167,2.585-0.843,3.989-1.062c5.247-0.831,10.853-1.061,14.888-2.926
			c3.756-1.733,7.452-4.829,10.902-7.444c9.694-7.347,16.471-16.668,21.535-27.385C238.668,323.854,234.728,328.174,230.017,333.277
			z M231.612,361.99c-1.417,0.701-2.962,0.557-4.519,1.062c-2.097,0.685-4.208,1.856-6.382,2.66
			c-2.251,0.831-4.405,1.808-6.646,2.658c-11.366,4.323-24.183,7.196-38.818,8.242c18.764,2.431,36.252-4.595,51.314-9.306
			c6.066-4.214,14.141-7.835,17.016-14.356C239.603,355.692,236.166,359.747,231.612,361.99z M96.547,425.801
			c-0.434-2.313-0.675-4.818-1.595-6.647C95.306,422.116,95.229,424.12,96.547,425.801z M109.841,464.621
			c0.279-2.187-0.721-4.056,0-5.852c-2.746-1.86-3.798-5.419-6.912-6.913C104.54,456.804,106.766,461.136,109.841,464.621z"/>
		<path fill-rule="evenodd" clip-rule="evenodd" fill="#BE0A26" d="M410.883,95.421c-0.493-0.464-0.445-1.044-1.191-1.594
			c-1.702-1.25-2.126-1.444-5.634-4.458c-2.216-3.367-5.99-4.53-8.329-7.773c-1.658-1.464-1.809-1.164-2.926-2.393
			c-1.583-1.324-2.037-1.699-3.723-2.393c-8.849-2.65-30.054-5.751-31.106-5.583c-15.246,0.354-26.439,4.757-38.287,8.508
			c-0.604,0.378-0.731,0.281-1.712,0.828c-1.051,0.342-0.957,0.424-2.009,0.768c-10.521,7.294-22.271,12.968-32.057,21.319
			c-2.605,1.341-3.347,2.299-5.167,3.673c-6.054,4.568-10.973,10.44-16.751,15.685c-1.531,1.391-3.497,2.292-5.051,3.723
			c-5.456,5.028-11.13,11.709-16.219,17.548c-3.031,3.481-6.163,7.612-9.039,11.699c-4.322,6.139-8.608,11.891-13.293,18.08
			c-0.684,3.816-3.802,6.083-5.85,8.773c-2.124,2.789-3.291,6.268-6.115,8.508c-4.831,10.147-12.649,17.306-16.485,28.449
			c0.257,1.273-1.194-0.14-1.063,0.531c-1.366,3.662,1.472,6.109,1.331,8.508c-1.841,0.156-1.877-1.491-2.925-2.127
			c-0.239-3.34,0.236-5.968,1.86-7.443c2.243-9.015,8.339-16.143,13.028-23.664c4.671-7.491,10.258-14.305,14.89-21.536
			c4.833-7.55,9.8-14.691,14.888-21.802c2.533-3.541,5.604-6.52,8.509-9.837c7.127-8.138,14.142-16.534,23.131-23.132
			c5.994-6.589,11.915-13.255,19.409-18.345c5.421-5.731,13.385-10.168,20.736-14.358c2.917-1.66,5.447-3.314,8.509-4.52
			c3.029-1.192,6.099-2.145,9.308-3.457c1.787-0.73,3.325-1.814,5.051-2.392c1.957-0.657,3.979-1.293,6.088-1.888
			c1.559-0.439,2.879-0.885,4.28-1.302c2.184-0.652,4.431-0.419,6.914-0.798c4.231-0.647,8.636-1.681,13.294-1.595
			c2.816,0.051,5.771,0.903,8.773,1.329c10.085,1.428,21.505,0.351,28.181,5.583c4.433,3.829,8.688,7.746,13.03,11.699
			c12.723,11.585,20.199,28.491,26.59,46.795c0.859,2.467,1.331,5.695,1.592,8.241c1.108,10.823-1.832,24.714-3.986,33.766
			c0.279,0.989-0.898,0.522-1.065,1.064c-0.232,3.842-1.001,7.151-2.926,9.306c-1.816,9.984-7.074,18.705-10.899,27.65
			c-1.255,2.938-2.544,6.044-4.52,8.509c-1.744,8.889-6.977,14.292-9.571,22.333c-0.645,0.595-1.113,1.366-1.858,1.86
			c-2.592,5.562-5.312,11.192-8.245,17.018c-0.767,1.521-1.837,2.745-2.66,4.252c-1.616,2.972-3.831,5.731-5.317,8.774
			c-1.528,3.136-2.609,6.587-4.252,9.573c-0.521,0.945-1.624,1.668-2.128,2.657c-2.079,4.078-3.438,8.864-5.584,12.764
			c-0.732,1.328-1.797,1.949-2.659,3.189c-1.367,1.975-1.757,4.112-3.721,5.584c-1.84,1.377-4.189,1.773-6.381,2.393
			c1.627-2.347,4.249-2.4,6.113-4.256c0.884-0.873,1.277-2.359,2.128-3.721c0.709-1.134,1.95-2.11,2.659-3.189
			c3.196-4.88,4.263-11.96,8.242-15.952c2.608-8.382,7.503-14.479,11.699-21.271c1.657-3.847,3.168-7.794,5.318-11.699
			c1.921-3.494,4.669-6.875,6.38-10.635c3.753-8.256,7.461-16.581,11.167-25.258c3.226-7.56,7.136-14.913,10.102-22.6
			c0.429-1.11,0.375-2.373,0.8-3.457c2.066-5.283,4.591-12.133,6.38-18.345c1.573-5.46,2.019-11.009,2.926-16.749
			c0.259-1.645-0.069-3.53,0-5.584c0.089-2.634,0.879-5.503,0.53-8.243c-0.359-2.838-1.58-5.852-2.392-8.774
			c-0.813-2.917-1.613-5.505-2.658-8.241c-2.14-5.596-3.91-10.875-6.648-15.157c-0.372-0.58-1.088-0.861-1.596-1.594"/>
		<path fill-rule="evenodd" clip-rule="evenodd" fill="#BE0A26" d="M383.639,93.17c4.852,2.414,7.924,5.65,11.488,8.794
			c2.889,2.549,5.373,4.442,7.708,7.71c0.478,0.668,0.79,1.64,2.056,2.794c2.103,4.055,4.458,8.37,5.123,14.223
			c1.016,8.899-2.854,18.927-9.039,19.94c-1.993,0.326-5.735-0.134-7.177-0.531c-5.062-1.402-11.507-6.327-16.219-9.307
			c-3.811-2.409-6.884-4.28-10.636-6.646c-3.59-2.262-6.785-4.602-10.37-6.913c-2.635-1.7-3.803-2.634-7.979-4.534
			c-3.177-2.965-6.439-3.169-9.036-5.834c-1.47-1.51-2.056-2.912-3.192-5.318c-0.639-6.04-1.188-7.475-0.528-11.433
			c0.51-3.062,6.029-9.345,9.307-10.37c6.473-2.026,14.353-0.626,21.001,0.798C373.677,88.157,378.377,89.707,383.639,93.17z
			 M345.672,87.607c-1.206,0.516-5.373,4.067-6.114,5.052c-4.236,5.611,0.868,14.101,4.255,17.281
			c3.394,3.188,8.483,5.464,12.761,7.977c3.895,2.287,8.045,5.464,12.763,8.243c2.098,1.235,4.474,2.33,6.648,3.722
			c5.898,3.778,13.078,9.278,20.736,10.103c6.49,0.7,10.279-0.905,11.433-4.785c1.847-6.208-1.776-15.794-3.987-19.675
			c-2.922-5.126-5.091-7.806-9.306-11.434c-3.957-3.404-6.671-6.665-11.433-9.304c-4.249-2.355-6.847-4.515-11.698-5.583
			c-4.954-1.091-13.395-2.883-17.812-2.66C351.604,86.662,348.032,86.6,345.672,87.607z M363.59,126.21
			c2.124,1.326,4.465,2.528,6.913,4.254c2.187,1.54,4.612,2.775,6.915,4.253c4.854,3.123,9.891,6.347,14.089,8.242
			c6.81,3.075,14.106,1.277,13.457-2.181c-3.194,0.713-4.076,2.065-11.597,0.585c-12.824-2.521-41.167-24.813-51.479-29.841
			L363.59,126.21z"/>
		<path fill-rule="evenodd" clip-rule="evenodd" fill="#BE0A26" d="M321.479,184.652c5.656,2.68,13.739,2.52,19.941,4.255
			c5.8,1.622,13.126,5.137,18.344,8.241c2.324,1.382,4.79,3.812,7.71,5.583c4.567,2.772,8.893,5.107,7.713,11.965
			c-0.532,3.092-1.247,6.698-1.862,9.572c-1.879,8.78-8.263,15.444-11.965,21.536c-2.827,1.295-4.706,4.372-7.709,4.785
			c-5.351,0.74-12.799-2.352-16.486-4.52c-2.779-1.635-5.341-4.68-8.242-7.445c-1.278-1.22-3.123-1.937-4.518-3.189
			c-3.915-3.513-8.018-7.545-11.7-11.701c-3.398-3.835-6.658-7.789-5.849-14.888c0.5-4.387,3.025-8.318,5.054-11.699
			c1.288-2.154,3.258-3.87,4.253-5.582C317.845,188.662,317.09,185.315,321.479,184.652z M312.173,200.073
			c-2.753,4.946-4.066,9.397-1.329,14.358c3.652,6.617,9.788,10.635,15.686,14.623c2.72,4.583,7.103,6.86,11.7,9.837
			c2.52,1.632,4.929,3.775,7.442,4.255c2.602,0.493,5.691-0.721,8.774-0.267c4.445-2.662,7.5-7.125,10.371-11.432
			c1.153-1.73,2.185-3.484,3.189-5.318c2.521-4.611,7.301-11.142,4.786-17.015c-1.673-3.908-10.195-7.885-13.826-10.104
			c-1.736-1.062-3.266-2.443-4.787-3.189c-9.79-4.822-21.316-7.349-33.234-8.774C317.945,191.313,314.726,195.488,312.173,200.073z
			 M328.922,235.966c3.139,2.547,5.751,6.101,8.51,7.976c2.722,1.851,12.768,5.704,16.748,4.255
			c5.595-2.039,8.643-7.827,11.965-12.497c2.037-2.862,4.257-6.231,3.988-9.306c-2.908,5.087-6.426,10.777-10.102,14.623
			c-2.915,3.05-7.885,4.975-14.624,3.988c-2.978-0.435-5.202-2.356-7.976-4.253c-2.011-1.375-4.442-2.536-6.116-3.723
			c-5.034-3.571-8.24-10.635-14.356-11.964C320.589,229.166,324.308,232.217,328.922,235.966z"/>
		<path fill-rule="evenodd" clip-rule="evenodd" fill="#BE0A26" d="M440.59,263.884c0.695,0.368,0.755,1.374,1.065,2.126
			C440.961,265.641,440.901,264.637,440.59,263.884z"/>
		<path fill-rule="evenodd" clip-rule="evenodd" fill="#BE0A26" d="M425.701,300.574c1.032,0.789,0.438,1.547,1.064,2.657
			C425.989,302.77,425.715,301.803,425.701,300.574z"/>
		<path fill-rule="evenodd" clip-rule="evenodd" fill="#BE0A26" d="M305.523,488.282c0.211-0.016,0.854,1.798,0.8,2.926
			C305.062,490.65,305.957,489.587,305.523,488.282z"/>
	</g>
</g>
<path fill-rule="evenodd" clip-rule="evenodd" fill="none" stroke="#BE0A26" stroke-width="0.826" stroke-linecap="round" stroke-miterlimit="10" d="
	M321.766,124.853c1.96,1.564,6.955,3.439,9.786,5.918c-5.514,2.864-12.591,2.403-17.632,7.108c4.243,2.909,5.426,2.891,9.718,5.793"
	/>
<path fill-rule="evenodd" clip-rule="evenodd" fill="none" stroke="#BE0A26" stroke-width="0.826" stroke-linecap="round" stroke-miterlimit="10" d="
	M333.234,132.523c-2.379-0.869-8.137,10.432-3.639,13.033c3.403,1.971,8.352-5.381,9.549-9.041"/>
<g>
	
		<path fill-rule="evenodd" clip-rule="evenodd" fill="none" stroke="#BE0A26" stroke-width="0.826" stroke-linecap="round" stroke-miterlimit="10" d="
		M343.289,137.816c-1.368,4.913-5.504,10.167-7.907,14.65"/>
	
		<path fill-rule="evenodd" clip-rule="evenodd" fill="none" stroke="#BE0A26" stroke-width="0.826" stroke-linecap="round" stroke-miterlimit="10" d="
		M347.646,143.258c-1.354,1.751-5.496,2.443-7.938,2.26c0.577,3.941,3.171,7.414,3.127,11.484"/>
</g>
<path fill-rule="evenodd" clip-rule="evenodd" fill="none" stroke="#BE0A26" stroke-width="0.826" stroke-linecap="round" stroke-miterlimit="10" d="
	M351.925,145.048c-0.864,3.388-8.647,11.471-3.981,15.158c4.22,3.333,9.248-7.491,9.211-10.545"/>
<path fill-rule="evenodd" clip-rule="evenodd" fill="none" stroke="#BE0A26" stroke-width="0.826" stroke-linecap="round" stroke-miterlimit="10" d="
	M353.296,164.104c3.424-2.458,5.952-8.811,7.917-11.718c-2.624,2.931-2.979,10.651-2.71,14.308c2.52-1.571,5.538-8.723,6.43-11.723"
	/>
<path fill-rule="evenodd" clip-rule="evenodd" fill="none" stroke="#BE0A26" stroke-width="0.826" stroke-linecap="round" stroke-miterlimit="10" d="
	M368.117,157.926c-2.502,3.703-5.46,8.156-6.626,12.017"/>
<path fill-rule="evenodd" clip-rule="evenodd" fill="none" stroke="#BE0A26" stroke-width="0.826" stroke-linecap="round" stroke-miterlimit="10" d="
	M368.35,157.583c1.833,1.212,5.639,2.002,5.967,4.531"/>
<path fill-rule="evenodd" clip-rule="evenodd" fill="none" stroke="#BE0A26" stroke-width="0.826" stroke-linecap="round" stroke-miterlimit="10" d="
	M370.905,166.307c-0.827-1.914-3.356-3.258-5.337-4.605"/>
<path fill-rule="evenodd" clip-rule="evenodd" fill="none" stroke="#BE0A26" stroke-width="0.826" stroke-linecap="round" stroke-miterlimit="10" d="
	M380.901,166.43c-2.543,3.816-5.329,8.634-6.927,12.761"/>
<path fill-rule="evenodd" clip-rule="evenodd" fill="none" stroke="#BE0A26" stroke-width="0.826" stroke-linecap="round" stroke-miterlimit="10" d="
	M375.352,163.364c3.293-0.056,8.638,4.543,10.466,7.068"/>
<path fill-rule="evenodd" clip-rule="evenodd" fill="none" stroke="#BE0A26" stroke-width="0.7297" stroke-linecap="round" stroke-miterlimit="10" d="
	M283.862,177.964c-6.765-2.874-13.836-5.006-20.622-8.367c5.725,2.835,12.511,5.1,18.237,7.935c-6.042-2.422-12.477-5.97-18.1-9.091
	c5.773,1.726,13.071,5.695,18.792,8.528c-5.453-2.701-11.448-4.78-16.901-7.481c7.705,3.815,15.749,7.634,23.818,10.626
	c-4.335-4.367-17.818-3.998-10.47-13.158c-2.982,6.027-5.616,14.994-9.964,20.075c4.831-5.644,7.58-13.301,10.883-19.971
	c-2.866,5.787-5.732,11.574-8.598,17.36"/>
<path fill-rule="evenodd" clip-rule="evenodd" fill="none" stroke="#BE0A26" stroke-width="0.4072" stroke-linecap="round" stroke-miterlimit="10" d="
	M329.69,207.794c-0.045-0.079-0.799-0.222-0.269-0.173c5.211,0.294,10.826,3.595,15.463,5.692c3.397,1.537,7.85,3.1,10.479,5.896
	c-6.796-3.113-13.527-6.327-20.366-9.364c5.198,2.317,10.216,5.375,15.615,7.172c-5.886-4.541-14.501-5.942-21.094-9.3
	c5.86,3.014,12.766,4.163,18.844,6.842"/>
<path fill-rule="evenodd" clip-rule="evenodd" fill="none" stroke="#BE0A26" stroke-width="0.1971" stroke-linecap="round" stroke-miterlimit="10" d="
	M370.536,101.971c-0.539-0.931-2.926,1.65-3.63,2.583c-1.537,2.033-2.223,4.27-1.418,6.764c1.141,3.537,6.502,9.547,10.445,9.787
	c2.94,0.178,7.205-2.692,8.247-5.384c1.156-2.982-0.816-6.187-2.313-8.546c4.727,1.974,3.419,6.962,1.488,10.313
	c-2.539,4.403-5.49,5.127-9.88,2.934c-4.192-2.095-9.148-5.419-9.337-10.691c-0.143-3.966,3.574-6.207,6.499-7.888
	c-4.502,2.425-6.508,5.247-4.766,10.276c1.237,3.569,4.308,6.213,7.417,8.178c6.198,3.919,15.118-6.67,10.562-12.221"/>
<path fill-rule="evenodd" clip-rule="evenodd" fill="none" stroke="#BE0A26" stroke-width="0.1971" stroke-linecap="round" stroke-miterlimit="10" d="
	M379.116,98.797c-1.37,3.294-3.641,6.688-4.42,10.088c2.061-2.531,2.982-5.9,4.885-8.558c-1.658,2.486-2.822,5.229-4.286,7.811
	c1.844-1.661,3.599-5.495,3.857-8.06c-1.741,2.856-3.66,5.64-4.921,8.748c1.922-2.649,2.345-6.009,3.859-8.865
	c-1.666,2.778-2.899,6.293-3.372,9.352c1.918-2.677,3.358-5.525,4.587-8.555c-1.385,2.234-2.94,4.393-3.994,6.798"/>
<path fill-rule="evenodd" clip-rule="evenodd" fill="none" stroke="#BE0A26" stroke-width="0.968" stroke-linecap="round" stroke-miterlimit="10" d="
	M368.943,102.683c-2.056,2.729-3.782,4.805-4.213,8.429c0.211-1.03,0.088-2.154,0.057-3.229c-0.538,1.319-0.524,3.582,0.237,4.593
	c0.041-0.611,0.218-0.941,0.027-1.639c0.799,5.352,6.414,11.515,12.225,9.964c5.032-1.343,8.215-7.75,6.447-12.521"/>
</svg>
