<?xml version="1.0" encoding="UTF-8"?>
<!-- Created with Inkscape (http://www.inkscape.org/) -->
<svg id="svg1" width="100" height="100" version="1.1" viewBox="0 0 26.458 26.458" xmlns="http://www.w3.org/2000/svg">
 <style>
   @media (prefers-color-scheme: dark) {
    #text2 { fill: #eee !important; }
    #path1, #path2 { stroke: #eee !important; }
   }
 </style>
 <g id="layer1" transform="translate(-39.532 -83.154)" fill="none" stroke="#1a1a1a" stroke-width="2.6458">
  <path id="path1" d="m44.515 102.27a11.194 10.292 0 0 1-0.01473-13.752 11.194 10.292 0 0 1 14.87-1.4881 11.194 10.292 0 0 1 3.2036 13.433 11.194 10.292 0 0 1-14.183 4.3689" stroke-linejoin="round"/>
  <path id="path2" d="m44.178 101.55c0.19061 1.2647-0.029 2.588-0.61792 3.7233-0.55662 1.0731-1.4396 1.974-2.5013 2.5522 1.8219 0.17327 3.6873-0.13281 5.3583-0.87921 1.286-0.57442 2.4561-1.4067 3.4208-2.4329" stroke-linejoin="bevel"/>
 </g>
 <path id="text2" d="m14.587 7.5474q-0.66973-0.17728-1.3986-0.17728t-1.1819 0.37426q-0.43336 0.35456-0.43336 1.0243 0 0.65003 0.33487 1.0243 0.33487 0.37426 1.3198 0.65003l1.7531 0.51215q1.4183 0.41366 2.2456 1.3001 0.84701 0.86671 0.84701 2.5607 0 2.0092-1.4577 3.1714-1.438 1.1622-3.585 1.1622-1.1819 0-2.4426-0.29547-1.241-0.31517-2.0683-0.86671 0-0.11819 0-0.45305t0.13789-1.1425 0.39396-1.3198h1.8713q0.31517 0.61064 0.37426 1.6349 0.68943 0.29547 1.5955 0.29547 0.92581 0 1.5167-0.43336t0.59094-1.241q0-0.37426-0.05909-0.61064-0.05909-0.25607-0.37426-0.53185-0.29547-0.29547-0.86671-0.47275l-2.0289-0.59094q-3.0926-0.88641-3.0926-3.9396 0-1.7925 1.3001-2.8562 1.3001-1.0834 3.3881-1.0834 2.1077 0 4.1169 0.9455 0 0.11819 0 0.45305t-0.13789 1.1425-0.39396 1.3198h-1.8713q-0.33487-0.47275-0.39396-1.5561z" fill="#1a1a1a" stroke-linejoin="bevel" stroke-width="2.6458" aria-label="S"/>
</svg>
