<?xml version="1.0" encoding="UTF-8"?>
<!-- Created with Inkscape (http://www.inkscape.org/) -->
<svg id="svg1" width="100" height="100" version="1.1" viewBox="0 0 26.458 26.458" xmlns="http://www.w3.org/2000/svg">
 <g id="layer1" transform="translate(-39.532 -83.154)">
  <path id="text1" d="m54.248 90.661c-0.40154-0.174-1.0038-0.261-1.8069-0.261-0.80309 0-1.4522 0.34799-1.9474 1.044-0.49517 0.69599-0.74278 1.914-0.74284 3.6539-5.4e-5 1.74 0.23417 2.978 0.70268 3.7142 0.48184 0.72276 1.1912 1.0841 2.1281 1.0841 1.4322 0 2.7171-0.21415 3.8548-0.64244l0.72275 1.7868c-1.4187 0.8432-3.0851 1.2648-4.9991 1.2648s-3.2993-0.54208-4.1558-1.6262c-0.84319-1.0842-1.2648-2.8576-1.2648-5.3203 0-2.4627 0.52198-4.283 1.5659-5.4609 1.0574-1.1779 2.5364-1.7668 4.4369-1.7668 1.5258 0 2.978 0.4216 4.3567 1.2648v0.46177c0 0.22754-0.04685 0.6157-0.14054 1.1645-0.09369 0.54876-0.22754 0.99712-0.40154 1.3451h-1.9072c-0.18738-0.36138-0.32123-0.93022-0.40153-1.7065z" fill="#1a1a1a" stroke-linejoin="round" aria-label="CfS"/>
  <path id="path1" d="m44.515 102.27a11.194 10.292 0 0 1-0.01473-13.752 11.194 10.292 0 0 1 14.87-1.4881 11.194 10.292 0 0 1 3.2036 13.433 11.194 10.292 0 0 1-14.183 4.3689" fill="none" stroke="#1a1a1a" stroke-linejoin="round" stroke-width="2.6458"/>
  <path id="path2" d="m44.178 101.55c0.19061 1.2647-0.029 2.588-0.61792 3.7233-0.55662 1.0731-1.4396 1.974-2.5013 2.5522 1.8219 0.17327 3.6873-0.13281 5.3583-0.87921 1.286-0.57442 2.4561-1.4067 3.4208-2.4329" fill="none" stroke="#1a1a1a" stroke-linejoin="bevel" stroke-width="2.6458"/>
 </g>
</svg>
