<?xml version="1.0" encoding="UTF-8"?>
<!-- Created with Inkscape (http://www.inkscape.org/) -->
<svg id="svg1" width="100" height="100" version="1.1" viewBox="0 0 26.458 26.458" xmlns="http://www.w3.org/2000/svg">
 <g id="layer1" transform="translate(-39.532 -83.154)" fill="none" stroke="#1a1a1a" stroke-width="2.6458">
  <path id="path1" d="m44.515 102.27a11.194 10.292 0 0 1-0.01473-13.752 11.194 10.292 0 0 1 14.87-1.4881 11.194 10.292 0 0 1 3.2036 13.433 11.194 10.292 0 0 1-14.183 4.3689" stroke-linejoin="round"/>
  <path id="path2" d="m44.178 101.55c0.19061 1.2647-0.029 2.588-0.61792 3.7233-0.55662 1.0731-1.4396 1.974-2.5013 2.5522 1.8219 0.17327 3.6873-0.13281 5.3583-0.87921 1.286-0.57442 2.4561-1.4067 3.4208-2.4329" stroke-linejoin="bevel"/>
 </g>
 <text id="text2" x="13.221248" y="18.991894" fill="#1a1a1a" font-family="'Patua One'" font-size="19.698px" letter-spacing="-.066188px" stroke-linejoin="bevel" stroke-width="2.6458" text-align="center" text-anchor="middle" style="line-height:1" xml:space="preserve"><tspan id="tspan1" x="13.188153" y="18.991894" stroke-width="2.6458">S</tspan></text>
</svg>
