<?xml version="1.0" encoding="utf-8"?>
<!-- Generator: Adobe Illustrator 15.0.0, SVG Export Plug-In . SVG Version: 6.00 Build 0)  -->
<!DOCTYPE svg PUBLIC "-//W3C//DTD SVG 1.1//EN" "http://www.w3.org/Graphics/SVG/1.1/DTD/svg11.dtd">
<svg version="1.1" id="Ebene_1" xmlns="http://www.w3.org/2000/svg" xmlns:xlink="http://www.w3.org/1999/xlink" x="0px" y="0px"
	 width="566.93px" height="566.93px" viewBox="0 0 566.93 566.93" enable-background="new 0 0 566.93 566.93" xml:space="preserve">
<g id="waage_1_">
	<g>
		<path fill-rule="evenodd" clip-rule="evenodd" d="M262.013,87.226C262.178,86.071,261.769,88.929,262.013,87.226L262.013,87.226z"
			/>
		<path fill-rule="evenodd" clip-rule="evenodd" fill="#58585A" d="M94.225,148.814c-0.087-1.175,0.601-0.154,1.152-0.288
			c-1.718-3.967,0.011-10.222-0.864-14.39c-4.54-1.521-8.887-8.855-4.893-14.39c3.458-4.794,9.927-2.731,17.555-2.591
			c12.632,0.233,26.001-0.526,37.99-0.575c1.862,0.868,5.487,2.153,7.483,0.288c-0.418,1.377,1.204,0.715,2.014,0.863
			c1.342,0.253-0.396-0.746,0.576-0.863c6.468-0.266,10.577,0.917,16.404-0.288c3.406,1.397,5.637-0.575,7.483,0.864
			c1.152-0.191,2.082-0.604,3.166-0.864c1.396,0.628,3.086,0.454,4.605,0.864c1.957-1.607,5.724,0.267,7.195-1.151
			c1.093-0.424,0.056,1.286,1.151,0.862c1.252,0.293,1.323-0.594,2.014-0.862c0.911,0.238,1.222,1.08,2.302,1.151
			c2.956-0.238,7.125,0.963,7.771-0.864c13.693,0.754,30.401-0.428,46.047-1.439c-1.521-3.314-3.558-6.555-3.165-10.936
			c0.778-8.686,11.998-14.542,19.858-9.785c1.962,1.187,3.323,3.44,5.18,5.467c-0.331,2.057,0.681,2.773,0.575,4.605
			c-0.602,0.837-2.488,0.39-3.165,1.152c0.633,3.097,0.155,7.511-0.288,9.497c1.619,1.953,5.852,1.557,9.498,1.439
			c6.47-0.209,13.753-0.127,20.433-0.287c6.681-0.162,13.303-0.854,19.858-0.865c3.792-0.004,7.479,0.556,11.224,0.288
			c22.243-1.592,45.814-0.179,67.922-1.151c4.656-0.205,9.209-0.66,13.525-0.288c4.39,0.379,8.199,1.232,13.24,0.288
			c2.653-1.31,5.455-3.277,8.345-2.302c6.004,2.021,7.607,15.247-0.575,15.829c1.311,1.501,2.857,5.96,0.864,8.058
			c1.411,1.836,2.713,6.272,0.575,8.346c1.128,2.511,1.57,3.935,0.864,6.332c-0.416,1.409-1.669,2.027-1.729,3.166
			c-0.132,2.642,2.871,3.54,2.591,6.619c-1.623,0.404-1.926-2.823-3.452-3.453c-0.528,2.104,0.252,6.108-1.152,8.058
			c-1.914-0.868-0.866-4.697-1.151-7.195c-2.053,0.632-1.198,4.173-4.029,4.029c0.105-3.081,2.309-6.501,3.743-9.209
			c-2.223-3.81,0.86-9.639-1.442-12.951c0.209-0.655,0.259-1.47,0.578-2.015c-1.018-2.099-1.793-6.371-0.578-8.922
			c-2.472-1.459-6.046-1.818-6.618-5.181c-16.751-0.726-33.368,0.492-52.091,0c-5.147-0.134-10.072-0.213-15.255,0
			c-10.916,0.451-23.35-0.39-35.11,0.289c-1.749,0.1-3.504,0.758-5.181,0.863c-5.44,0.339-10.729,0.026-16.117,0
			c-5.389-0.025-11.62,0.767-17.267,1.151c-2.514,0.172-5.201-0.412-6.909,0.576c-2.721,1.576-2.238,6.512-5.468,8.058
			c3.594,3.099,4.458,9.965,2.303,15.541c-1.268,3.278-4.156,4.577-4.031,8.922c0.046,1.551,0.898,3.102,1.152,4.605
			c1.539,9.111,1.312,19.118,1.152,27.052c-0.06,2.95,0.635,5.701,0.863,8.635c0.334,4.326-0.996,8.549-1.151,13.238
			c-0.263,7.928,1.168,15.913,0,23.887c0.142,10.826,0.723,23.238-0.289,35.975c-0.173,2.193-0.866,4.27-0.863,6.333
			c0.006,5.409,1.394,10.938,1.439,16.405c0.11,13.383,0.22,26.246,0.575,39.14c0.071,2.604-0.578,4.864-0.575,7.771
			c0.01,14.59,1.144,28.979,0.575,43.458c11.025,0.229,21.595,1.678,32.521,3.168c2.988,0.405,6.069-0.191,8.922,0.286
			c5.32,0.891,10.171,3.348,15.542,3.741c5.631,3.003,13.574,3.69,18.131,7.771c6.942,1.503,11.559,5.327,16.691,8.634
			c5.466,6.188,3.688,18.372,6.045,26.478c-4.75,4.161-9.758,8.952-16.118,12.088c-1.336,0.658-3.15,0.809-4.604,1.438
			c-1.396,0.606-2.443,1.798-3.74,2.304c-2.801,1.092-6.327,1.706-9.497,2.588c-3.193,0.894-6.239,1.811-9.498,2.591
			c-10.297,2.467-21.03,4.743-31.946,5.757c-6.989,0.65-14.084-0.568-21.009-0.575c-4.808-0.006-9.683,0.792-14.39,0
			c-12.567-2.121-24.779-3.343-36.264-5.47c-10.045-1.857-19.707-3.76-28.78-6.043c-1.571-0.875-3.181-2.092-5.181-2.878
			c-1.744-0.684-3.837-0.605-5.756-1.15c-5.341-1.524-10.51-4.788-14.965-4.03c-0.647,0.122-0.008,1.526-0.577,1.729
			c-5.693-0.118-8.565,0.985-13.527,0.287c3.678-1.439,7.575,0.179,11.225-1.439c-0.582-1.257,0.902-0.904,2.302-1.438
			c-0.996-2.266-3.752-2.771-5.181-4.605c-0.729-9.031-4.124-19.028-1.151-27.63c4.375-1.69,7.546-5.623,12.087-7.771
			c3.408-1.609,7.822-2.539,11.801-3.741c8.442-2.55,15.937-5.288,25.613-7.484c3.892-0.882,7.958-1.742,11.8-2.301
			c10.504-1.527,21.498-1.447,32.233-0.576c-0.587-22.273-1.265-50.593-0.863-73.101c0.103-5.718,0.795-11.683,0.576-17.556
			c-0.144-3.853-0.81-7.754-0.865-12.088c-0.06-4.699-0.542-9.21-0.286-13.814c0.224-4.05,1.395-8.047,1.438-12.087
			c0.045-4.133-1.041-9.223-1.151-13.815c-0.136-5.79,0.372-11.55,0.289-17.555c-0.287-20.863-1.354-42.438-1.151-62.165
			c0.028-2.688,0.418-7.009-0.575-9.786c-0.583-1.628-3.749-3.519-3.167-6.619c0.321-1.708,2.359-1.97,3.167-3.741
			c0.127-3.595-0.22-7.819,0.575-10.936c-4.643-2.896-3.98-11.655-0.863-16.118c-5.848-0.346-11.638,0-17.556,0
			c-3.352,0-6.757,1.046-10.073,1.151c-4.419,0.141-8.874-0.647-13.239-0.575c-2.714,0.043-5.4,1.093-8.058,1.151
			c-1.973,0.043-4.074-0.529-6.044-0.576c-21.601-0.506-43.917,0.756-66.771,0.864c-7.651,0.035-15.46-1.989-23.887-0.577
			c-0.049,1.412,0.527,3.01,0.864,4.605c7.875-0.032,15.595,0.009,23.311-0.289c4.037-0.154,8.049,0.674,12.088,0.576
			c23.753-0.575,48.386-1.349,72.525-0.288c5.554,0.245,11.15,1.1,16.693,0c0.972-0.179,0.375-1.929,1.15-2.303
			c1.291-0.235-0.062,2.173,1.151,2.015c2.611,0.692,2.365-1.472,3.742-2.015c0.62,0.244-0.107,1.835,0.575,2.015
			c2.212,0.39,1.15-2.494,3.165-2.302c0,0.768,0,1.535,0,2.302c1.569,0.062,3.46-0.198,4.606,0.289
			c0.972-0.229-0.469-2.707,1.438-2.591c-0.713,2.928,1.792,1.835,1.439,5.469c-0.858,0.715-0.878-1.253-2.014-1.151
			c-15.798,0.597-30.78,0.377-45.761-0.577c-4.186-0.266-8.659-0.355-12.951-0.288c-3.59,0.058-7.282,1.095-10.937,1.151
			c-2.903,0.046-5.742-0.571-8.634-0.575c-6.032-0.007-12.046,0.444-18.131,0.289c-13.774-0.354-28.925,0.58-43.17-0.289
			c-1.95,3.614-3.876,7.251-8.633,8.058c-0.224,5.424,2.506,10.473,0.575,15.254c1.71,1.874,2.34,4.621,1.439,7.771
			c-0.876,0.275-1.158,1.144-2.591,0.863c0.891,4.346,5.122,6.701,4.03,12.087c-2.049-1.404-2.012-4.896-4.03-6.33
			c-1.715,0.585-0.63,3.973-2.59,4.316c-0.074-2.473,0.196-4.6,0.576-6.62c-1.821,0.953-2.503,4.284-4.604,4.029
			c0.374-3.847,2.565-5.875,4.316-8.346c-0.426-1.764-1.968-4.321-1.15-7.195 M255.681,153.131
			C255.504,152.713,255.333,153.161,255.681,153.131c-0.003,0.572-0.784,0.366-0.575,1.151c9.527,7.369,18.335-1.432,17.843-12.663
			c-0.486-3.709-4.821-3.889-4.029-7.483c0.302-1.369,1.744-1.355,2.59-2.302c2.431-2.721,4.029-9.308,1.152-12.952
			c-0.237-0.298-4.074-3.489-4.604-3.741c-3.141-1.491-7.145-0.52-10.074-2.59c-2.037-1.44-2.617-5.658-2.014-7.483
			c1.173-3.552,8.713-9.003,13.238-5.756c1.33,0.953,1.332,3.829,3.742,3.741c-0.085-5.394-6.144-9.14-11.8-8.346
			c-6.366,0.892-10.75,9.966-6.62,16.979c0.997,1.693,3.316,2.332,3.453,4.318c-7.516,5.267-7.648,15.819,1.728,19.571
			c3.194,1.278,5.781,1.074,7.482,3.166c3.873,4.763,1.26,11.358-2.59,14.39C262.554,154.745,257.931,155.569,255.681,153.131z
			 M270.647,106.796c-1.704-1.475-1.154-3.583-2.302-5.757c-4.819-2.089-9.448,1.568-10.362,6.044c0.537,0.275,0.962-0.862,1.151,0
			c-0.267,1.339,0.218,3.086,1.439,3.741c0.384-1.069-0.91-2.656-1.151-4.029c1.628-0.134,1.175-1.517,3.166-1.727
			c0.126,0.99-0.114,1.612-0.287,2.302c2.131-0.309,0.333,3.313,1.726,3.742c-0.16-1.6,0.134-2.746,1.44-2.878
			c0.849,0.626-0.744,2.025,0.576,2.302c-0.075-0.939,0.341-1.385,1.151-1.439c0.861,0.535-0.367,2.062,0.287,2.302
			c0.326-0.539,0.341-1.386,1.439-1.151c0.022,1.513-0.275,3.344,1.439,3.166C270.245,110.998,270.455,108.906,270.647,106.796z
			 M260.285,107.947C260.474,108.136,260.165,107.827,260.285,107.947L260.285,107.947z M427.785,124.352
			c1.056,1.787,5.971,2.917,8.923,1.726c5.318-2.146,1.01-12.908-4.029-11.799C428.857,115.119,425.58,120.618,427.785,124.352z
			 M394.112,116.869c-3.195,0.426-6.602,0.858-9.497,0c-4.09,0.686-9.097,0.402-13.527,0.288c-3.651-0.094-7.026-0.039-10.647,0
			c-5.86,0.062-11.76,0.166-17.556-0.575c-9.596,1.444-19.436,1.058-29.644,0.864c-1.02-0.157-0.709,1.019-1.727,0.862
			c-11.044,0.395-24.45,0.105-35.974,0c-0.13,1.346,0.796,3.951,1.15,5.756c1.324-0.432,1.568-2.225,3.166-0.864
			c0.664-0.583,0.197-2.296,1.728-2.014c1.175,0.782-0.984,2.666,0.288,2.589c2.546,1.486,1.839-2.76,4.029-2.589
			c0.925,1.009-0.345,1.568-0.575,2.303c2.236,0.7,1.632-1.438,3.166-1.439c0.871,0.086,0.091,1.827,1.438,1.439
			c2.049,0.514,1.39-1.68,3.166-1.439c0.638,0.226-0.055,1.781,1.152,1.439c10.75-0.148,22.428-0.932,31.368-1.151
			c1.889-0.047,3.82,0.017,5.756,0c12.908-0.113,23.953-1.47,36.263-0.577c12.435,0.902,24.86-0.347,35.976-0.575
			c3.41-0.07,6.882,1.042,10.362,0.863c3.616-0.188,7.023-1.568,10.647-0.576c0.086-1.796,1.521-3.574,1.44-4.604
			C416.035,117.456,404.471,115.486,394.112,116.869z M175.673,117.445C175.861,117.633,175.552,117.324,175.673,117.445
			L175.673,117.445z M142.288,117.445C140.445,117.112,141.655,118.323,142.288,117.445L142.288,117.445z M105.737,118.02
			c-0.536,0.275-0.961-0.862-1.151,0C104.763,118.104,105.693,118.736,105.737,118.02z M95.088,131.547
			c6.511,1.833,13.575-5.595,9.498-10.649c-1.508-1.87-4.923-2.579-8.921-2.015C88.614,119.66,89.999,130.113,95.088,131.547z
			 M434.405,135.576c2.121-0.589,1.06-5.14-0.865-5.181C432.515,131.726,432.943,134.997,434.405,135.576z M257.12,147.663
			c-0.053-0.627,0.236-0.914,0.863-0.863c0.583,0.895-0.609,2.5,0.577,3.166c0.175-1.071-0.545-3.039,0.863-2.878
			c-0.219,2.323,0.651,4.221-0.288,5.181c0.76,0.675,1.963,0.048,2.879,0c-0.319-0.832-0.601-2.743,0.288-3.167
			c0.464,0.688,0.217,2.086,1.151,2.302c0.851-1.118-0.599-2.747,0.864-3.165c0.458,0.211-0.066,1.408,0.862,1.15
			c0.658-1.64,1.958-2.668,2.016-4.316c0.212-6.013-7.92-6.784-12.087-9.21C253.83,140.612,256.495,143.863,257.12,147.663z
			 M97.391,138.454c0.423-0.456,0.594-2.285-0.575-2.014C96.865,137.253,96.567,138.414,97.391,138.454z M435.558,142.771
			c1.103-0.698,0.751-4.21-0.576-4.317C433.926,139.105,434.45,142.442,435.558,142.771z M97.967,147.663
			c1.932-1.713,0.026-4.792-0.576-5.755C96.841,143.442,96.161,146.958,97.967,147.663z M434.981,151.404
			c2.409-0.601,1.466-5.444-0.576-5.755C433.979,147.589,433.951,150.137,434.981,151.404z M254.818,153.42
			c0.862-1.575-1.111-3.895-2.879-4.605C251.397,150.854,253.228,152.597,254.818,153.42z M256.257,149.966c0.287,0,0.575,0,0.863,0
			c-0.065-0.51,0.291-1.441-0.576-1.151C256.454,149.204,256.136,149.364,256.257,149.966z M258.56,151.98
			c-0.04-0.537-0.19-0.961-0.577-1.151C257.45,151.336,258.059,151.721,258.56,151.98z M99.118,155.434
			c1.837-0.972,0.547-4.493-1.438-4.316C98.016,153.25,97.29,154.727,99.118,155.434z M258.272,350.564
			c-0.572-0.275-1.363-1.797-1.728-0.578C257.146,350.153,257.367,350.701,258.272,350.564c0.102,0.376,0.507,0.451,0.575,0.86
			c-0.407,1.46-1.582-0.646-2.303,0.289c-0.629,2.26,1.255,2.007,1.728,3.166c-0.334,0.241-0.772,0.379-1.44,0.289
			c0.209,0.652,0.256,1.468,0.576,2.014c1.075,0.266,1.648-1.222,2.014,0c0.21,1.553-2.081,0.604-2.302,1.727
			c-0.122,1.86,2.471,0.076,2.878,0.864c-0.282,1.508-1.421,1.404-2.878,1.149c-0.056,1.111-0.011,2.121,0.288,2.878
			c1.241,0.741,2.588-0.335,3.166,0c0.508,2.25-2.892,0.741-2.877,1.727c-0.687,0.895,0.979,1.888,2.015,2.017
			c-0.033,0.734-0.964,0.568-1.728,0.573c0,0.961,0,1.921,0,2.879c0.344,0.711,2.503-0.392,2.016,1.152
			c-0.125,0.642-1.419,0.115-2.016,0.288c0.063,0.924-0.508,1.216-0.287,2.303c1.518,0.4,2.899,0.937,3.74,2.014
			c-1.461,0.776-2.612-0.953-3.74-1.439c0.263,4.772-1.041,13.462,4.892,11.799c0.132,2.67-3.439,0.873-4.316,0.288
			c-0.26,1.679,0.091,2.522-0.289,4.316c0.554,0.792,2.186,0.501,2.591,1.44c-0.626,1.248-1.439-0.107-2.591,0
			c0,0.958,0,1.919,0,2.878c1.114-0.147,2.334-0.578,2.879,0.289c-0.494,0.958-2.273,0.543-2.879,0
			c-0.193,1.049-0.256,1.972,0,2.876c0.578,0.856,2.334-0.32,2.591,0.288c-0.241,1.016-1.815,0.869-2.591,0.576
			c0.471,1.592-0.787,1.845-0.575,2.879c0.439,2.143,2.846,0.873,4.028,2.59c-1.323,0.128-2.291,0.524-3.165-0.289
			c-0.776,2.998,2.888,0.991,3.741,1.728c-0.354,0.988-2.266,0.421-3.166,0.864c-0.143,1.737,1.495-0.094,2.015,0.861
			c0.169,1.032-1.719,0.009-1.439,1.153c0.922,0.696,1.015,0.348,2.014,0c0.771,2.33,8.586,1.517,9.21-1.438
			c-0.675-8.491,0.312-17.126,0.575-25.904c0.226-7.56-0.516-16.005-0.575-23.312c-0.085-10.334,0.601-20.273,0-30.507
			c-0.767-13.047-0.275-26.587-1.151-39.142c-1.249-17.909,1.189-36.935,1.151-57.847c-0.033-17.658-0.248-35.677-0.576-52.668
			c-0.135-6.957-0.785-14.611-2.014-21.296c-3.241,2.733-9.257,1.473-12.665-0.288c-0.868,3.268,1.563,3.234,3.167,4.03
			c0.035,1.378-2.964-0.278-2.879,1.151c-0.062,1.789,3.276,0.178,2.879,2.302c-1.158,0.198-1.644-0.275-2.59-0.288
			c-0.64,0.784-0.18,2.311,0.288,2.878c1.54,0.377,3.006-0.459,3.165,0.863c-1.6-0.08-2.134,0.461-3.453,0
			c0.135,1.989-0.572,6.989-0.289,9.785c0.873,0.375,2.562-0.066,2.879,0.863c-0.417,1.324-2.864-0.314-2.879,0.865
			c0.609,0.638,2.371,0.124,2.591,1.151c-0.76,0.391-1.963,0.339-2.879,0.575c0,0.576,0,1.151,0,1.728
			c0.568-0.104,2.103-0.434,2.304,0.575c-0.253,0.899-2.314-0.01-2.304,1.151c-0.332,1.772,2.923-0.043,2.59,1.728
			c-0.492,0.942-1.621,0.389-2.59,0.289c0.362,1.972,0.006,3.65,0.288,5.18c0.634-0.174,2.146-0.723,2.302,0.288
			c-0.595,0.556-1.6,0.702-2.302,1.151c0,1.631,0,3.261,0,4.893c0.858,0.006,1.754-0.027,1.728,0.863
			c-0.026,1.33-1.717-0.349-1.439,0.863c0.052,2.216,2.948-0.174,3.165,1.727c-0.357,1.131-2.646,0.482-3.165,0
			c0.058,0.9-0.195,2.112,0.288,2.59c1.372,0.493,2.087-1.153,2.877-0.288c0.312,1.749-1.825,1.601-2.877,1.151
			c0,0.672,0,1.343,0,2.015c0.645,0.829,2.068-0.787,2.015,0.863c0.157,1.213-2.25-0.139-2.015,1.151
			c-0.625,1.776,1.802,0.5,1.726,1.726c-0.235,0.916-1.9,0.402-1.726,1.728c0.279,0.007,0.222,0.352,0.287,0.576
			c0.268,0.692,2.094-0.175,1.728,1.151c-0.266,0.502-0.9,0.634-1.728,0.575c0,0.767,0,1.536,0,2.302
			c0.497,0.463,1.779,0.139,2.015,0.863c0.139,0.908-1.32,0.217-1.439,0.865c0.6,0.647,2.683-0.189,2.591,1.151
			c-0.78,0.695-1.599-0.316-2.879,0c-0.297,0.756-0.344,1.766-0.288,2.877c1.157,0.636,2.103,0.726,3.167,0.864
			c-0.042,1.303-1.53,1.158-2.879,1.151c0,0.671,0,1.344,0,2.015c1.289,0.345,2.373-1.316,2.879,0
			c-0.338,1.101-2.3,0.578-3.167,1.151c0.035,0.829-0.158,1.884,0.288,2.303c1.067,0.177,2.294-1.136,2.59,0
			c-0.131,1.66-2.157,0.671-2.878,1.15c-0.391,0.85-0.36,1.783,0.288,2.302c1.43,0.488,2.226-1.463,2.879,0
			c-0.007,1.616-2.513,0.62-3.454,0.577c-0.351,3.234,0.801,4.798,0.287,7.483c0.626,0.62,2.594-0.1,2.878,0.863
			c-0.479,1.502-2.5-0.247-2.878,0.288c-0.202,1.257,0.489,1.621,0.288,2.877c0.505,0.167,1.691-0.347,1.728,0.289
			c-0.564,0.587-1.699,0.603-1.728,1.726c1.789,11.625-1.748,23.582-0.575,35.688c2.39,0.524,1.676,2.372,3.165,3.743
			c-1.866,0.858-1.756-2.105-3.165-2.591c0.137,1.029,0.467,1.662,0,2.591c0.734,0.799,2.792,0.276,3.165,1.438
			c-0.84,0.757-1.658-0.255-2.878,0c-0.076,1.707,0.026,3.237,0.576,4.316c1.182,0.061,1.78-0.621,2.302,0.288
			c-0.641,0.415-1.387,0.724-2.59,0.576c1.822,1.811-1.18,4.733,0.576,7.195c1.343,0.557,1.839-1.204,2.59-0.288
			c-0.209,1.039-1.208,1.288-2.59,1.151c0.002,2.535-0.204,4.209-0.288,6.044c0.919-0.316,3.056-0.464,2.878,1.151
			c-1.457,0.209-1.705-0.791-2.878-0.864c0.16,2.654-0.358,4.631-0.576,6.907c1.105,1.121,2.71-0.801,3.454,0
			c-0.244,1.292-1.71,1.36-3.167,1.44c-0.343,1.457-0.262,3.114,0,5.178c0.537,1.097,2.661,0.604,2.879,2.018
			c-1.81,1.255-2.238-1.866-3.454-1.153c0.383,0.864,0.292,2.202,0.287,3.455c1.458,0.576,2.113-1.129,2.878-0.288
			c-0.197,1.424-1.574,1.558-2.878,1.15c-0.158,7.323,0.222,13.929,0,21.008c1.61,0.118,2.381,1.074,3.454,1.729
			C259.411,350.959,258.859,349.879,258.272,350.564z M181.141,424.814c1.743,0.753,3.319,2.218,5.18,2.877
			c3.545,1.263,7.858,1.517,12.087,2.306c6.182,1.149,11.453,2.812,17.556,4.028c6.587,1.312,14.551,1.365,21.01,2.59
			c2.3,0.436,4.541,1.329,6.619,1.438c5.174,0.274,9.995-0.122,15.254,0c10.085,0.236,20.468,1.105,30.508,0.576
			c4.758-0.251,9.68-1.228,14.39-1.727c4.555-0.483,8.67-1.722,12.949-2.591c1.7-0.346,3.422-0.018,5.181-0.287
			c5.442-0.834,10.919-3.287,15.255-4.317c5.933-1.411,12.057-1.853,17.266-4.319c2.536-4.039,11.186-4.667,10.362-11.223
			c-0.209-1.653-2.232-3.197-4.317-4.893c-3.826-3.113-7.73-4.691-12.088-6.619c-2.458-1.09-4.382-2.663-6.045-3.454
			c-2.934-1.394-6.405-1.637-9.209-2.591c-2.511-0.853-4.534-1.941-7.77-2.875c-4.025-1.165-10.811-2.854-14.104-3.168
			c-1.658-0.158-4.693,0.425-6.33,0.289c-1.314-0.11-2.831-0.707-4.317-0.864c-1.605-0.17-3.208-0.132-4.894-0.289
			c-7.555-0.699-18.027-2.998-23.311-1.438c0.588,4.074-0.202,8.727-0.287,14.39c-0.046,2.954,0.787,6.319,0,8.059
			c-0.832,1.831-7.011,3.21-9.786,2.878c-1.89-0.226-5.625-1.907-6.332-3.453c-1.07-2.339-0.704-6.746-0.577-9.785
			c0.147-3.455,0.483-6.797,0.288-10.361c-13.215-3.441-27.92-0.673-40.867,1.726c-1.884,0.352-4.052,0.154-5.756,0.576
			c-1.233,0.305-2.188,1.161-3.454,1.441c-4.225,0.929-6.551,1.823-10.073,2.875c-4.871,1.459-9.193,2.817-13.239,4.319
			c-4.115,1.525-6.4,2.276-9.498,4.028c-4.681,2.646-11.894,5.656-8.633,12.664C168.777,421.385,175.288,422.284,181.141,424.814z
			 M341.158,430.857c-6.264,1.437-12.483,4.085-19.283,5.183c-18.835,3.033-39.558,5.89-59.287,4.604
			c-4.041-0.263-8.338,0.027-12.375-0.289c-4.408-0.345-8.522-1.154-12.664-1.726c-8.929-1.235-16.975-1.716-24.462-3.168
			c-1.034,4.531,0.033,11.163-1.439,15.255c-1.027-4.087,0.805-10.328,0-15.541c-6.858-2.181-15.194-3.007-22.161-4.318
			c-0.204,4.678,0.842,9.383,0,14.103c-1.493-1.672-0.334-5.998-1.151-8.345c-0.742,2.232,0.413,6.361-1.438,7.483
			c-0.032-4.944,0.332-9.969,0.287-14.102c-1.561-0.456-3.042-0.989-4.605-1.44c0.069,2.867,0.259,3.986,0.289,6.619
			c-0.123,0.807,1.072-0.723,1.15,0.286c-0.068,2.312-1.582,8.466,1.439,8.637c0.59-5.169-0.975-9.502,0.288-12.952
			c0.945,4.326,0.326,8.941,0.863,13.239c1.9,0.229,3.977,2.347,4.892,0.287c-0.178,1.811,1.003,2.259,2.302,2.59
			c-0.882-3.023-0.812-6.142-0.288-10.071c1.671,2.955-1.683,10.099,2.879,11.223c0.156-2.124-1.157-0.992-1.439-2.59
			c0.497-4.434-0.884-8.963,0.862-12.087c0.531,1.688-0.679,3.893,0.577,5.18c0.767-1.536-0.398-5.002,1.438-5.469
			c0.032,5.732-1.399,11.728,0.288,15.255c2.144-2.365-0.158-9.177,1.439-12.088c-0.903-0.438-0.57-2.053,0.288-2.303
			c0.117,3.811-0.082,9.667,0,14.391c0.712,0.558,2.424,1.248,3.454,0.574c-0.203-4.947-0.543-9.054,0.288-13.526
			c1.134,4.315-0.458,9.676,0.863,13.241c0.9-3.39-0.758-7.624,1.151-10.075c-0.204,4.19-0.181,7.15,0,11.8
			c0.811,0.436,1.799,0.696,3.165,0.577c0.133-4.266-0.371-12.643,0.289-16.407c1.244,3.995,0.367,11.597,0.576,16.694
			c1.034,0.667,3.874,0.823,4.605,0.862c-0.317-4.482-0.328-11.04,0.575-15.252c0.788,3.174-0.144,7.757-0.287,11.512
			c-0.042,1.104-0.186,3.949,1.438,4.029c1.324-1.664-0.871-5.081,1.152-6.043c0,2.108,0,4.22,0,6.329
			c2.336,1.021,5.376,1.341,8.346,1.728c0.036-2.171-0.254-4.668,0.864-5.754c0,1.917,0,3.835,0,5.754
			c1.05,0.581,2.289,0.972,4.028,0.864c0.249-2.227-0.199-5.322,0.577-7.482c1.462,2.034-1.384,7.399,2.302,8.058
			c0.184-2.788,0.247-7.183,0.576-9.785c1.31,3.139-0.941,7.636,1.439,10.071c0.063-0.222,0.241-0.332,0.576-0.286
			c1.492-4.192-1.33-11.129,0.864-13.815c0.087,5.195,0.229,9.43,0.288,14.102c1.057,0.192,2.188,0.308,3.166,0.576
			c1.041-3.097-0.125-7.394,1.439-10.358c0.754,3.275-1.233,7.262,0,10.358c1.141,0.492,3.031,0.233,4.317,0.575
			c0.182-2.232,0.028-3.425,0.864-4.604c0.807,1.083-0.452,3.939,0.575,4.604c1.477-2.867,0.064-9.146,1.44-12.374
			c0.244,1.598,0.542,3.43,0.575,4.604c0.021,0.741-0.559,3.965,0,1.44c0.251-1.134,0.358-4.148,0.864-6.045
			c0.809,2.321,0.122,7.937,0,11.223c-0.556,0.405-1.763,0.159-1.439,1.44c1.237,0.342,3.409,0.477,4.316,0.289
			c1.036-4.037-0.427-8.736,0.865-12.665c0.969,3.436-0.992,10.043,1.438,13.24c2.248-3.244-0.411-11.465,0.865-15.255
			c1.048,3.99,1.335,10.991,0.287,15.255c4.095,0.988,8.84,1.328,14.103,1.149c0.279-3.489-1.356-8.164,0.287-11.223
			c0.493,3.696-0.106,6.788,0.864,9.784c1.078-2.292-0.642-5.618,1.151-7.193c0.833,1.553-1.091,6.461,0.288,8.344
			c2.366-1.962-0.514-7.407,2.014-9.209c0.447,2.05-1.226,8.309,0.864,9.209c1.272-1.987-1.207-7.728,1.438-8.344
			c0.438,3.316-1.18,6.924,0.864,8.632c0.704-1.446-0.525-4.447,1.151-5.469c0.946,1.23-0.925,5.768,1.727,5.758
			c0.896-2.232-0.38-6.277,0.865-7.482c0.891,1.985-0.539,6.292,1.15,7.482c0.772-2.281-0.204-5.869,0.864-7.196
			c1.276,2.661-1.04,5.817,1.438,7.196c1.432-2.944-0.728-9.453,1.726-10.65c0.396,2.872-0.798,8.428,0.289,10.938
			c2.04-2.088-0.109-6.276,1.152-8.636c0.943,2.468,0.351,5.598,1.151,8.636c0.575,0,1.15,0,1.729,0c0.717-1.724-1.46-5.666,0-7.195
			c0.307,2.667,0.828,5.115,1.725,7.195c4.992-0.767,9.79-1.723,14.967-2.302c0.636-0.23,0.372-1.354,1.15-1.441
			c0.482,2.374,4,0.474,5.469,0.288c-0.188-2.054-0.939-3.608,0-5.467c1.088,0.828,0.366,3.472,0.575,5.179
			c2.766,0.083,4.716-0.655,6.907-1.149c0.567-0.199-0.07-1.607,0.577-1.728c-0.04,0.707-0.045,1.389,0.285,1.728
			c4.076-0.815,7.851-1.936,11.513-3.167c0.315-1.219,0.216-2.853,0.863-3.74c0.584,1.096-0.234,1.905,0,3.453
			c8.012-2.025,15.491-5.104,22.161-8.922c2.989-1.71,8.781-5.447,9.498-8.059c0.859-3.138-1.058-13.946-2.016-16.405
			C359.955,425.723,351.023,428.598,341.158,430.857z M163.585,425.389c0.536,0.277,0.961-0.86,1.151,0
			c-0.157,0.421,0.336,1.49-0.289,1.441c-0.689,0.114,0.161-1.312-0.862-0.865c0.191,2.164,2.316,2.224,0.862,4.606
			c0.334,0.24,0.772,0.379,1.44,0.286c-0.505-2.874,0.783-9.976-2.59-10.934C163.123,422.015,163.519,423.539,163.585,425.389z
			 M167.327,431.146C167.051,432.341,168.188,431.205,167.327,431.146c-0.049-0.722,0.441-0.902,0.863-1.149
			c1.337,2.163,0.309,8.279,3.167,9.783c0.485-3.242-1.167-3.894-1.152-7.196c0.665-0.086,0.321,0.833,0.865,0.864
			c0.836-0.623-0.66-1.789,0.575-2.014c1.026-0.052,0.604,2.831,1.151,2.303c-0.433-4.162,0.51-6.699-0.575-10.073
			c-1.522-0.264-3.842-1.545-6.044-2.016C166.407,423.874,167.02,428.907,167.327,431.146z M173.945,434.602
			c3.744-0.195,0.548,6.551,3.742,6.907c-0.582-1.962,0.462-3.999-0.576-5.182c0.048,0.796-0.442,0.987-0.864,0.576
			c0.066-4.137-0.782-8.43-0.575-11.8c-0.88,0.209-0.847-0.497-1.728-0.289C173.945,428.076,173.945,431.338,173.945,434.602z
			 M177.399,435.462c0.656-0.208-0.265-1.989,0.864-1.725c0.97,2.625,0.265,5.145,0.575,8.345c0.755,0.59,1.684,1.004,3.167,0.864
			c-0.013-2.675,0.341-7.36,0-11.224c-0.139-1.576-0.354-3.868-1.438-4.604c-0.734,3.785,0.965,9.894-0.576,13.526
			c-0.868-3.938-0.22-10.084-0.576-14.103c-1.069-0.178-1.81-0.686-2.878-0.864C176.91,428.838,176.629,432.803,177.399,435.462z
			 M188.623,435.751c0.191-2.371-0.131-3.522,0.577-5.18c-0.396,0.014-0.632-0.136-0.864-0.289
			C187.81,431.679,188.168,434.977,188.623,435.751z M166.464,432.584c0.042-0.714-0.149-1.19-0.576-1.438
			C166.015,431.689,165.496,432.881,166.464,432.584z M167.902,438.054c-0.379-1.911,0.65-4.284-0.863-5.47
			C166.726,434.781,166.13,436.803,167.902,438.054z M182.868,436.04C183.201,437.178,183.201,434.9,182.868,436.04L182.868,436.04z
			 M173.083,438.342c0.083,0.877-0.046,1.964,0.862,2.014c0.558-0.137,0.935-1.913,0.288-2.302
			C173.982,438.892,173.803,438.376,173.083,438.342z M196.106,442.082c0.375-0.382,0.177-0.866-0.288-1.15
			C195.867,441.364,195.716,441.992,196.106,442.082z M182.58,442.658C182.914,443.796,182.914,441.522,182.58,442.658
			L182.58,442.658z M195.818,443.521C195.034,444.98,196.823,444.593,195.818,443.521L195.818,443.521z"/>
		<path fill-rule="evenodd" clip-rule="evenodd" fill="#58585A" d="M262.588,116.581c4.411,1.299,8.485,3.297,8.059,8.633
			c-0.193,2.421-1.978,7.256-4.029,8.059c-4.091,1.601-9.434-2.209-9.786-6.619c-0.34-4.261,2.769-7.241,6.332-8.346
			C262.955,117.675,261.814,117.351,262.588,116.581z M268.92,123.489c-1.011-6.222-12.384-1.85-8.346,2.589
			c0.324-0.538,0.341-1.385,1.439-1.151c0.471,0.585,1.314,0.796,1.438,1.727c-0.106,1.143-1.106,2.778,0,3.454
			c0.445-0.705,0.174-2.128,1.439-2.014c0.422,0.729,1.286,1.016,2.014,1.439C268.18,127.395,269.261,125.583,268.92,123.489z
			 M265.178,130.107c-0.223,0.064-0.568,0.009-0.575,0.288C264.826,130.331,265.17,130.387,265.178,130.107z"/>
		<path fill-rule="evenodd" clip-rule="evenodd" d="M148.044,117.156c0.215-0.648,1.614-0.113,2.302-0.288
			C149.91,117.918,148.48,117.217,148.044,117.156z"/>
		<path fill-rule="evenodd" clip-rule="evenodd" fill="#58585A" d="M431.239,124.064c-1.891-1.716-0.967-5.221,0.286-6.908
			C440.213,114.779,440.286,126.146,431.239,124.064z M432.104,121.761c1.415,0.733,3.772,0.208,3.74-1.438
			c-0.41-0.932-1.394-1.291-2.876-1.151C432.611,119.965,432.125,120.634,432.104,121.761z"/>
		<path fill-rule="evenodd" clip-rule="evenodd" fill="#FFFFFF" d="M175.673,117.445
			C175.552,117.324,175.861,117.633,175.673,117.445L175.673,117.445z"/>
		<path fill-rule="evenodd" clip-rule="evenodd" fill="#58585A" d="M245.321,121.186c0.542,0.627,0.111,2.025-0.576,2.303
			C243.189,123.541,243.798,120.648,245.321,121.186z"/>
		<path fill-rule="evenodd" clip-rule="evenodd" fill="#58585A" d="M102.284,122.625c3.349,6.1-7.11,8.41-8.059,3.742
			C93.425,122.419,98.919,119.828,102.284,122.625z M96.527,125.791c0.352,1.155,2.227,1.432,3.454,0.863
			c0.243-0.717,0.377-1.542,0.288-2.59C98.7,122.904,96.649,123.883,96.527,125.791z"/>
		<path fill-rule="evenodd" clip-rule="evenodd" d="M262.013,144.785C262.729,143.663,262.433,145.739,262.013,144.785
			L262.013,144.785z"/>
		<path fill-rule="evenodd" clip-rule="evenodd" d="M260.285,149.39c1.108-0.072,1.218,1.805,0.864,2.303
			C260.003,151.365,259.986,150.545,260.285,149.39z"/>
		<path fill-rule="evenodd" clip-rule="evenodd" fill="#58585A" d="M441.023,163.492c0.384,0,0.77,0,1.153,0
			c0.495,2.789,3.25,4.774,3.165,7.195C443.229,169.135,440.368,166.861,441.023,163.492z"/>
		<path fill-rule="evenodd" clip-rule="evenodd" fill="#58585A" d="M429.801,164.356c0.394,3.202-0.98,7.059-3.455,8.346
			C426.294,169.843,427.165,165.48,429.801,164.356z"/>
		<path fill-rule="evenodd" clip-rule="evenodd" fill="#58585A" d="M90.196,167.521c0.671,0,1.343,0,2.015,0
			c-0.735,3.006-1.621,5.863-4.03,7.195C87.769,172.346,90.131,170.363,90.196,167.521z"/>
		<path fill-rule="evenodd" clip-rule="evenodd" fill="#58585A" d="M96.24,169.248c0.192,0,0.384,0,0.576,0
			c2.651,1.25,0.747,5.994,0.288,8.348C94.089,176.499,96.892,172.329,96.24,169.248z"/>
		<path fill-rule="evenodd" clip-rule="evenodd" fill="#58585A" d="M434.117,169.824c0.709-0.037,1.386-0.043,1.727,0.289
			c-0.319,1.312,0.114,3.375-0.862,4.028C433.576,173.811,433.914,170.884,434.117,169.824z"/>
		<path fill-rule="evenodd" clip-rule="evenodd" fill="#58585A" d="M103.146,170.4c2.483,1.114,5.093,4.685,3.742,7.77
			C105.061,176.159,103.721,173.664,103.146,170.4z"/>
		<path fill-rule="evenodd" clip-rule="evenodd" fill="#58585A" d="M446.492,172.415c2.195,1.281,4.361,4.052,4.029,6.907
			C448.561,177.808,446.064,175.366,446.492,172.415z"/>
		<path fill-rule="evenodd" clip-rule="evenodd" d="M256.832,173.277c0.602-0.122,0.763,0.198,1.151,0.289
			C258.076,174.074,256.371,174.08,256.832,173.277z"/>
		<path fill-rule="evenodd" clip-rule="evenodd" d="M257.983,176.443c-0.343,1.006-0.985,0.805-1.726,0.288
			C256.263,175.943,257.614,176.049,257.983,176.443z"/>
		<path fill-rule="evenodd" clip-rule="evenodd" fill="#58585A" d="M424.62,176.443c0.917-0.246,0.89,0.453,1.44,0.576
			c-0.771,2.395-0.338,5.996-2.88,6.619C421.921,181.19,424.085,178.821,424.62,176.443z"/>
		<path fill-rule="evenodd" clip-rule="evenodd" fill="#58585A" d="M87.894,177.019c-0.451,3.579-1.483,6.576-4.031,8.058
			C84.851,182.179,84.387,176.457,87.894,177.019z"/>
		<path fill-rule="evenodd" clip-rule="evenodd" fill="#58585A" d="M435.27,178.17c0.288,0,0.574,0,0.861,0
			c0.198,1.774,0.876,5.124-0.573,6.044C434.013,183.645,434.583,179.218,435.27,178.17z"/>
		<path fill-rule="evenodd" clip-rule="evenodd" fill="#58585A" d="M107.176,179.033c2.266,1.668,3.941,3.927,5.181,6.621
			c-0.069,0.891-0.801,1.117-1.151,1.726c0.673,0.862,1.395,1.676,1.438,3.167C110.331,187.199,108.606,183.264,107.176,179.033z"/>
		<path fill-rule="evenodd" clip-rule="evenodd" fill="#58585A" d="M95.952,181.049c0.876-0.013,1.119,0.607,1.727,0.863
			c0.273,2.879,0.371,5.505-1.727,6.619C96.048,186.71,95.556,183.013,95.952,181.049z"/>
		<path fill-rule="evenodd" clip-rule="evenodd" fill="#58585A" d="M451.961,182.487c2.465,0.677,4.339,3.241,3.742,6.043
			C453.987,187.15,451.688,184.908,451.961,182.487z"/>
		<path fill-rule="evenodd" clip-rule="evenodd" fill="#58585A" d="M435.844,187.379c0.287,0,0.575,0,0.864,0
			c0.902,1.681,0.327,4.546,0,6.621C434.82,193.002,435.473,188.967,435.844,187.379z"/>
		<path fill-rule="evenodd" clip-rule="evenodd" fill="#58585A" d="M83.001,188.243c-0.3,2.481-1.331,4.233-2.877,5.468
			c0.056,1.304-0.186,2.309-1.439,2.302C78.855,193.46,79.831,187.798,83.001,188.243z"/>
		<path fill-rule="evenodd" clip-rule="evenodd" d="M257.983,189.682c-0.906,0.323-0.65,0.027-1.726,0
			C256.052,188.424,258.353,187.958,257.983,189.682z"/>
		<path fill-rule="evenodd" clip-rule="evenodd" fill="#58585A" d="M422.03,189.106c-0.693,3.143-0.865,6.81-4.029,7.483
			c-0.42-2.754,1.885-5.188,2.591-7.771C421.259,188.727,421.696,188.865,422.03,189.106z"/>
		<path fill-rule="evenodd" clip-rule="evenodd" fill="#58585A" d="M126.747,220.188c-4.068-5.428-5.9-13.093-9.785-18.706
			c-0.092-0.675-0.455-1.081-0.288-2.015c-1.393-2.653-4.852-4.718-4.029-8.635c2.306,0.381,1.916,3.457,3.741,4.318
			c-0.72,4.697,3.925,6.404,5.469,9.785c0.124,1.083-0.607,1.31-1.151,1.726c0.928,3.101,3.747,4.312,4.893,7.195
			C124.42,216.305,126.418,217.673,126.747,220.188z"/>
		<path fill-rule="evenodd" clip-rule="evenodd" fill="#58585A" d="M96.24,191.697c1.996,0.823,2.177,5.113,0.863,7.195
			c-1.37-1.315-1.181-4.192-1.726-6.332C95.67,192.279,95.959,191.991,96.24,191.697z"/>
		<path fill-rule="evenodd" clip-rule="evenodd" d="M256.257,194.862c0.9-0.133,1.284,0.25,1.151,1.151c-0.384,0-0.768,0-1.151,0
			C256.257,195.63,256.257,195.247,256.257,194.862z"/>
		<path fill-rule="evenodd" clip-rule="evenodd" fill="#58585A" d="M456.854,194.862c2.309,1.392,4.698,4.056,4.318,7.195
			C458.84,200.724,457.2,197.228,456.854,194.862z"/>
		<path fill-rule="evenodd" clip-rule="evenodd" d="M259.422,196.014c-0.384,0-0.767,0-1.15,0
			C258.044,194.906,259.65,194.906,259.422,196.014z"/>
		<path fill-rule="evenodd" clip-rule="evenodd" fill="#58585A" d="M435.844,197.741c1.83,0.432,1.332,5.085,0.575,6.331
			C435.169,202.603,435.085,199.766,435.844,197.741z"/>
		<path fill-rule="evenodd" clip-rule="evenodd" fill="#58585A" d="M77.533,198.892c0.056,3.798-1.121,6.362-3.454,7.77
			C74.575,204.54,74.318,199.247,77.533,198.892z"/>
		<path fill-rule="evenodd" clip-rule="evenodd" fill="#58585A" d="M415.698,201.482c0.464-0.083,0.494,0.272,0.864,0.287
			c-0.478,1.389-0.358,5.751-2.879,6.044C412.78,205.151,414.722,203.188,415.698,201.482z"/>
		<path fill-rule="evenodd" clip-rule="evenodd" fill="#58585A" d="M96.527,202.058c2.117,1.172,1.854,5.117,0.863,7.195
			C95.229,207.764,96.2,203.977,96.527,202.058z"/>
		<path fill-rule="evenodd" clip-rule="evenodd" fill="#58585A" d="M462.608,208.389c2.538,0.843,4.434,3.786,4.032,6.619
			C464.099,214,463.527,211.021,462.608,208.389z"/>
		<path fill-rule="evenodd" clip-rule="evenodd" fill="#58585A" d="M436.131,209.541c0.193,0,0.385,0,0.577,0
			c1.354,1.302,2.218,5.868,0.286,7.196C435.695,215.503,435.895,211.364,436.131,209.541z"/>
		<path fill-rule="evenodd" clip-rule="evenodd" fill="#58585A" d="M72.928,209.829c-1.029,2.999-1.981,6.077-4.03,8.058
			C69.273,215.359,69.574,210.329,72.928,209.829z"/>
		<path fill-rule="evenodd" clip-rule="evenodd" fill="#58585A" d="M411.383,212.131c1.828,1.559-0.479,5.377-2.592,5.755
			C409.172,215.485,409.744,213.278,411.383,212.131z"/>
		<path fill-rule="evenodd" clip-rule="evenodd" fill="#58585A" d="M96.527,213.282c1.792,1.468,2.596,5.339,1.439,7.483
			C96.365,219.552,96.001,215.674,96.527,213.282z"/>
		<path fill-rule="evenodd" clip-rule="evenodd" d="M262.301,214.433C262.18,214.312,262.489,214.622,262.301,214.433
			L262.301,214.433z"/>
		<path fill-rule="evenodd" clip-rule="evenodd" fill="#58585A" d="M436.708,219.613c1.65,0.871,2.215,6.329,0,6.907
			C435.596,225.067,436.129,221.195,436.708,219.613z"/>
		<path fill-rule="evenodd" clip-rule="evenodd" fill="#58585A" d="M468.654,219.901c2.047,0.953,3.732,3.711,3.451,6.044
			C470.201,224.848,468.149,222.456,468.654,219.901z"/>
		<path fill-rule="evenodd" clip-rule="evenodd" fill="#58585A" d="M126.747,220.188c3.008,0.637,3.805,3.488,4.893,6.044
			c0.156,1.019-1.02,0.707-0.865,1.727C128.865,226.078,127.034,222.752,126.747,220.188z"/>
		<path fill-rule="evenodd" clip-rule="evenodd" d="M258.847,221.916C258.727,221.796,259.037,222.105,258.847,221.916
			L258.847,221.916z"/>
		<path fill-rule="evenodd" clip-rule="evenodd" fill="#58585A" d="M406.201,223.067c1.6,0.789,0.407,4.573-1.441,4.604
			C404.002,225.829,405.34,224.185,406.201,223.067z"/>
		<path fill-rule="evenodd" clip-rule="evenodd" fill="#58585A" d="M66.884,223.354c-0.799,2.942-1.321,6.163-3.741,7.483
			C63.357,228.434,63.7,223.74,66.884,223.354z"/>
		<path fill-rule="evenodd" clip-rule="evenodd" fill="#58585A" d="M97.103,225.37c0.667-0.093,1.105,0.045,1.439,0.287
			c-0.528,2.321,0.6,5.391-0.863,7.195C95.867,231.291,96.489,227.729,97.103,225.37z"/>
		<path fill-rule="evenodd" clip-rule="evenodd" fill="#58585A" d="M130.488,228.247c2.959,2.268,4.565,6.267,5.18,10.073
			C132.621,236.284,131.76,232.059,130.488,228.247z"/>
		<path fill-rule="evenodd" clip-rule="evenodd" fill="#58585A" d="M473.547,228.535c0.191,0,0.383,0,0.576,0
			c1.504,1.496,3.58,3.864,2.876,6.62C475.075,233.846,473.54,230.84,473.547,228.535z"/>
		<path fill-rule="evenodd" clip-rule="evenodd" fill="#58585A" d="M403.899,230.549c-0.833,2.143-1.706,4.245-3.743,5.181
			C399.95,233.78,401.625,230.038,403.899,230.549z"/>
		<path fill-rule="evenodd" clip-rule="evenodd" fill="#58585A" d="M436.708,230.838c1.665,0.929,1.884,4.736-0.289,5.18
			C435.777,234.31,435.439,231.77,436.708,230.838z"/>
		<path fill-rule="evenodd" clip-rule="evenodd" fill="#58585A" d="M61.992,233.716c-0.805,3.114-1.795,7.208-4.604,8.346
			C57.91,239.36,58.535,234.427,61.992,233.716z"/>
		<path fill-rule="evenodd" clip-rule="evenodd" fill="#58585A" d="M95.952,236.018c0.383,0,0.768,0,1.151,0
			c0.482,1.918,2.493,5.219,0,6.043C95.505,241.408,95.825,237.454,95.952,236.018z"/>
		<path fill-rule="evenodd" clip-rule="evenodd" fill="#58585A" d="M436.994,239.759c0.289,0,0.578,0,0.864,0
			c0.38,1.417,0.706,5.062-0.286,6.044C435.845,244.757,436.979,241.422,436.994,239.759z"/>
		<path fill-rule="evenodd" clip-rule="evenodd" fill="#58585A" d="M139.122,246.091c-1.445-1.529-2.215-3.733-3.165-5.756
			c2.836-0.971,3.844,2.264,4.316,4.604C139.999,245.433,139.318,245.52,139.122,246.091z"/>
		<path fill-rule="evenodd" clip-rule="evenodd" fill="#58585A" d="M478.15,240.046c2.256,0.464,3.299,3.566,2.879,5.757
			C478.762,245.351,477.91,242.059,478.15,240.046z"/>
		<path fill-rule="evenodd" clip-rule="evenodd" fill="#58585A" d="M397.281,240.335c0.214,1.628-0.868,4.003-2.592,4.604
			C395.046,242.898,395.33,240.784,397.281,240.335z"/>
		<path fill-rule="evenodd" clip-rule="evenodd" fill="#58585A" d="M96.24,244.652c1.791,1.088,0.331,5.425,1.439,7.195
			c1.873,0.849,3.494,3.577,2.014,6.043c15.155,0.472,28.833,3.393,43.169,4.316c0.629-2.079,1.579-3.962,1.439-6.044
			c1.656-0.618,2.281,2.076,4.604,1.728c1.124,2.987,1.854,6.978-1.438,8.058c-2.247,6.676-5.498,12.345-8.633,18.131
			c-4.685,4.209-8.808,8.666-15.255,11.8c-4.607,2.24-9.604,3.766-13.813,6.333c-5.879,0.538-11.058,0.353-16.981,2.014
			c-4.742-1.695-10.931,1.177-15.253-2.014c-12.312-8.697-24.975-17.045-31.083-31.948c0.047-0.887-0.681-1.626,0-2.302
			c-5.021-0.839-4.852-11.27,1.727-9.208c1.606-0.984,0.755-4.425,3.741-4.03c0.113,2.223-1.267,2.955-1.726,4.605
			c0.417,1.981,2.002,2.794,1.726,5.469c13.31-2.712,28.499-3.543,41.156-6.907c-0.346-1.285-0.737-2.525-0.575-4.317
			c0.708-1.306,2.33-1.699,3.167-2.877C95.68,249.135,94.449,245.232,96.24,244.652z M98.83,255.013
			c-0.897-0.638-3.092,0.022-4.029-0.576C94.117,257.847,99.242,258.814,98.83,255.013z M131.64,263.359
			c-4.935-0.055-9.39-1.703-14.39-2.302c-14.088-1.69-28.67-1.005-41.156,2.302c3.194-0.128,7.1-1.527,9.208-0.288
			c-3.136,1.372-8.781,0.235-11.511,2.015c7.633,0.615,16.719-0.219,23.599,1.151c-5.929,0.712-13.875-1.538-17.843,1.438
			c-5.2-0.196-13.877-0.71-19.571,1.439c8.799,2.152,20.32-1.912,30.507,0.576c-6.737,1.298-13.773-0.825-20.146,1.439
			c6.101,1.737,12.045,1.452,18.994,2.302c3.688,0.451,7.04,1.745,10.937,1.438c7.529-0.591,15.395-2.314,22.737-3.454
			c7.354-1.141,14.789-2.519,19.857-6.331C139.595,263.278,135.021,263.397,131.64,263.359z M145.166,260.769
			c-0.199,2.022,0.851,2.796,2.59,2.878C149.358,262.184,147.078,258.772,145.166,260.769z M46.451,261.345
			c-1.036,0.973-0.238,2.721-0.288,3.742c0.673,0.698,2.004,1.183,3.165,0.575C50.021,263.557,48.677,261.442,46.451,261.345z
			 M70.626,264.222c0.979,0.021,2.008,0.091,2.302-0.575C71.948,263.627,70.92,263.557,70.626,264.222z M52.782,266.812
			c6.518,0.095,11.649-0.225,16.98-2.591C64.309,265.289,56.794,263.447,52.782,266.812z M144.015,266.812
			c-5.816,3.836-14.279,5.175-22.448,6.332c-4.111,0.582-10.561,2.521-14.102,2.302c-3.039,0.341-5.609,1.529-8.059,1.727
			c-5.345,0.433-11.43-1.597-17.269-2.015c-12.241-0.876-25.287-3.625-33.385-7.195c2.985,6.225,5.692,12.728,10.937,16.693
			c0.599-0.458-0.175-2.285,1.151-2.014c1.165,2.48,1.006,6.285,4.316,6.619c0.027-0.943-1.206-4.068,0.577-4.028
			c0.715,1.97,0.706,4.666,2.302,5.754c0.2-1.14-0.503-3.188,0.575-3.452c1.542,1.434,0.313,5.635,2.59,6.331
			c0.179-0.78-0.364-2.283,0.289-2.59c1.818,1.252,1.061,5.077,3.741,5.469c-0.165-1.094-0.69-3.326,0-4.316
			c1.906,2.025,1.202,6.663,4.604,7.194c-0.051-1.297-0.14-2.635,1.151-2.59c0.265,1.557,0.991,2.653,1.439,4.028
			c0.756,0.299,1.766,0.344,2.877,0.288c0.146-0.718-0.009-1.735,0.864-1.727c0.858,0.006,0.369,1.358,0.863,1.727
			c1.561,0.069,2.8,0.462,4.605,0.288c0.397-0.659,0.315-1.796,1.438-1.727c0.186,0.869,0.451,1.66,1.439,1.727
			c1.282-0.445,3.26-0.192,4.316-0.864c0.175-1.073-0.123-2.616,0.864-2.876c1.302,0.264,0.482,2.384,0.864,2.876
			c1.699,0.927,3.556-0.209,4.029-1.438c0.658,1.973,3.49,0.846,4.892,0.288c0.648-0.504,0.088-2.216,1.151-2.303
			c0.826,0.229,0.181,1.931,1.44,1.727c2.719-0.926,5.189-2.102,6.332-4.604c1.487,2.059,3.548-0.705,5.468-0.864
			c0.388-2.82-0.039-5.392,0.288-7.194c0.8,1.724,0.906,4.583,1.151,6.045c10.043-4.828,14.912-14.828,19.282-25.327
			C144.527,266.875,144.349,266.766,144.015,266.812z"/>
		<path fill-rule="evenodd" clip-rule="evenodd" fill="#58585A" d="M56.523,246.091c-0.922,2.148-1.252,4.888-3.742,5.468
			C52.744,248.68,53.625,244.177,56.523,246.091z"/>
		<path fill-rule="evenodd" clip-rule="evenodd" fill="#58585A" d="M139.122,246.091c1.177,0.55,1.283,2.171,1.727,3.454
			c1.837-0.206,2.026,1.235,2.879,2.014c-0.564,2.147-0.162,3.057,0,4.317C141.738,253.067,140.039,249.971,139.122,246.091z"/>
		<path fill-rule="evenodd" clip-rule="evenodd" fill="#58585A" d="M441.888,251.848c13.855-0.354,28.681,3.015,39.43,6.907
			c0.132-6.874,8.902-4.11,8.634,0.288c-0.133,2.175-2.402,2.485-4.604,3.165c-2.398,5.181-3.207,11.951-7.483,15.253
			c-4.274,7.565-12.824,13.531-22.449,16.691c-2.701,0.889-5.844,0.626-9.497,1.153c-6.249,0.9-14.678,3.305-21.01,1.438
			c-2.203-0.649-6.812-1.412-9.209-2.303c-2.002-0.743-3.45-2.107-5.469-3.455c-9.639-6.424-20.014-15.028-23.887-27.339
			c-0.526-0.82-1.683-1.005-2.303-1.728c-0.454-1.624-0.227-3.951,0.575-5.756c1.423-0.688,2.722-1.499,4.604-1.727
			c0.698-2.082,1.128-4.436,3.453-4.892c-1.755,2.648-3.459,6.933,0.576,8.346c-0.313,1.318-1.405,1.854-1.437,3.454
			c8.028-2.472,18.548-4.008,27.626-3.167c0.893-1.074,2.674-0.858,4.031-0.863c3.835-0.012,8.017,0.673,11.512,0.863
			c-4.271,0.863-8.347-0.12-12.376,0.288c-1.585,0.161-3.01,0.778-4.604,0.864c-0.664,0.036-1.082-0.561-1.728-0.575
			c-1.629-0.037-4.273,0.956-6.62,1.15c-5.671,0.47-10.254,0.57-14.677,2.591c1.751,1.761,3.417-0.801,5.18-1.151
			c1.409-0.281,3.04,0.07,4.604,0c7.182-0.326,15.879-1.253,22.161,0c-3.075,1.389-5.712-0.178-8.345,1.727
			c-1.142,0.182-0.824-1.094-2.014-0.864c-0.814,0.29,0.914,0.272,0,0.864c-0.898,0.137-1.393-0.359-0.864-0.864
			c-1.295-0.24-0.755,1.354-2.302,0.864c-2.155-1.504-5.882,1.272-10.361,1.727c2.292,2.16,5.137-0.706,8.059-0.577
			c-0.604,1.553-3.07,1.283-4.029,1.728c2.991,1.007,6.734-1.043,9.498-0.288c-0.367,1.071-2.714,0.164-3.454,0.863
			c11.232,2.397,23.343,0.193,35.111,0c3.416-0.055,6.795,0.741,11.225,0.289c1.319-0.135,2.518-0.854,4.029-1.151
			c6.134-1.209,12.528-1.301,15.827-5.181c-3.042-2.712-7.975-2.67-13.238-3.74c-1.671-0.34-3.131-1.38-4.891-1.728
			c-4.305-0.849-9.979-1.357-14.103-1.727c-2.688-0.242-5.788-0.711-7.483,0.864c-11.345,0.984-22.556-0.47-32.521,1.151
			c-4.68,0.76-8.824,2.673-13.238,2.59c2.94-1.999,7.321-2.837,11.511-3.741c8.335-1.799,17.439-1.398,27.917-1.151
			c-0.084-1.391-0.712-1.597-0.286-2.879C434.741,245.974,441.622,246.998,441.888,251.848z M435.27,250.12
			c-0.333,2.347,1.422,2.606,3.452,2.59c0.298-0.664,0.989-0.928,0.864-2.014c-1.97,0.123-2.116-0.983-2.592-1.728
			C436.534,249.466,435.921,249.812,435.27,250.12z M390.085,258.466c-0.956-3.303-6.258-0.685-3.455,2.879
			C388.899,262.26,390.569,260.149,390.085,258.466z M487.937,258.755c-0.422-1.308-2.254-1.203-4.03-1.151
			C483.38,260.455,487.273,260.918,487.937,258.755z M482.179,261.057c-3.459,2.886-8.522,5.213-14.102,6.044
			c-12.786,1.906-27.279,1.726-41.156,1.726c-6.027,0-11.368-0.211-16.979-0.863c-4.673-0.542-8.366-1.398-12.375-2.59
			c-3.146-0.937-6.172-2.279-9.211-2.015c0.706,3.901,3.046,6.166,4.894,8.922c1.635,2.97,3.928,5.282,6.618,7.195
			c0.165,1.179,1.086,1.599,2.018,2.014c0.204-2.32-0.873-4.876,0-6.906c1.084,3.04,0.668,7.581,3.164,9.208
			c0.136-1.017-0.468-2.772,0.864-2.589c1.049,3.269,1.935,6.7,5.47,7.481c-0.033-1.484-1.242-4.269,0-5.177
			c0.704,3.611,1.266,8.898,5.466,8.057c-1.139-1.167-1.942-4.193-1.15-6.331c1.394,2.538,0.951,6.914,4.317,7.482
			c-0.141-1.379-0.822-4.688,0-5.181c0.729,3.298,1.508,6.551,5.181,6.907c-0.06-1.01-1.117-2.511-0.289-3.455
			c1.115,1.092,1.021,3.396,2.014,4.608c0.864,0,1.728,0,2.591,0c0.862-0.58,0.1-2.781,1.441-2.88
			c0.058,0.899-0.194,2.113,0.286,2.591c2.015-0.471,3.884,0.086,6.044-0.576c-0.028-1.178,0.039-2.263,1.149-2.302
			c0.48,0.383,0.1,1.629,0.577,2.014c0.768,0,1.536,0,2.303,0c0.332-0.914,0.152-2.342,1.439-2.303c0.536,0.511-0.234,0.731,0,1.727
			c2.325,0.404,2.747-1.089,4.029-1.727c0.604,0.08-0.418,0.769,0.288,1.153c2.766-0.209,5.661-0.289,7.482-1.441
			c0.904-0.726,0.282-2.979,1.727-3.167c0.967,0.9-0.863,1.797,0,2.592c3.522-0.123,4.345-2.944,5.758-5.179
			c0,0.767,0,1.533,0,2.302c3.574-0.454,5.214-2.844,6.041-6.045c1.188,0.389,0.043,1.613,0.577,2.303
			c6.749-5.721,12.021-12.921,14.102-23.312C482.693,261.12,482.515,261.01,482.179,261.057z M408.791,262.783
			c-0.225,0.066-0.568,0.008-0.576,0.289C408.438,263.006,408.782,263.063,408.791,262.783z M402.46,263.935
			c0.712,0.042,1.397,0.053,1.439-0.576C403.325,262.759,402.669,263.35,402.46,263.935z M405.049,263.647
			c0.714,0.043,1.194-0.149,1.44-0.576C405.775,263.029,405.091,263.017,405.049,263.647z"/>
		<path fill-rule="evenodd" clip-rule="evenodd" d="M261.149,249.545c-0.702,0.544-1.877,0.617-3.167,0.575
			c-0.151-0.232-0.299-0.467-0.287-0.863C258.64,248.595,259.666,249.839,261.149,249.545z"/>
		<path fill-rule="evenodd" clip-rule="evenodd" fill="#58585A" d="M483.044,250.12c1.523,0.301,1.46,2.187,2.014,3.454
			c-0.34,0.332-1.017,0.326-1.726,0.288C483.069,252.669,481.803,251.121,483.044,250.12z"/>
		<path fill-rule="evenodd" clip-rule="evenodd" d="M258.56,254.725c0.601-0.122,0.763,0.198,1.151,0.288
			c-0.069,0.506-0.496,0.656-1.151,0.576C258.56,255.301,258.56,255.013,258.56,254.725z"/>
		<path fill-rule="evenodd" clip-rule="evenodd" d="M528.518,255.588C529.387,254.524,529.485,256.463,528.518,255.588
			L528.518,255.588z"/>
		<path fill-rule="evenodd" clip-rule="evenodd" fill="#58585A" d="M435.27,258.178c0.48,0,0.958,0,1.438,0
			C436.959,259.369,435.27,259.056,435.27,258.178z"/>
		<path fill-rule="evenodd" clip-rule="evenodd" d="M258.847,259.042c1.229,0.209,1.254,1.623,3.166,1.151
			C261.935,262.789,257.631,260.401,258.847,259.042z"/>
		<path fill-rule="evenodd" clip-rule="evenodd" fill="#58585A" d="M470.381,260.769c-0.128,0.354-0.369,0.591-0.864,0.576
			C469.383,260.729,469.929,260.797,470.381,260.769z"/>
		<path fill-rule="evenodd" clip-rule="evenodd" fill="#58585A" d="M106.601,262.496c-3.053,0.363-9.673,0.273-11.513-0.577
			C99.049,261.281,102.76,261.844,106.601,262.496z"/>
		<path fill-rule="evenodd" clip-rule="evenodd" fill="#58585A" d="M94.225,261.919c-0.04,0.824-1.2,0.527-2.014,0.577
			C92.488,261.909,93.315,261.874,94.225,261.919z"/>
		<path fill-rule="evenodd" clip-rule="evenodd" fill="#58585A" d="M110.342,262.783
			C109.71,263.662,108.498,262.452,110.342,262.783L110.342,262.783z"/>
		<path fill-rule="evenodd" clip-rule="evenodd" fill="#58585A" d="M88.182,263.071C87.549,263.951,86.338,262.739,88.182,263.071
			L88.182,263.071z"/>
		<path fill-rule="evenodd" clip-rule="evenodd" fill="#58585A" d="M91.923,263.359c0.125-0.644,1.418-0.117,2.015-0.288
			C93.418,263.962,93.056,263.225,91.923,263.359z"/>
		<path fill-rule="evenodd" clip-rule="evenodd" d="M262.013,263.071c-0.148,1.557-3.369,1.98-4.03,0.576
			C259.642,263.77,260.728,263.321,262.013,263.071z"/>
		<path fill-rule="evenodd" clip-rule="evenodd" fill="#58585A" d="M425.771,263.935c-1.436,0.286-7.905,0.951-8.923-0.288
			C420.23,263.673,422.823,263.184,425.771,263.935z"/>
		<path fill-rule="evenodd" clip-rule="evenodd" fill="#58585A" d="M416.273,263.647c-0.299,1.235-2.364,0.705-3.454,1.151
			C413.035,262.882,415.162,264.279,416.273,263.647z"/>
		<path fill-rule="evenodd" clip-rule="evenodd" fill="#58585A" d="M426.635,264.222c1.14-0.493,2.742-0.115,3.741,0
			C430.105,265.165,427.593,264.398,426.635,264.222z"/>
		<path fill-rule="evenodd" clip-rule="evenodd" fill="#58585A" d="M411.383,264.51c-0.093-0.508,1.61-0.514,1.149,0.288
			C411.93,264.92,411.771,264.601,411.383,264.51z"/>
		<path fill-rule="evenodd" clip-rule="evenodd" fill="#58585A" d="M423.181,265.374c-0.889,1.221-3.94,0.279-5.757,0.576
			C418.314,264.728,421.366,265.67,423.181,265.374z"/>
		<path fill-rule="evenodd" clip-rule="evenodd" fill="#58585A" d="M94.513,269.978c-0.398,0.658-2.004,0.108-2.878,0.288
			C91.563,269.16,94.106,269.716,94.513,269.978z"/>
		<path fill-rule="evenodd" clip-rule="evenodd" d="M94.801,270.265c0.008-0.279,0.352-0.221,0.576-0.288
			C95.369,270.259,95.024,270.202,94.801,270.265z"/>
		<path fill-rule="evenodd" clip-rule="evenodd" d="M78.108,271.417c0.008-0.28,0.352-0.222,0.576-0.287
			C78.676,271.409,78.332,271.353,78.108,271.417z"/>
		<path fill-rule="evenodd" clip-rule="evenodd" d="M256.832,273.432c0.192,0,0.384,0,0.576,0c0,0.192,0,0.384,0,0.576
			c-0.192,0-0.384,0-0.576,0C256.832,273.816,256.832,273.624,256.832,273.432z"/>
		<path fill-rule="evenodd" clip-rule="evenodd" d="M260.862,275.446c-0.27,1.169-1.331,1.549-2.879,1.439
			C258.169,275.632,259.932,275.956,260.862,275.446z"/>
		<path fill-rule="evenodd" clip-rule="evenodd" d="M259.999,281.203C259.969,280.854,260.417,281.025,259.999,281.203
			L259.999,281.203z"/>
		<path fill-rule="evenodd" clip-rule="evenodd" d="M259.999,281.203c-0.683,0.757-1.285,1.593-2.59,1.727
			c-0.003-0.572-0.786-0.366-0.576-1.152C257.81,281.509,258.941,281.393,259.999,281.203z"/>
		<path fill-rule="evenodd" clip-rule="evenodd" d="M260.574,285.521c0.295,0.967-0.895,0.446-1.439,0.576
			C259.379,285.668,259.859,285.476,260.574,285.521z"/>
		<path fill-rule="evenodd" clip-rule="evenodd" d="M257.696,298.758C257.574,298.638,257.884,298.948,257.696,298.758
			L257.696,298.758z"/>
		<path fill-rule="evenodd" clip-rule="evenodd" d="M257.983,311.998c0.769,0,1.535,0,2.302,0
			C260.166,312.795,257.874,313.487,257.983,311.998z"/>
		<path fill-rule="evenodd" clip-rule="evenodd" d="M257.983,319.193c0.538,0.229,1.054,0.48,1.728,0.573
			c-0.054,0.811-0.501,1.228-1.439,1.152C257.94,320.58,257.946,319.903,257.983,319.193z"/>
		<path fill-rule="evenodd" clip-rule="evenodd" d="M257.983,330.128c0.289-0.452,2.061,0.031,2.016,0.864
			C258.912,331.119,258.647,330.423,257.983,330.128z"/>
		<path fill-rule="evenodd" clip-rule="evenodd" d="M260.574,332.143c1.487,0.839-0.994,2.375-2.302,2.303
			C258.145,332.785,260.54,333.644,260.574,332.143z"/>
		<path fill-rule="evenodd" clip-rule="evenodd" d="M259.134,338.188c-0.7-0.164-1.48-0.246-1.438-1.152
			C258.359,336.407,259.302,337.122,259.134,338.188z"/>
		<path fill-rule="evenodd" clip-rule="evenodd" d="M259.999,339.05c1.287,0.236-0.008,2.22-0.864,1.152
			C258.883,339.276,259.882,339.604,259.999,339.05z"/>
		<path fill-rule="evenodd" clip-rule="evenodd" d="M257.696,339.626c0.601-0.122,0.761,0.197,1.151,0.287
			C258.794,340.747,257.479,340.607,257.696,339.626z"/>
		<path fill-rule="evenodd" clip-rule="evenodd" d="M257.408,343.079c0.551,0.124,1.239,0.104,1.151,0.863
			C258.009,343.822,257.32,343.839,257.408,343.079z"/>
		<path fill-rule="evenodd" clip-rule="evenodd" d="M257.983,345.383c0.734,0.035,1.116,0.419,1.151,1.15
			C258.002,346.823,257.463,345.898,257.983,345.383z"/>
		<path fill-rule="evenodd" clip-rule="evenodd" fill="#FFFFFF" d="M258.272,350.564c-0.905,0.137-1.126-0.411-1.728-0.578
			C256.909,348.768,257.7,350.289,258.272,350.564z"/>
		<path fill-rule="evenodd" clip-rule="evenodd" d="M259.711,379.918c1.065,0.329,1.668,0.026,2.302,0.287
			C262.138,381.691,259.398,381.178,259.711,379.918z"/>
		<path fill-rule="evenodd" clip-rule="evenodd" d="M258.847,382.508c1.465,0.103,1.608,1.26,3.166,0.576
			c0.247,0.918-0.453,0.89-0.577,1.438C260.029,384.395,258.662,384.228,258.847,382.508z"/>
		<path fill-rule="evenodd" clip-rule="evenodd" d="M258.56,389.416c1.31,0.32,2.565,0.696,3.165,1.726
			C260.376,391.893,258.651,390.852,258.56,389.416z"/>
		<path fill-rule="evenodd" clip-rule="evenodd" d="M260.574,402.078c0.377,0.104,0.454,0.507,0.863,0.576
			c-0.196,1.282-2.861,1.043-2.877-0.287C259.526,402.398,260.082,402.943,260.574,402.078z"/>
		<path fill-rule="evenodd" clip-rule="evenodd" fill="#58585A" d="M362.166,423.953c1.149-0.188,0.825,1.092,0.864,2.012
			c0.293-0.187,0.299-0.66,0.863-0.576c0.252,3.713,1.712,9.4,0.575,11.803c-1.751-0.358-0.471-3.75-0.86-5.469
			c-1.511,1.082,0.436,5.618-1.729,6.043C361.822,434.189,362.515,427.872,362.166,423.953z"/>
		<path fill-rule="evenodd" clip-rule="evenodd" fill="#58585A" d="M169.341,425.965c1.83,0.667,0.944,4.046,1.151,6.334
			C168.831,430.828,170.162,428.021,169.341,425.965z"/>
		<path fill-rule="evenodd" clip-rule="evenodd" fill="#58585A" d="M365.622,426.83c1.021,0.6,1.598,5.301,0,5.754
			C365.615,430.049,365.495,429.175,365.622,426.83z"/>
		<path fill-rule="evenodd" clip-rule="evenodd" fill="#58585A" d="M183.443,429.419c0.707,0.26,0.78,2.013,0.288,2.592
			C183.328,431.449,182.87,430.079,183.443,429.419z"/>
		<path fill-rule="evenodd" clip-rule="evenodd" fill="#58585A" d="M359.004,430.857c1.081,2.616,0.926,7.825,0.86,10.651
			c-1.323-0.938-1.072-3.823-1.149-6.047C358.659,433.901,358.715,432.315,359.004,430.857z"/>
		<path fill-rule="evenodd" clip-rule="evenodd" fill="#58585A" d="M357.274,431.435c0.59,2.314,1.375,7.868-0.577,9.785
			C356.901,438.209,357.221,435.232,357.274,431.435z"/>
		<path fill-rule="evenodd" clip-rule="evenodd" fill="#58585A" d="M193.516,432.584c0.688,1.013,0.615,2.257,0.288,3.743
			C192.807,436.055,193.163,433.298,193.516,432.584z"/>
		<path fill-rule="evenodd" clip-rule="evenodd" fill="#58585A" d="M191.214,433.448
			C191.379,432.294,190.971,435.151,191.214,433.448L191.214,433.448z"/>
		<path fill-rule="evenodd" clip-rule="evenodd" fill="#58585A" d="M361.017,433.737c0.192,0,0.385,0,0.574,0
			c0,0.191,0,0.384,0,0.575c-0.189,0-0.382,0-0.574,0C361.017,434.121,361.017,433.929,361.017,433.737z"/>
		<path fill-rule="evenodd" clip-rule="evenodd" fill="#58585A" d="M355.26,434.025c0.623,1.938,1.78,5.985,0,6.619
			C355.494,438.259,354.459,436.07,355.26,434.025z"/>
		<path fill-rule="evenodd" clip-rule="evenodd" fill="#58585A" d="M351.52,434.312c0.688,1.5,1.207,6.176-0.288,7.77
			C351.561,438.84,351.129,436.847,351.52,434.312z"/>
		<path fill-rule="evenodd" clip-rule="evenodd" fill="#58585A" d="M191.214,434.887c1.05,1.581,1.287,6.172-0.288,7.483
			C190.967,439.234,191.264,438.116,191.214,434.887z"/>
		<path fill-rule="evenodd" clip-rule="evenodd" fill="#58585A" d="M201.287,434.887c1.331,2.989,0.2,8.434,0.575,12.376
			C199.89,445.192,201.602,438.902,201.287,434.887z"/>
		<path fill-rule="evenodd" clip-rule="evenodd" fill="#58585A" d="M345.763,435.176
			C346.096,434.039,346.096,436.313,345.763,435.176L345.763,435.176z"/>
		<path fill-rule="evenodd" clip-rule="evenodd" fill="#58585A" d="M348.353,434.887c1.481,2.696-0.323,6.664-0.575,9.499
			C347.139,441.414,348.555,437.565,348.353,434.887z"/>
		<path fill-rule="evenodd" clip-rule="evenodd" fill="#58585A" d="M345.763,435.751c1.405,1.854,1.623,7.544-0.289,8.922
			C345.469,442.773,346.709,438.631,345.763,435.751z"/>
		<path fill-rule="evenodd" clip-rule="evenodd" fill="#58585A" d="M353.246,436.04C354.491,436.159,352.94,437.71,353.246,436.04
			L353.246,436.04z"/>
		<path fill-rule="evenodd" clip-rule="evenodd" fill="#58585A" d="M206.755,437.766c0.982-0.103,1.214,1.666,0,1.44
			C206.755,438.725,206.755,438.246,206.755,437.766z"/>
		<path fill-rule="evenodd" clip-rule="evenodd" fill="#58585A" d="M353.246,437.766c0.784,0.69,0.729,5-0.576,5.469
			C352.076,441.692,353.204,439.609,353.246,437.766z"/>
		<path fill-rule="evenodd" clip-rule="evenodd" fill="#58585A" d="M206.467,439.78c0.289,0,0.577,0,0.864,0
			c-0.162,2.943,0.749,9.091-0.864,10.648C206.253,447.784,206.615,443.309,206.467,439.78z"/>
		<path fill-rule="evenodd" clip-rule="evenodd" fill="#58585A" d="M337.418,440.645c1.325,3.302,1.229,6.87,0.862,10.36
			c-1.591-0.916-0.431-3.949-0.577-6.045C337.589,443.314,336.532,441.824,337.418,440.645z"/>
		<path fill-rule="evenodd" clip-rule="evenodd" fill="#58585A" d="M156.679,441.796c0.104,0.967-1.248,0.478-1.728,0.862
			C155.117,441.962,156.038,442.02,156.679,441.796z"/>
		<path fill-rule="evenodd" clip-rule="evenodd" fill="#58585A" d="M159.269,441.796c1.951,0.157,4.559-0.338,6.044,0.286
			C164.451,442.955,159.71,443.21,159.269,441.796z"/>
		<path fill-rule="evenodd" clip-rule="evenodd" fill="#58585A" d="M216.541,441.796c0.75,0.283,0.77,2.251,0.288,2.877
			C216.078,444.389,216.058,442.421,216.541,441.796z"/>
		<path fill-rule="evenodd" clip-rule="evenodd" fill="#58585A" d="M158.692,442.37C158.572,442.25,158.881,442.561,158.692,442.37
			L158.692,442.37z"/>
		<path fill-rule="evenodd" clip-rule="evenodd" fill="#58585A" d="M221.145,442.082c0.891,2.355,0.767,8.726,0.288,11.226
			C220.495,450.527,220.685,445.172,221.145,442.082z"/>
		<path fill-rule="evenodd" clip-rule="evenodd" fill="#58585A" d="M219.418,442.37c0.882,2.049,0.441,6.013,0.576,8.347
			C218.276,448.499,219.673,445.522,219.418,442.37z"/>
		<path fill-rule="evenodd" clip-rule="evenodd" fill="#58585A" d="M397.281,442.658c-0.115-0.558,1.308-0.42,0.86,0.288
			c-0.191,0-0.384,0-0.575,0C397.619,442.702,397.456,442.674,397.281,442.658z"/>
		<path fill-rule="evenodd" clip-rule="evenodd" fill="#58585A" d="M331.372,442.658c0.272,3.014,1.367,6.658,0.577,9.785
			C331.099,449.548,330.924,446.08,331.372,442.658z"/>
		<path fill-rule="evenodd" clip-rule="evenodd" fill="#58585A" d="M224.311,442.946c0.56,2.923,0.708,6.396,0,9.21
			C223.466,449.824,223.514,445.416,224.311,442.946z"/>
		<path fill-rule="evenodd" clip-rule="evenodd" fill="#58585A" d="M329.357,443.234C329.69,442.097,329.69,444.372,329.357,443.234
			L329.357,443.234z"/>
		<path fill-rule="evenodd" clip-rule="evenodd" fill="#58585A" d="M333.676,442.946c0.729,2.419,0.719,5.837,0,8.059
			C332.555,449.874,333.902,444.998,333.676,442.946z"/>
		<path fill-rule="evenodd" clip-rule="evenodd" fill="#58585A" d="M191.214,443.521
			C191.379,442.367,190.971,445.225,191.214,443.521L191.214,443.521z"/>
		<path fill-rule="evenodd" clip-rule="evenodd" fill="#58585A" d="M341.734,443.234c0.445,0.419,0.604,1.121,0.573,2.015
			C341.423,445.237,341.279,443.721,341.734,443.234z"/>
		<path fill-rule="evenodd" clip-rule="evenodd" fill="#58585A" d="M377.133,443.811
			C377.851,442.686,377.553,444.764,377.133,443.811L377.133,443.811z"/>
		<path fill-rule="evenodd" clip-rule="evenodd" fill="#58585A" d="M243.881,444.099c0.932,2.876,0.977,9.192,0.864,12.949
			c-1.118-0.661-1.034-3.169-1.151-5.181C243.429,449.026,243.599,445.989,243.881,444.099z"/>
		<path fill-rule="evenodd" clip-rule="evenodd" fill="#58585A" d="M329.357,444.099c0.988,1.764,0.885,7.14,0,8.92
			C327.981,450.645,329.573,446.45,329.357,444.099z"/>
		<path fill-rule="evenodd" clip-rule="evenodd" fill="#58585A" d="M350.943,444.099c1.157-0.077,0.649,2.352-0.576,1.726
			C349.583,445.045,351.112,445.108,350.943,444.099z"/>
		<path fill-rule="evenodd" clip-rule="evenodd" fill="#58585A" d="M228.052,444.386c0.872,0.345,0.457,2.259,0.289,3.165
			C227.682,447.06,228.234,445.354,228.052,444.386z"/>
		<path fill-rule="evenodd" clip-rule="evenodd" fill="#58585A" d="M149.771,444.96c0.008-0.278,0.352-0.223,0.575-0.287
			C150.338,444.954,149.994,444.896,149.771,444.96z"/>
		<path fill-rule="evenodd" clip-rule="evenodd" fill="#58585A" d="M238.989,444.673c0.537,3.095,1.063,9.005-0.575,11.513
			C238.542,452.499,237.985,448.424,238.989,444.673z"/>
		<path fill-rule="evenodd" clip-rule="evenodd" fill="#58585A" d="M241.291,444.673c0.507,0.07,0.656,0.496,0.577,1.151
			C241.002,446.115,241.356,445.183,241.291,444.673z"/>
		<path fill-rule="evenodd" clip-rule="evenodd" fill="#58585A" d="M325.042,444.673c0.287,0,0.574,0,0.861,0
			c-0.465,3.084,1.001,8.099-0.861,9.784C324.206,452.629,325.562,448.099,325.042,444.673z"/>
		<path fill-rule="evenodd" clip-rule="evenodd" fill="#58585A" d="M327.056,444.96C327.389,443.824,327.389,446.098,327.056,444.96
			L327.056,444.96z"/>
		<path fill-rule="evenodd" clip-rule="evenodd" fill="#58585A" d="M216.541,444.96c0.386,0.19,0.537,0.616,0.575,1.153
			C216.22,446.245,216.087,445.389,216.541,444.96z"/>
		<path fill-rule="evenodd" clip-rule="evenodd" fill="#58585A" d="M251.653,444.96c0.465-0.08,0.495,0.271,0.863,0.289
			c-0.354,4.398,0.875,8.693,0,12.663c-1.939-0.717-0.602-3.6-0.577-5.756C251.971,449.633,251.111,447.003,251.653,444.96z"/>
		<path fill-rule="evenodd" clip-rule="evenodd" fill="#58585A" d="M233.521,445.536
			C233.854,444.401,233.854,446.676,233.521,445.536L233.521,445.536z"/>
		<path fill-rule="evenodd" clip-rule="evenodd" fill="#58585A" d="M111.206,445.536c0.879-0.207,0.846,0.496,1.726,0.288
			C112.927,446.265,110.8,446.454,111.206,445.536z"/>
		<path fill-rule="evenodd" clip-rule="evenodd" fill="#58585A" d="M230.931,445.536c0.95,0.093,0.588,2.047-0.288,2.015
			C230.477,446.616,230.837,446.213,230.931,445.536z"/>
		<path fill-rule="evenodd" clip-rule="evenodd" fill="#58585A" d="M302.017,445.536c0.466-0.082,0.495,0.272,0.864,0.288
			c-0.108,2.735,0.271,3.949,0.288,6.043C301.508,451.183,301.682,447.272,302.017,445.536z"/>
		<path fill-rule="evenodd" clip-rule="evenodd" fill="#58585A" d="M176.536,446.4c0.036,1.274-1.498,0.255-1.726,0
			C174.921,445.457,176.166,445.99,176.536,446.4z"/>
		<path fill-rule="evenodd" clip-rule="evenodd" fill="#58585A" d="M151.785,446.4c0.124,0.548,0.62,0.722,0.575,1.438
			c-0.339,0.426-1.086,0.447-1.438,0.864c-1.417-0.253,0.955-1.358-0.577-1.729C150.389,446.348,151.071,446.358,151.785,446.4z"/>
		<path fill-rule="evenodd" clip-rule="evenodd" fill="#58585A" d="M262.301,446.4c1.417,3.631,0.098,8.242,1.151,12.087
			c-1.397,0.573-0.905-1.065-2.302,0C262.034,453.891,261.213,450.755,262.301,446.4z M262.013,453.019
			C261.769,454.722,262.178,451.865,262.013,453.019L262.013,453.019z"/>
		<path fill-rule="evenodd" clip-rule="evenodd" fill="#58585A" d="M246.472,446.689c0.39,0.088,0.239,0.719,0.288,1.149
			C246.093,447.759,246.098,447.07,246.472,446.689z"/>
		<path fill-rule="evenodd" clip-rule="evenodd" fill="#58585A" d="M300.578,447.263
			C300.456,447.144,300.766,447.452,300.578,447.263L300.578,447.263z"/>
		<path fill-rule="evenodd" clip-rule="evenodd" fill="#58585A" d="M327.344,446.975c0.352,0.611,0.676,2.119,0.289,2.59
			C326.487,449.277,327.355,447.832,327.344,446.975z"/>
		<path fill-rule="evenodd" clip-rule="evenodd" fill="#58585A" d="M368.787,447.551c-0.672,0-1.344,0-2.016,0
			C367.008,447.248,368.854,446.34,368.787,447.551z"/>
		<path fill-rule="evenodd" clip-rule="evenodd" fill="#58585A" d="M304.896,447.263c1.104-0.07,0.551,2.473,0.287,2.879
			C304.134,449.934,304.691,447.948,304.896,447.263z"/>
		<path fill-rule="evenodd" clip-rule="evenodd" fill="#58585A" d="M365.333,447.263c0.08,0.922-1.261,1.046-1.725,0.576
			C363.872,447.335,364.507,447.205,365.333,447.263z"/>
		<path fill-rule="evenodd" clip-rule="evenodd" fill="#58585A" d="M312.09,447.551c1.04-0.271,0.4,1.133,0.576,1.727
			C311.626,449.551,312.264,448.143,312.09,447.551z"/>
		<path fill-rule="evenodd" clip-rule="evenodd" fill="#58585A" d="M362.166,447.551c-0.034,1.066-0.418,0.724-1.149,0.577
			C361.084,447.621,361.511,447.472,362.166,447.551z"/>
		<path fill-rule="evenodd" clip-rule="evenodd" fill="#58585A" d="M390.947,447.839
			C391.663,446.718,391.366,448.793,390.947,447.839L390.947,447.839z"/>
		<path fill-rule="evenodd" clip-rule="evenodd" fill="#58585A" d="M300.578,447.839c0.63,1.157,0.596,5.988-0.864,6.907
			C300.411,452.853,299.381,449.235,300.578,447.839z"/>
		<path fill-rule="evenodd" clip-rule="evenodd" fill="#58585A" d="M360.153,448.128c0.006-0.281,0.351-0.225,0.575-0.289
			C360.721,448.119,360.376,448.062,360.153,448.128z"/>
		<path fill-rule="evenodd" clip-rule="evenodd" fill="#58585A" d="M181.716,448.414c0.008-0.281,0.353-0.223,0.576-0.286
			C182.285,448.405,181.94,448.35,181.716,448.414z"/>
		<path fill-rule="evenodd" clip-rule="evenodd" fill="#58585A" d="M228.052,448.128c1.136,1.207,0.437,5.644,0.576,6.905
			C226.688,453.551,228.5,450.49,228.052,448.128z"/>
		<path fill-rule="evenodd" clip-rule="evenodd" fill="#58585A" d="M268.92,448.703C269.085,447.548,268.676,450.406,268.92,448.703
			L268.92,448.703z"/>
		<path fill-rule="evenodd" clip-rule="evenodd" fill="#58585A" d="M307.773,448.414c0.192,0,0.384,0,0.576,0c0,0.384,0,0.77,0,1.15
			c-0.192,0-0.384,0-0.576,0C307.773,449.184,307.773,448.798,307.773,448.414z"/>
		<path fill-rule="evenodd" clip-rule="evenodd" fill="#58585A" d="M266.618,448.703c0.288,0,0.576,0,0.863,0
			c-0.111,2.569,0.051,4.608,0,6.043C266.36,453.562,266.759,450.862,266.618,448.703z"/>
		<path fill-rule="evenodd" clip-rule="evenodd" fill="#58585A" d="M314.392,448.992
			C314.726,447.853,314.726,450.127,314.392,448.992L314.392,448.992z"/>
		<path fill-rule="evenodd" clip-rule="evenodd" fill="#58585A" d="M143.439,450.142c-1.604-0.762-4.223,1.024-4.893-0.864
			C140.358,449.249,142.376,448.46,143.439,450.142z"/>
		<path fill-rule="evenodd" clip-rule="evenodd" fill="#58585A" d="M246.472,448.992c0.44,0.592,0.46,2.56,0.288,2.875
			C245.776,451.245,246.595,450.152,246.472,448.992z"/>
		<path fill-rule="evenodd" clip-rule="evenodd" fill="#58585A" d="M297.987,448.992c0.737,0.029,0.571,0.962,0.577,1.725
			C297.829,450.685,297.993,449.752,297.987,448.992z"/>
		<path fill-rule="evenodd" clip-rule="evenodd" fill="#58585A" d="M366.197,449.277c0.009-0.279,0.351-0.223,0.574-0.285
			C366.765,449.271,366.42,449.215,366.197,449.277z"/>
		<path fill-rule="evenodd" clip-rule="evenodd" fill="#58585A" d="M136.532,449.564c0.008-0.278,0.352-0.223,0.576-0.287
			C137.1,449.559,136.755,449.501,136.532,449.564z"/>
		<path fill-rule="evenodd" clip-rule="evenodd" fill="#58585A" d="M352.093,449.564c0.579-0.095,0.902,0.059,0.864,0.577
			c-0.287,0-0.575,0-0.864,0C352.093,449.948,352.093,449.756,352.093,449.564z"/>
		<path fill-rule="evenodd" clip-rule="evenodd" fill="#58585A" d="M258.272,449.854c0.835,2.386,0.843,6.396,0,8.634
			C256.583,457.056,258.268,452.38,258.272,449.854z"/>
		<path fill-rule="evenodd" clip-rule="evenodd" fill="#58585A" d="M268.632,449.854c1.26,1.679,0.369,5.839,0.288,8.059
			c-1.242,0.003-0.727,0.431-1.151,1.438c-1.125-0.41-0.378-2.691-0.863-3.74c0.257-0.225,0.65-0.31,1.152-0.289
			C267.953,453.204,268.619,451.855,268.632,449.854z"/>
		<path fill-rule="evenodd" clip-rule="evenodd" fill="#58585A" d="M128.186,450.142c-0.126,0.354-0.369,0.593-0.865,0.575
			C127.187,450.104,127.732,450.169,128.186,450.142z"/>
		<path fill-rule="evenodd" clip-rule="evenodd" fill="#58585A" d="M130.775,450.142c-0.042,0.631-0.724,0.618-1.438,0.575
			C129.042,449.751,130.232,450.271,130.775,450.142z"/>
		<path fill-rule="evenodd" clip-rule="evenodd" fill="#58585A" d="M327.918,450.142c0.356,0.499,0.246,2.375-0.862,2.302
			C327.146,451.476,326.672,449.948,327.918,450.142z"/>
		<path fill-rule="evenodd" clip-rule="evenodd" fill="#58585A" d="M357.274,450.429
			C357.155,450.309,357.464,450.616,357.274,450.429L357.274,450.429z"/>
		<path fill-rule="evenodd" clip-rule="evenodd" fill="#58585A" d="M124.157,450.717c0.047-0.336,0.524-0.243,0.862-0.288
			C124.972,450.766,124.495,450.672,124.157,450.717z"/>
		<path fill-rule="evenodd" clip-rule="evenodd" fill="#58585A" d="M308.062,450.429c1.146-0.187,0.825,1.095,0.861,2.015
			C307.941,452.465,308.073,451.378,308.062,450.429z"/>
		<path fill-rule="evenodd" clip-rule="evenodd" fill="#58585A" d="M319.284,450.717c0.541,0.59,1.418,2.995,0.289,3.452
			C318.364,454.008,319.153,451.403,319.284,450.717z"/>
		<path fill-rule="evenodd" clip-rule="evenodd" fill="#58585A" d="M304.896,451.005c1.168,0.519,0.538,3.904-0.288,4.316
			C304.74,453.92,304.308,451.952,304.896,451.005z"/>
		<path fill-rule="evenodd" clip-rule="evenodd" fill="#58585A" d="M349.791,451.005c-0.042,0.628-0.724,0.62-1.438,0.576
			C348.058,450.615,349.248,451.132,349.791,451.005z"/>
		<path fill-rule="evenodd" clip-rule="evenodd" fill="#58585A" d="M279.282,451.294c0.835,0.251,0.322,0.43,0.287,1.149
			C278.902,452.363,278.907,451.675,279.282,451.294z"/>
		<path fill-rule="evenodd" clip-rule="evenodd" fill="#58585A" d="M312.09,451.294c1.075,0.773,0.769,4.926,0,5.754
			C310.88,455.498,312.305,453.238,312.09,451.294z"/>
		<path fill-rule="evenodd" clip-rule="evenodd" fill="#58585A" d="M177.399,451.581c-0.567,2.668-5.38,0.9-6.618,1.438
			C172.035,451.005,175.532,452.562,177.399,451.581z"/>
		<path fill-rule="evenodd" clip-rule="evenodd" fill="#58585A" d="M322.451,452.156
			C322.784,451.02,322.784,453.294,322.451,452.156L322.451,452.156z"/>
		<path fill-rule="evenodd" clip-rule="evenodd" fill="#58585A" d="M93.363,452.156c0.479,0,0.959,0,1.438,0
			c0.296,0.967-0.895,0.448-1.438,0.576C93.363,452.54,93.363,452.348,93.363,452.156z"/>
		<path fill-rule="evenodd" clip-rule="evenodd" fill="#58585A" d="M169.917,452.443c-3.573,1.512-9.903,1.209-14.39,0.864
			C159.599,452.17,166.139,452.72,169.917,452.443z"/>
		<path fill-rule="evenodd" clip-rule="evenodd" fill="#58585A" d="M302.592,452.156c1.09,0.841,1.211,4.294,0.577,5.756
			C302.04,456.362,302.482,453.763,302.592,452.156z"/>
		<path fill-rule="evenodd" clip-rule="evenodd" fill="#58585A" d="M262.013,453.019
			C262.178,451.865,261.769,454.722,262.013,453.019L262.013,453.019z"/>
		<path fill-rule="evenodd" clip-rule="evenodd" fill="#58585A" d="M279.282,452.732c0.312,0.069,0.194,0.571,0.575,0.575
			C279.732,454.104,278.951,453.321,279.282,452.732z"/>
		<path fill-rule="evenodd" clip-rule="evenodd" fill="#58585A" d="M154.951,453.019c-1.5,0.952-5.017,1.201-6.619,0.289
			C151.3,453.43,152.58,453.015,154.951,453.019z"/>
		<path fill-rule="evenodd" clip-rule="evenodd" fill="#58585A" d="M298.564,453.308
			C298.443,453.186,298.752,453.495,298.564,453.308L298.564,453.308z"/>
		<path fill-rule="evenodd" clip-rule="evenodd" fill="#58585A" d="M308.637,453.019c0.788,0,1.12,1.924,0.575,2.303
			C307.835,455.104,308.862,454.27,308.637,453.019z"/>
		<path fill-rule="evenodd" clip-rule="evenodd" fill="#58585A" d="M146.03,453.597c0.168,0.613-1.719,1.044-1.44,0
			C145.14,453.056,145.112,453.768,146.03,453.597z"/>
		<path fill-rule="evenodd" clip-rule="evenodd" fill="#58585A" d="M144.015,453.883c-0.09,0.391-0.72,0.237-1.152,0.286
			C142.944,453.504,143.633,453.509,144.015,453.883z"/>
		<path fill-rule="evenodd" clip-rule="evenodd" fill="#58585A" d="M183.443,453.883c-0.369,1.264-3.011,0.25-4.317,0.574
			C180.049,453.159,181.427,454.088,183.443,453.883z"/>
		<path fill-rule="evenodd" clip-rule="evenodd" fill="#58585A" d="M193.804,453.597c-1.05,1.282-3.046,0.609-4.892,0.572
			C189.666,453.103,192.177,453.789,193.804,453.597z"/>
		<path fill-rule="evenodd" clip-rule="evenodd" fill="#58585A" d="M196.682,453.883c-0.08,0.667-0.768,0.661-1.151,0.286
			C195.611,453.504,196.3,453.509,196.682,453.883z"/>
		<path fill-rule="evenodd" clip-rule="evenodd" fill="#58585A" d="M188.335,454.169
			C188.215,454.05,188.524,454.359,188.335,454.169L188.335,454.169z"/>
		<path fill-rule="evenodd" clip-rule="evenodd" fill="#58585A" d="M171.931,454.746c0.047-0.338,0.524-0.241,0.863-0.289
			C172.749,454.795,172.27,454.701,171.931,454.746z"/>
		<path fill-rule="evenodd" clip-rule="evenodd" fill="#58585A" d="M164.448,455.321
			C164.328,455.199,164.637,455.509,164.448,455.321L164.448,455.321z"/>
		<path fill-rule="evenodd" clip-rule="evenodd" fill="#58585A" d="M200.711,455.61C200.59,455.488,200.9,455.798,200.711,455.61
			L200.711,455.61z"/>
		<path fill-rule="evenodd" clip-rule="evenodd" fill="#58585A" d="M368.499,455.61C368.832,454.471,368.832,456.745,368.499,455.61
			L368.499,455.61z"/>
		<path fill-rule="evenodd" clip-rule="evenodd" fill="#58585A" d="M264.891,455.61c0.732,0.027,0.679,1.072,0.287,1.438
			C264.446,457.021,264.499,455.975,264.891,455.61z"/>
		<path fill-rule="evenodd" clip-rule="evenodd" fill="#58585A" d="M200.423,456.76c-0.214,0.648-1.613,0.112-2.302,0.288
			C198.747,456.408,199.456,456.391,200.423,456.76z"/>
		<path fill-rule="evenodd" clip-rule="evenodd" fill="#58585A" d="M210.785,456.76c-0.34,1.68-1.748,0.288-2.879,0.288
			C208.302,456.188,209.99,456.448,210.785,456.76z"/>
		<path fill-rule="evenodd" clip-rule="evenodd" fill="#58585A" d="M183.731,457.337c-0.216,0.665-2.238,1.004-2.015-0.289
			C182.437,456.324,182.847,457.379,183.731,457.337z"/>
		<path fill-rule="evenodd" clip-rule="evenodd" fill="#58585A" d="M168.478,457.912c-1.297-0.181-2.886,0.996-3.165-0.575
			C166.205,456.996,168.295,456.724,168.478,457.912z"/>
		<path fill-rule="evenodd" clip-rule="evenodd" fill="#58585A" d="M174.233,457.048c0.192,0,0.384,0,0.576,0
			c0,0.192,0,0.384,0,0.575c-0.192,0-0.384,0-0.576,0C174.233,457.432,174.233,457.24,174.233,457.048z"/>
		<path fill-rule="evenodd" clip-rule="evenodd" fill="#58585A" d="M175.96,457.337c-0.049-0.623,1.02-0.132,1.438-0.289
			c-0.047,0.335,0.064,0.514,0.289,0.575c-0.043,0.631-0.725,0.62-1.44,0.578C176.273,457.791,176.296,457.385,175.96,457.337z"/>
		<path fill-rule="evenodd" clip-rule="evenodd" fill="#58585A" d="M187.76,457.337c0.047-0.338,0.525-0.243,0.863-0.289
			C188.576,457.385,188.099,457.291,187.76,457.337z"/>
		<path fill-rule="evenodd" clip-rule="evenodd" fill="#58585A" d="M160.132,457.623c0.84-0.422,0.84,1.286,0,0.864
			C160.132,458.201,160.132,457.912,160.132,457.623z"/>
		<path fill-rule="evenodd" clip-rule="evenodd" fill="#58585A" d="M190.062,458.201c0.192,0,0.385,0,0.575,0
			c0,0.191,0,0.384,0,0.575c-0.19,0-0.383,0-0.575,0C190.062,458.585,190.062,458.393,190.062,458.201z"/>
		<path fill-rule="evenodd" clip-rule="evenodd" fill="#58585A" d="M192.077,458.487
			C191.956,458.367,192.266,458.675,192.077,458.487L192.077,458.487z"/>
		<path fill-rule="evenodd" clip-rule="evenodd" fill="#58585A" d="M203.014,459.926c0.009-0.278,0.352-0.221,0.576-0.288
			C203.582,459.919,203.237,459.863,203.014,459.926z"/>
		<path fill-rule="evenodd" clip-rule="evenodd" fill="#58585A" d="M188.048,461.941c0.008-0.278,0.351-0.223,0.575-0.289
			C188.616,461.934,188.271,461.877,188.048,461.941z"/>
		<path fill-rule="evenodd" clip-rule="evenodd" fill="#58585A" d="M227.189,462.517c0.008-0.281,0.353-0.223,0.575-0.288
			C227.757,462.51,227.413,462.451,227.189,462.517z"/>
		<path fill-rule="evenodd" clip-rule="evenodd" fill="#58585A" d="M228.628,462.517c0.007-0.281,0.352-0.223,0.576-0.288
			C229.195,462.51,228.851,462.451,228.628,462.517z"/>
		<path fill-rule="evenodd" clip-rule="evenodd" fill="#58585A" d="M177.688,462.806c0.07-0.363,0.572-0.29,0.575,0
			C178.135,463.223,178.01,462.774,177.688,462.806z"/>
		<path fill-rule="evenodd" clip-rule="evenodd" fill="#58585A" d="M175.096,463.381c0,0.191,0,0.383,0,0.574
			C173.694,464.244,174.566,462.423,175.096,463.381z"/>
		<path fill-rule="evenodd" clip-rule="evenodd" fill="#58585A" d="M219.418,463.381c0.008-0.281,0.352-0.225,0.576-0.287
			C219.986,463.371,219.642,463.316,219.418,463.381z"/>
		<path fill-rule="evenodd" clip-rule="evenodd" fill="#58585A" d="M214.526,463.381
			C213.894,464.259,212.682,463.049,214.526,463.381L214.526,463.381z"/>
		<path fill-rule="evenodd" clip-rule="evenodd" fill="#58585A" d="M242.442,463.381c0.765,0.003,1.644-0.11,2.015,0.285
			C244.362,464.617,242.411,464.258,242.442,463.381z"/>
		<path fill-rule="evenodd" clip-rule="evenodd" fill="#58585A" d="M212.51,463.955C212.39,463.836,212.7,464.144,212.51,463.955
			L212.51,463.955z"/>
		<path fill-rule="evenodd" clip-rule="evenodd" fill="#58585A" d="M203.876,464.244c-0.1,0.954-1.658,0.452-2.589,0.575
			C201.442,463.938,203.355,463.865,203.876,464.244z"/>
		<path fill-rule="evenodd" clip-rule="evenodd" fill="#58585A" d="M205.892,463.955c-0.069,0.508-0.495,0.655-1.15,0.575
			C204.45,463.666,205.382,464.021,205.892,463.955z"/>
		<path fill-rule="evenodd" clip-rule="evenodd" fill="#58585A" d="M197.546,464.244c0.027,0.89-0.869,0.856-1.728,0.863
			C196.317,464.742,196.572,464.136,197.546,464.244z"/>
		<path fill-rule="evenodd" clip-rule="evenodd" fill="#58585A" d="M200.137,464.53c0.047,0.626-1.021,0.132-1.439,0.289
			C198.958,464.321,199.705,464.074,200.137,464.53z"/>
		<path fill-rule="evenodd" clip-rule="evenodd" fill="#58585A" d="M263.164,464.244c0.667-0.093,1.104,0.046,1.439,0.286
			C264.55,465.417,263.053,465.136,263.164,464.244z"/>
		<path fill-rule="evenodd" clip-rule="evenodd" fill="#58585A" d="M261.149,464.819
			C261.029,464.697,261.339,465.007,261.149,464.819L261.149,464.819z"/>
		<path fill-rule="evenodd" clip-rule="evenodd" fill="#58585A" d="M300.289,464.819c-0.43,0.669-0.703,0.439-1.437,0.288
			C298.879,464.373,299.926,464.429,300.289,464.819z"/>
		<path fill-rule="evenodd" clip-rule="evenodd" fill="#58585A" d="M209.346,465.972c-1.274,0.313-1.431-0.49-2.302-0.577
			C207.315,464.312,209.607,464.768,209.346,465.972z"/>
		<path fill-rule="evenodd" clip-rule="evenodd" fill="#58585A" d="M254.818,464.819c0.295,0.968-0.895,0.448-1.439,0.575
			C253.421,464.766,254.104,464.777,254.818,464.819z"/>
		<path fill-rule="evenodd" clip-rule="evenodd" fill="#58585A" d="M256.832,464.819c-0.125,0.354-0.368,0.589-0.863,0.575
			C255.834,464.781,256.38,464.847,256.832,464.819z"/>
		<path fill-rule="evenodd" clip-rule="evenodd" fill="#58585A" d="M191.501,465.107c0.354,0.125,0.59,0.367,0.576,0.864
			c-0.384,0.41-1.63,0.41-2.015,0C190.156,465.297,191.318,465.689,191.501,465.107z"/>
		<path fill-rule="evenodd" clip-rule="evenodd" fill="#58585A" d="M247.047,465.107c0.009,0.85-1.332,0.974-1.726,0.576
			C245.675,465.269,246.31,465.139,247.047,465.107z"/>
		<path fill-rule="evenodd" clip-rule="evenodd" fill="#58585A" d="M249.062,465.395
			C249.395,464.258,249.395,466.532,249.062,465.395L249.062,465.395z"/>
		<path fill-rule="evenodd" clip-rule="evenodd" fill="#58585A" d="M251.364,465.395c0.046-0.336,0.525-0.242,0.863-0.287
			C252.181,465.445,251.703,465.352,251.364,465.395z"/>
		<path fill-rule="evenodd" clip-rule="evenodd" fill="#58585A" d="M283.887,465.395
			C284.756,464.33,284.856,466.269,283.887,465.395L283.887,465.395z"/>
		<path fill-rule="evenodd" clip-rule="evenodd" fill="#58585A" d="M241.003,465.395c0.694-0.119,0.626,0.525,1.439,0.289
			C242.493,466.152,240.559,466.265,241.003,465.395z"/>
		<path fill-rule="evenodd" clip-rule="evenodd" fill="#58585A" d="M275.541,466.546c-0.428,1.14-1.137,0.067-2.016,0
			c-2.498-0.19-5.808,0.758-6.907,0.288C268.223,465.473,273.85,465.147,275.541,466.546z"/>
		<path fill-rule="evenodd" clip-rule="evenodd" fill="#58585A" d="M277.266,465.972c0.046-0.338,0.524-0.244,0.863-0.288
			C278.083,466.021,277.604,465.924,277.266,465.972z"/>
		<path fill-rule="evenodd" clip-rule="evenodd" fill="#58585A" d="M235.535,466.257c0.089-0.389,0.72-0.239,1.151-0.285
			C236.605,466.638,235.918,466.631,235.535,466.257z"/>
		<path fill-rule="evenodd" clip-rule="evenodd" fill="#58585A" d="M284.174,466.257
			C284.052,466.137,284.362,466.446,284.174,466.257L284.174,466.257z"/>
		<path fill-rule="evenodd" clip-rule="evenodd" fill="#58585A" d="M226.038,466.546c0.667-0.091,1.104,0.046,1.439,0.288
			C227.527,467.304,225.594,467.414,226.038,466.546z"/>
		<path fill-rule="evenodd" clip-rule="evenodd" fill="#58585A" d="M223.16,467.121c-0.245,0.426-0.724,0.619-1.439,0.577
			C221.425,466.731,222.616,467.251,223.16,467.121z"/>
		<path fill-rule="evenodd" clip-rule="evenodd" fill="#58585A" d="M261.149,467.698c0.007-0.281,0.353-0.226,0.575-0.288
			C261.716,467.688,261.373,467.632,261.149,467.698z"/>
		<path fill-rule="evenodd" clip-rule="evenodd" fill="#58585A" d="M215.102,467.985c0.192,0,0.383,0,0.575,0
			c0.134,0.613-0.411,0.549-0.863,0.574C214.868,468.329,215.102,468.274,215.102,467.985z"/>
	</g>
</g>
</svg>
